<?xml version="1.0" encoding="UTF-8" standalone="no"?><svg xmlns="http://www.w3.org/2000/svg" xmlns:xlink="http://www.w3.org/1999/xlink" fill="#000000" height="829.7" preserveAspectRatio="xMidYMid meet" version="1" viewBox="-0.4 -0.7 1353.7 829.7" width="1353.7" zoomAndPan="magnify"><defs><clipPath id="a"><path d="M 1323 449 L 1353.308594 449 L 1353.308594 458 L 1323 458 Z M 1323 449"/></clipPath></defs><g><g id="change1_2"><path d="M 1179.609375 597.519531 C 1179.789062 597.414062 1179.949219 597.355469 1180.109375 597.3125 C 1179.949219 597.355469 1179.789062 597.414062 1179.609375 597.519531 Z M 1170.859375 518.621094 C 1171.53125 518.308594 1172.199219 517.992188 1172.871094 517.679688 C 1172.199219 517.992188 1171.53125 518.308594 1170.859375 518.621094 Z M 1158.140625 603.96875 C 1158.738281 603.175781 1159.261719 602.121094 1159.648438 600.746094 C 1159.261719 602.121094 1158.738281 603.175781 1158.140625 603.96875 Z M 1148.738281 559.886719 C 1148.988281 560.351562 1149.179688 560.878906 1149.460938 561.3125 C 1149.179688 560.878906 1148.988281 560.351562 1148.738281 559.886719 Z M 1133.390625 640.980469 C 1133.671875 640.355469 1133.949219 639.730469 1134.230469 639.105469 C 1133.949219 639.730469 1133.671875 640.355469 1133.390625 640.980469 Z M 1084.46875 631.890625 C 1084.980469 631.480469 1085.488281 631.074219 1085.988281 630.664062 C 1085.988281 630.664062 1085.988281 630.664062 1086 630.664062 C 1085.488281 631.074219 1084.980469 631.480469 1084.46875 631.890625 Z M 1083.878906 637.789062 C 1084.578125 637.464844 1085.28125 637.136719 1085.96875 636.8125 C 1085.28125 637.136719 1084.578125 637.464844 1083.878906 637.789062 Z M 1069.941406 612.699219 C 1070.980469 612.578125 1071.808594 612.023438 1071.949219 610.722656 C 1071.871094 610.476562 1071.769531 610.273438 1071.648438 610.109375 C 1071.769531 610.273438 1071.871094 610.480469 1071.949219 610.726562 C 1071.808594 612.023438 1070.980469 612.578125 1069.941406 612.699219 Z M 962.554688 691.589844 C 976.679688 690.390625 990.804688 689.1875 1004.929688 688.019531 C 990.804688 689.1875 976.679688 690.390625 962.554688 691.589844 Z M 960.367188 685.921875 C 960.78125 685.910156 961.128906 685.96875 961.421875 686.078125 C 961.128906 685.96875 960.78125 685.910156 960.367188 685.921875 Z M 958.230469 608.015625 C 959.269531 607.84375 960.085938 607.261719 960.296875 606.019531 C 960.296875 606.019531 960.296875 606.023438 960.296875 606.023438 C 960.089844 607.261719 959.273438 607.84375 958.230469 608.015625 Z M 953.773438 694.515625 C 955.878906 694.941406 957.617188 694.394531 958.6875 692.078125 L 958.691406 692.078125 C 957.617188 694.394531 955.882812 694.941406 953.773438 694.515625 Z M 1002.480469 399.746094 C 1000.46875 398.078125 999.53125 395.214844 998.875 390.203125 C 999.53125 395.214844 1000.46875 398.078125 1002.480469 399.746094 Z M 1040.179688 372.101562 C 1043.328125 367.136719 1047.628906 364.960938 1052.46875 364.066406 C 1047.628906 364.960938 1043.328125 367.136719 1040.191406 372.101562 C 1025.589844 373.914062 1011.449219 377.867188 997.136719 381.019531 C 1011.449219 377.867188 1025.589844 373.914062 1040.179688 372.101562 Z M 1038.820312 333.445312 C 1041.878906 332.632812 1044.878906 331.574219 1047.808594 330.175781 C 1044.878906 331.574219 1041.878906 332.632812 1038.820312 333.445312 C 1036.96875 333.9375 1035.089844 334.339844 1033.210938 334.671875 C 1035.089844 334.339844 1036.96875 333.9375 1038.820312 333.445312 Z M 1060.890625 363.503906 C 1059.039062 367.585938 1056.308594 369.53125 1053.179688 370.523438 C 1056.308594 369.53125 1059.039062 367.585938 1060.890625 363.503906 Z M 1054.679688 381.414062 C 1054.671875 381.410156 1054.671875 381.410156 1054.660156 381.40625 C 1055.839844 381.058594 1056.988281 380.542969 1058.171875 380.238281 C 1057 380.539062 1055.851562 381.054688 1054.679688 381.414062 Z M 942.5 609.378906 C 942.5 609.375 942.5 609.375 942.5 609.375 C 943.011719 609.105469 943.597656 608.90625 944.070312 608.605469 C 943.597656 608.90625 943.007812 609.105469 942.5 609.378906 Z M 940.804688 549.132812 C 941.167969 549.257812 941.375 549.472656 941.425781 549.769531 C 941.375 549.472656 941.167969 549.257812 940.804688 549.132812 Z M 933.796875 89.410156 C 934.03125 90.039062 934.246094 90.347656 934.414062 90.3125 C 934.246094 90.347656 934.027344 90.039062 933.796875 89.410156 Z M 923.765625 89.160156 C 927.078125 89.398438 930.386719 89.117188 933.640625 89.300781 C 930.386719 89.121094 927.078125 89.398438 923.765625 89.160156 Z M 902.0625 384.449219 C 891.9375 384.953125 882.265625 384.09375 872.902344 379.980469 C 882.265625 384.089844 891.9375 384.953125 902.066406 384.445312 C 910.9375 382.039062 919.839844 380.328125 929.023438 379.359375 C 919.839844 380.328125 910.9375 382.039062 902.0625 384.449219 Z M 899.75 396.996094 C 906.398438 395.929688 912.4375 392.460938 916.40625 387.082031 C 912.4375 392.460938 906.398438 395.929688 899.75 396.996094 Z M 898.847656 218.5 L 898.84375 218.5 C 895.816406 218.929688 893.054688 217.765625 890.207031 216.949219 C 893.054688 217.765625 895.816406 218.929688 898.847656 218.5 Z M 901.953125 216.398438 C 900.820312 216.707031 899.886719 217.421875 899.101562 218.386719 C 899.097656 218.386719 899.097656 218.386719 899.097656 218.386719 C 899.886719 217.421875 900.820312 216.707031 901.953125 216.398438 Z M 794.21875 170.574219 C 794.855469 170.320312 795.332031 169.734375 795.503906 168.832031 C 795.300781 166.835938 793.785156 166.695312 792.410156 166.5 C 793.785156 166.695312 795.300781 166.835938 795.511719 168.828125 C 795.335938 169.734375 794.855469 170.320312 794.21875 170.574219 Z M 759.097656 487.027344 C 758.878906 486.464844 758.78125 485.679688 758.445312 485.3125 C 758.78125 485.679688 758.878906 486.464844 759.097656 487.027344 Z M 751.933594 240.339844 C 752.945312 240.222656 753.628906 239.550781 753.820312 238.398438 C 753.820312 238.398438 753.824219 238.398438 753.824219 238.398438 C 753.628906 239.550781 752.945312 240.222656 751.933594 240.339844 Z M 742.875 83.753906 C 743.050781 83.664062 743.230469 83.550781 743.398438 83.480469 L 743.402344 83.480469 C 743.230469 83.550781 743.050781 83.664062 742.875 83.753906 Z M 715.457031 277.992188 C 715.453125 277.992188 715.453125 277.992188 715.453125 277.992188 C 722.84375 274.988281 729.894531 271.246094 737.910156 271.1875 C 729.894531 271.246094 722.847656 274.984375 715.457031 277.992188 Z M 715.128906 278.046875 C 713.175781 277.640625 711.078125 276.78125 709.132812 276.390625 C 711.078125 276.78125 713.175781 277.640625 715.128906 278.042969 Z M 638.382812 139.015625 C 645.035156 139.015625 651.605469 139.675781 658.136719 140.636719 C 651.605469 139.675781 645.035156 139.015625 638.382812 139.015625 Z M 638.117188 138.972656 C 632.398438 136.511719 626.59375 134.941406 620.675781 134.480469 C 626.59375 134.941406 632.398438 136.511719 638.117188 138.972656 Z M 606.929688 103.386719 C 605.957031 103.480469 605.085938 103.265625 604.675781 102.554688 C 605.085938 103.265625 605.957031 103.480469 606.929688 103.386719 Z M 606.90625 92.671875 C 606.847656 92.191406 606.714844 91.78125 606.523438 91.4375 C 606.714844 91.785156 606.847656 92.191406 606.910156 92.675781 C 606.441406 93.800781 605.535156 94.1875 604.515625 94.160156 C 605.535156 94.1875 606.441406 93.800781 606.90625 92.671875 Z M 603.5 568.503906 L 603.46875 568.46875 C 603.484375 568.484375 603.5 568.503906 603.5 568.503906 Z M 525.929688 297.898438 C 527.757812 297.101562 529.570312 296.226562 531.390625 295.394531 C 529.570312 296.226562 527.757812 297.101562 525.929688 297.898438 Z M 520.011719 524.296875 C 520.3125 523.636719 520.617188 522.980469 520.921875 522.324219 C 520.617188 522.980469 520.3125 523.640625 520.011719 524.296875 Z M 514.144531 377.394531 C 514.277344 377.746094 514.402344 377.988281 514.515625 378.121094 C 514.402344 377.988281 514.277344 377.746094 514.144531 377.394531 Z M 486.460938 379.277344 C 495.628906 378.441406 504.746094 377.058594 513.96875 377.273438 C 504.746094 377.058594 495.628906 378.441406 486.460938 379.277344 Z M 448.261719 291.734375 C 448.089844 291.824219 447.914062 291.914062 447.742188 292.003906 C 447.914062 291.914062 448.089844 291.824219 448.261719 291.734375 Z M 358.453125 629.398438 C 358.453125 629.242188 358.441406 629.0625 358.457031 628.921875 C 358.292969 628.859375 358.121094 628.757812 357.953125 628.679688 C 358.121094 628.757812 358.292969 628.859375 358.457031 628.917969 C 358.441406 629.0625 358.453125 629.242188 358.453125 629.398438 Z M 346.359375 22.152344 C 346.355469 22.152344 346.355469 22.152344 346.355469 22.148438 C 347.023438 21.816406 347.6875 21.480469 348.351562 21.144531 C 347.6875 21.480469 347.023438 21.816406 346.359375 22.152344 Z M 344.527344 21.019531 C 344.511719 21.011719 344.492188 21.003906 344.480469 20.992188 C 344.644531 20.90625 344.8125 20.804688 344.976562 20.699219 C 344.8125 20.804688 344.644531 20.90625 344.480469 20.992188 C 344.496094 21.003906 344.511719 21.011719 344.527344 21.019531 Z M 299.640625 737.855469 C 299.414062 737.292969 299.308594 736.507812 298.972656 736.144531 C 299.3125 736.511719 299.414062 737.292969 299.640625 737.855469 Z M 265.261719 446.511719 C 266.261719 446.304688 267.027344 445.679688 267.261719 444.515625 C 267.261719 444.519531 267.261719 444.519531 267.261719 444.523438 C 267.027344 445.679688 266.261719 446.304688 265.261719 446.511719 Z M 261.441406 574.8125 C 260.988281 574.546875 260.539062 574.136719 260.085938 573.9375 C 260.542969 574.136719 260.988281 574.546875 261.445312 574.808594 C 261.441406 574.8125 261.441406 574.8125 261.441406 574.8125 Z M 258.9375 140.203125 C 258.460938 139.945312 257.980469 139.542969 257.503906 139.359375 C 257.984375 139.542969 258.460938 139.945312 258.9375 140.199219 C 258.9375 140.199219 258.9375 140.199219 258.9375 140.203125 Z M 255.597656 140.492188 C 255.4375 140.386719 255.277344 140.285156 255.121094 140.199219 C 255.277344 140.117188 255.4375 140.015625 255.597656 139.910156 C 255.4375 140.015625 255.277344 140.117188 255.121094 140.199219 C 255.277344 140.285156 255.4375 140.386719 255.597656 140.492188 Z M 242.644531 143.546875 C 243.035156 143.28125 243.421875 142.859375 243.808594 142.585938 C 243.421875 142.859375 243.035156 143.28125 242.644531 143.546875 Z M 241.644531 515.171875 C 241.316406 514.488281 240.832031 514.132812 240.296875 513.996094 C 240.832031 514.132812 241.316406 514.488281 241.644531 515.171875 Z M 236.304688 516.730469 L 235.703125 516.011719 C 235.886719 515.890625 236.0625 515.761719 236.238281 515.628906 C 236.0625 515.761719 235.886719 515.890625 235.703125 516.011719 C 235.703125 516.011719 236.28125 516.703125 236.304688 516.730469 Z M 234.789062 137.484375 C 235.003906 137.34375 235.1875 137.09375 235.335938 136.75 C 235.070312 136.203125 234.914062 135.433594 234.550781 135.082031 C 234.914062 135.433594 235.070312 136.203125 235.335938 136.75 C 235.191406 137.09375 235.003906 137.34375 234.789062 137.484375 Z M 232.308594 23.101562 C 232.308594 23.101562 232.308594 23.101562 232.308594 23.097656 C 232.785156 22.847656 233.382812 22.683594 233.800781 22.394531 C 233.378906 22.683594 232.78125 22.851562 232.308594 23.101562 Z M 232.472656 135.421875 C 232.796875 135.328125 233.160156 135.15625 233.503906 135.035156 C 233.160156 135.15625 232.796875 135.328125 232.472656 135.421875 Z M 218.378906 523.546875 C 212.199219 522.984375 207.003906 527.335938 200.863281 528.097656 C 207.003906 527.335938 212.199219 522.984375 218.371094 523.539062 C 221.808594 518.605469 226.851562 517.367188 232.074219 516.550781 C 226.851562 517.367188 221.808594 518.605469 218.378906 523.546875 Z M 212.402344 576.421875 C 212.742188 576.945312 213.148438 577.367188 213.613281 577.671875 C 213.148438 577.367188 212.742188 576.945312 212.402344 576.421875 Z M 203.863281 504.167969 C 203.863281 504.167969 203.832031 504.128906 203.785156 504.074219 Z M 218.945312 449.902344 C 218.621094 450.078125 218.296875 450.292969 217.972656 450.441406 C 217.996094 450.457031 218.019531 450.46875 218.039062 450.480469 C 218.019531 450.46875 217.996094 450.457031 217.972656 450.441406 C 218.296875 450.292969 218.621094 450.078125 218.945312 449.902344 Z M 221.65625 450.632812 C 221.035156 450.921875 220.414062 451.207031 219.792969 451.492188 C 220.414062 451.207031 221.035156 450.917969 221.65625 450.632812 Z M 228.695312 504.390625 C 228.203125 503.875 227.359375 503.332031 226.84375 502.746094 C 227.363281 503.332031 228.203125 503.875 228.695312 504.390625 Z M 198.527344 287.742188 L 198.917969 288.152344 C 198.917969 288.152344 198.53125 287.75 198.527344 287.742188 Z M 183.289062 197.15625 C 183.472656 197.097656 183.65625 197.023438 183.84375 196.945312 C 183.65625 197.023438 183.472656 197.097656 183.289062 197.15625 C 183.738281 197.507812 184.179688 197.867188 184.625 198.222656 C 184.179688 197.867188 183.738281 197.507812 183.289062 197.15625 Z M 175.679688 514.652344 C 175.851562 514.550781 176.046875 514.460938 176.207031 514.355469 C 176.046875 514.460938 175.851562 514.550781 175.679688 514.652344 Z M 165.78125 525.226562 C 166.15625 524.347656 166.796875 523.980469 167.484375 523.925781 C 166.796875 523.980469 166.15625 524.347656 165.78125 525.226562 Z M 137.214844 679.574219 C 137.621094 679.960938 138.242188 680.230469 139.171875 680.367188 C 138.242188 680.230469 137.621094 679.960938 137.214844 679.574219 Z M 137.011719 673.125 L 136.472656 672.625 C 136.710938 672.84375 137.011719 673.125 137.011719 673.125 Z M 136.605469 670.273438 C 136.605469 670.996094 136.472656 671.695312 136.195312 672.367188 C 136.472656 671.695312 136.605469 671 136.605469 670.273438 Z M 146.125 522.9375 C 145.957031 522.835938 145.785156 522.734375 145.617188 522.644531 C 146.175781 522.222656 146.734375 521.796875 147.292969 521.367188 C 146.734375 521.796875 146.175781 522.222656 145.617188 522.644531 C 145.785156 522.734375 145.957031 522.835938 146.125 522.9375 Z M 141.621094 369.847656 C 143.132812 367.851562 144.859375 366.238281 146.730469 364.894531 C 144.859375 366.238281 143.132812 367.851562 141.621094 369.847656 Z M 101.386719 289.664062 C 100.511719 289.25 100.054688 288.597656 100.171875 287.847656 C 100.054688 288.597656 100.511719 289.25 101.390625 289.660156 C 101.949219 289.441406 102.738281 289.351562 103.121094 289.019531 C 102.738281 289.351562 101.949219 289.441406 101.386719 289.664062 Z M 73.753906 382.652344 C 74.902344 381.273438 76.125 379.96875 77.410156 378.738281 C 76.125 379.96875 74.902344 381.273438 73.753906 382.652344 Z M 72.09375 384.761719 C 73.09375 385.308594 74.085938 385.78125 75.074219 386.171875 C 74.085938 385.78125 73.09375 385.308594 72.09375 384.761719 Z M 59.8125 506.714844 C 59.359375 507.660156 58.683594 508.261719 57.785156 508.519531 C 58.683594 508.261719 59.359375 507.660156 59.808594 506.710938 C 60.90625 506.515625 62 506.320312 64.085938 505.945312 C 62 506.320312 60.90625 506.515625 59.8125 506.714844 Z M 35.839844 355.550781 C 35.84375 355.550781 35.84375 355.550781 35.84375 355.550781 C 36.40625 355.796875 37.066406 356.308594 37.539062 356.316406 C 37.066406 356.308594 36.402344 355.796875 35.839844 355.550781 Z M 1070.210938 188.671875 C 1068.648438 190.3125 1066.96875 190.945312 1065.210938 190.953125 C 1066.96875 190.945312 1068.648438 190.3125 1070.210938 188.671875 Z M 1070.378906 188.578125 C 1070.429688 188.46875 1070.488281 188.339844 1070.550781 188.214844 C 1070.488281 188.339844 1070.429688 188.46875 1070.378906 188.578125 C 1070.789062 188.449219 1071.089844 188.320312 1071.25 188.199219 C 1071.089844 188.320312 1070.789062 188.449219 1070.378906 188.578125 Z M 1114.640625 350.820312 C 1099.761719 358.039062 1083.578125 360.347656 1067.148438 361.757812 C 1067.148438 361.753906 1067.148438 361.753906 1067.148438 361.75 C 1083.578125 360.34375 1099.761719 358.035156 1114.640625 350.820312 Z M 1102.828125 214.902344 C 1102.488281 214.101562 1101.898438 213.828125 1101.238281 213.746094 C 1101.898438 213.828125 1102.488281 214.101562 1102.828125 214.902344 Z M 1226.839844 143.835938 C 1226.980469 144.628906 1227.03125 145.425781 1226.988281 146.226562 C 1227.03125 145.425781 1226.980469 144.628906 1226.839844 143.835938 Z M 1234.378906 370.964844 C 1232.488281 371.757812 1230.789062 373.003906 1229.308594 374.804688 C 1230.789062 373.003906 1232.488281 371.757812 1234.378906 370.964844 Z M 1249.21875 144.871094 C 1252.5 147.449219 1255.371094 146.90625 1258.871094 144.847656 C 1255.371094 146.90625 1252.5 147.453125 1249.21875 144.878906 C 1244.128906 143.957031 1238.988281 143.769531 1233.851562 143.773438 C 1238.988281 143.769531 1244.128906 143.953125 1249.21875 144.871094 Z M 1263.191406 157.011719 C 1261.769531 156.5 1260.28125 156.390625 1258.730469 156.59375 C 1258.738281 156.589844 1258.738281 156.589844 1258.738281 156.589844 C 1260.28125 156.390625 1261.769531 156.496094 1263.191406 157.011719 Z M 1258.210938 208.644531 C 1259.238281 209.488281 1260.308594 210.273438 1261.449219 210.921875 C 1260.308594 210.273438 1259.238281 209.488281 1258.210938 208.644531 Z M 1254.398438 158.65625 C 1255.539062 158.59375 1256.660156 158.449219 1257.609375 157.78125 C 1256.660156 158.449219 1255.539062 158.59375 1254.398438 158.65625 Z M 1251.429688 158.925781 C 1249.960938 158.464844 1248.480469 158.007812 1247.019531 157.542969 C 1246.878906 157.804688 1246.769531 158.054688 1246.699219 158.296875 C 1246.769531 158.054688 1246.878906 157.804688 1247.019531 157.542969 C 1248.480469 158.007812 1249.960938 158.464844 1251.429688 158.925781 C 1252.390625 161.074219 1253.878906 162.429688 1255.871094 163.226562 C 1253.878906 162.429688 1252.390625 161.074219 1251.429688 158.925781 Z M 1249.089844 255.679688 C 1248.371094 255.710938 1247.648438 255.722656 1246.929688 255.722656 C 1247.648438 255.722656 1248.371094 255.710938 1249.089844 255.679688 L 1249.109375 255.65625 Z M 1241.699219 369.847656 C 1242.5 368.53125 1243.628906 367.691406 1244.859375 367.011719 C 1243.628906 367.691406 1242.5 368.53125 1241.699219 369.847656 Z M 1284.28125 206.53125 C 1284.03125 206.207031 1283.769531 205.882812 1283.5 205.558594 C 1283.769531 205.886719 1284.03125 206.210938 1284.28125 206.53125 Z M 1292.199219 212.449219 C 1289.589844 211.957031 1286.738281 211.609375 1285.238281 209.265625 C 1286.738281 211.609375 1289.589844 211.957031 1292.199219 212.449219 Z M 1299.191406 195.59375 C 1299.191406 195.59375 1299.148438 195.640625 1299.101562 195.710938 Z M 1308.679688 218.445312 L 1308.699219 218.425781 C 1308.691406 218.433594 1308.679688 218.445312 1308.679688 218.445312 C 1307.960938 218.457031 1307.25 218.460938 1306.53125 218.453125 C 1307.25 218.460938 1307.960938 218.457031 1308.679688 218.445312 Z M 1291.710938 479.269531 C 1279.570312 475.542969 1267.5 471.199219 1254.5 472.066406 C 1246.671875 472.585938 1238.828125 470.03125 1233.710938 465.691406 C 1223.320312 456.894531 1210.800781 458.460938 1199.28125 455.433594 C 1197.621094 455 1197.421875 457.738281 1196.921875 459.234375 C 1189.640625 456.777344 1182.96875 453.4375 1177.378906 447.863281 C 1175.199219 445.691406 1172.96875 443.410156 1168.050781 445.992188 C 1162.160156 449.085938 1155.070312 448.683594 1148.390625 444.003906 C 1144.289062 441.128906 1145.53125 443.496094 1128.898438 438.972656 C 1115.960938 435.445312 1101.589844 431.535156 1101.921875 429 C 1102.019531 428.195312 1103.808594 427.773438 1107.371094 426.964844 C 1114.25 425.402344 1118.660156 426.949219 1122.679688 425.105469 C 1126.441406 423.371094 1130.261719 421.816406 1135.289062 420.886719 C 1130.878906 418.867188 1125.148438 421.226562 1125.050781 414.671875 C 1129.558594 415.128906 1134.070312 415.691406 1138.601562 416.003906 C 1141.871094 416.230469 1145.53125 416.808594 1147.851562 413.796875 C 1156.121094 403.074219 1167.449219 399.53125 1180.359375 399.253906 C 1181.898438 399.222656 1183.398438 398.15625 1184.941406 397.648438 C 1194.480469 394.507812 1203.96875 391.226562 1213.578125 388.3125 C 1220.980469 386.070312 1229.410156 388.089844 1235.410156 380.136719 C 1238.171875 376.488281 1244.96875 375.835938 1249.230469 372.460938 C 1259.371094 367.417969 1262.160156 356.046875 1269.660156 348.714844 C 1271.070312 347.328125 1270.140625 345.722656 1269.238281 344.257812 C 1266.449219 339.675781 1262.488281 334.21875 1264.539062 329.558594 C 1266.769531 324.496094 1266.148438 319.8125 1266.890625 314.949219 C 1268.46875 304.5 1276.96875 296.96875 1287.738281 295.441406 C 1296.878906 294.144531 1296.878906 294.144531 1300.730469 285.640625 C 1295.828125 285.375 1291.011719 285.117188 1286.191406 284.855469 C 1289.339844 283.003906 1292.429688 283.023438 1295.53125 282.996094 C 1299.25 282.964844 1302.988281 282.621094 1306.691406 282.894531 C 1314.5 283.476562 1314.140625 276.125 1316.78125 272.164062 C 1319.320312 268.347656 1315.691406 266.472656 1312.078125 265.664062 C 1311.421875 265.519531 1310.320312 264.550781 1310.390625 264.394531 C 1312.808594 259.003906 1307.339844 253.726562 1309.71875 248.824219 C 1311.589844 244.996094 1314.570312 241.914062 1319.089844 239.640625 C 1325.46875 236.4375 1332.738281 233.726562 1337.171875 227.46875 C 1334.25 223.847656 1327.671875 224.191406 1327.210938 220.195312 C 1326.238281 211.621094 1319.960938 208.238281 1313.820312 204.277344 C 1322.71875 197.601562 1322.46875 197.789062 1315.558594 189.683594 C 1313.109375 186.804688 1309.808594 186.714844 1307.148438 184.960938 C 1304.578125 183.269531 1302.898438 181.921875 1306.109375 178.363281 C 1312.101562 171.714844 1311.691406 171.355469 1303.378906 167.050781 C 1300.78125 164.285156 1297.28125 162.382812 1295.5 158.832031 C 1298.339844 158.453125 1301.621094 159.773438 1303.71875 156.628906 C 1305.480469 156.074219 1308.171875 156.4375 1307.261719 153.171875 C 1305.96875 148.515625 1302.070312 147.355469 1298.070312 146.035156 C 1284.941406 141.703125 1271.589844 138.144531 1258.578125 133.292969 C 1242.140625 127.160156 1225.210938 121.914062 1207.25 122.210938 C 1191.421875 119.546875 1175.550781 117.066406 1159.769531 114.136719 C 1150.488281 112.417969 1140.550781 111.574219 1132.339844 107.46875 C 1122.460938 102.523438 1112.089844 102.757812 1102.449219 103.085938 C 1089.839844 103.515625 1078.289062 98.300781 1065.941406 99.089844 C 1065.238281 99.136719 1064.128906 98.617188 1063.800781 98.03125 C 1058 87.433594 1050.128906 92.449219 1042.558594 95.144531 C 1034.75 94.546875 1028.289062 88.664062 1019.941406 89.777344 C 992.09375 93.496094 966.09375 79.714844 938.476562 80.953125 C 938.113281 80.972656 937.730469 80.492188 937.355469 80.484375 C 928.300781 80.300781 919.964844 76.488281 911.136719 75.265625 C 898.882812 73.570312 886.734375 74.835938 874.828125 67.402344 C 865.226562 61.40625 852.394531 60.238281 840.476562 58.570312 C 824.355469 56.320312 807.621094 54.707031 792.679688 48.894531 C 778.382812 43.335938 763.757812 43.328125 749.386719 40.863281 C 734.996094 38.398438 720.046875 39.488281 706.359375 32.761719 C 704.015625 31.609375 700.683594 32.460938 697.808594 32.382812 C 692.191406 27.808594 685.992188 30.796875 680.011719 31 C 677.535156 31.085938 675.0625 31.167969 672.589844 31.25 C 672.125 28.121094 670.039062 27.925781 667.550781 28.457031 C 663.652344 28.292969 660.238281 25.3125 656.109375 26.496094 C 652.507812 24.777344 648.949219 23.953125 645.589844 27.03125 C 644.78125 26.875 643.984375 26.917969 643.199219 27.160156 C 642.839844 28.246094 642.476562 29.335938 642.117188 30.421875 C 642.476562 29.335938 642.839844 28.246094 643.199219 27.160156 C 642.308594 27.273438 641.421875 27.386719 640.53125 27.496094 C 638.964844 27.476562 637.398438 27.453125 635.832031 27.429688 C 632.488281 25.644531 628.847656 25.363281 625.152344 24.777344 C 602.296875 21.148438 578.980469 24.511719 556.21875 20.160156 C 538.761719 16.820312 520.953125 18.035156 503.394531 15.5625 C 493.726562 14.199219 484.019531 10.949219 473.992188 13.160156 C 470.84375 13.019531 467.695312 12.882812 464.550781 12.742188 C 463.660156 12.632812 462.773438 12.523438 461.882812 12.414062 C 458.964844 10.394531 455.539062 10.949219 452.304688 10.523438 C 429.117188 7.480469 405.695312 7.183594 382.476562 4.804688 C 351.699219 1.65625 320.945312 -0.675781 290 0.179688 C 273.480469 0.632812 257.230469 2.785156 241.488281 8.046875 C 230.085938 9.890625 218.660156 11.609375 207.300781 13.675781 C 205.09375 14.078125 202.558594 14.910156 201.242188 17.28125 C 197.972656 19.035156 194.699219 20.792969 191.429688 22.546875 C 189.839844 22.796875 187.765625 22.480469 186.734375 23.375 C 176.238281 32.460938 163.746094 35.464844 150.316406 35.941406 C 149.753906 35.960938 149.226562 37.058594 148.539062 37.808594 C 149.898438 40.289062 155.871094 40.644531 152.648438 45.769531 C 151.496094 47.597656 152.007812 49.671875 152.804688 51.691406 C 155.238281 57.859375 152.617188 60.878906 146.890625 63.75 C 144.140625 65.125 133.253906 64.632812 140.886719 73.59375 C 141.761719 74.625 140.542969 75.316406 139.261719 76.011719 C 132.960938 79.433594 128.027344 84.757812 119.875 85.488281 C 114.253906 85.988281 107.929688 88.386719 104.488281 94.242188 C 110.699219 94.835938 116.894531 90.902344 122.492188 92.316406 C 131.097656 94.488281 138.519531 91.371094 146.414062 90.148438 C 148.980469 89.75 151.425781 86.171875 154.117188 89.507812 C 156.476562 92.4375 155.863281 94.816406 153.453125 98.121094 C 147.621094 106.113281 150.355469 116.179688 148.320312 125.171875 C 155.34375 132.457031 149.566406 132.914062 143.800781 134.980469 C 134.242188 138.402344 125.320312 143.496094 114.304688 146.3125 C 116.511719 147.601562 117.171875 148.269531 117.902344 148.363281 C 123.746094 149.125 126.390625 149.867188 122.449219 157.179688 C 118.59375 164.339844 123.933594 172.480469 132.382812 176.25 C 136.972656 178.292969 140.308594 180.613281 137.503906 186.46875 C 136.664062 188.21875 136.832031 190.523438 136.796875 192.578125 C 136.703125 197.9375 134.445312 201.078125 128.753906 201.4375 C 123.863281 201.742188 121.472656 204.71875 121.074219 209.5625 C 124.449219 211.90625 128.113281 211.011719 131.714844 210.644531 C 132.574219 210.753906 133.433594 210.863281 134.296875 210.972656 C 134.148438 212.558594 134.003906 214.140625 133.859375 215.722656 C 128.300781 215.617188 122.742188 215.511719 117.1875 215.40625 C 115.925781 214.074219 114.949219 214.183594 114.304688 215.972656 L 114.3125 215.972656 C 111.769531 216.71875 111.941406 218.90625 111.703125 220.875 C 108.46875 221.890625 103.714844 219.597656 102.398438 224.773438 C 101.28125 229.171875 106.097656 229.289062 107.542969 231.421875 C 112.703125 239.027344 121.621094 241.898438 127.277344 248.945312 C 132.519531 255.480469 133.347656 255.738281 125.742188 259.386719 C 107.5625 268.109375 88.960938 275.867188 70.140625 283.101562 C 47.5 291.796875 25.324219 301.421875 5.292969 315.367188 C 13.699219 318.050781 21.855469 319.117188 29.96875 317.980469 C 21.855469 319.117188 13.699219 318.050781 5.292969 315.367188 C -0.0351562 315.714844 -0.359375 319.4375 0.195312 323.359375 C 0.886719 328.238281 4.304688 325.363281 6.820312 325.625 C 10.867188 326.046875 15.011719 326.792969 18.78125 328.253906 C 23.9375 330.25 26.058594 335.613281 22.507812 338.808594 C 15.257812 345.339844 16.800781 353.886719 18.582031 360.617188 C 20.421875 367.582031 19.207031 371.839844 13.777344 376.113281 C 19.523438 377.859375 25.636719 377.9375 28.527344 381.03125 C 32.402344 385.167969 37.753906 383.480469 41.933594 386.375 C 40.125 390.878906 36.316406 392.886719 33.894531 395.996094 C 29.621094 401.492188 37.320312 402.789062 38.238281 406.433594 C 37.289062 407.132812 36.542969 407.53125 35.992188 408.117188 C 32.933594 411.382812 24.003906 410.277344 26.539062 416.871094 C 28.378906 421.648438 35.347656 418.558594 40.0625 418.574219 C 40.851562 418.574219 41.65625 417.863281 42.421875 417.910156 C 45.714844 418.128906 49.828125 412.792969 51.953125 417.710938 C 53.914062 422.253906 48.933594 424.632812 45.578125 426.929688 C 44.707031 427.523438 42.925781 426.957031 43.257812 429.972656 C 51.941406 429.972656 60.738281 429.972656 69.535156 429.972656 C 62.058594 432.308594 54.691406 432.261719 47.320312 432.335938 C 44.511719 432.359375 40.699219 431.851562 40.390625 435.691406 C 39.90625 441.652344 33.742188 445.019531 33.839844 450.480469 C 38.363281 456.632812 45.070312 452.4375 50.246094 454.808594 C 49.15625 458.539062 42.324219 456.949219 43.765625 462.777344 C 47.035156 465.023438 51.589844 462.671875 55.726562 465.699219 C 48.738281 468.425781 41.414062 469.710938 36.875 475.761719 C 38.425781 477.796875 41.886719 477.972656 42.425781 481.1875 C 33.464844 482.667969 33.464844 482.667969 34.464844 491.121094 C 30.363281 490.878906 26.265625 490.675781 22.167969 490.390625 C 19.5 490.203125 16.496094 490.761719 16.40625 493.523438 C 16.3125 496.324219 16.617188 501.128906 20.320312 501.023438 C 26.6875 500.835938 28.890625 505.84375 29.46875 509.308594 C 30.855469 517.605469 36.109375 520.734375 43.910156 522.179688 C 40.410156 525.058594 37.109375 526.65625 35.613281 529.28125 C 33.578125 532.847656 29.03125 530.636719 26.109375 533.699219 C 34.050781 536.695312 41.027344 535.992188 47.9375 535.421875 C 56.578125 534.710938 65.25 534.621094 73.730469 536.160156 C 79.515625 537.207031 86.230469 537.1875 89.742188 543.550781 C 97.183594 545.269531 104.632812 545.972656 112.148438 546.070312 C 104.632812 545.972656 97.183594 545.269531 89.738281 543.550781 C 84.863281 547.945312 79.96875 545.894531 74.828125 543.917969 C 69.679688 541.933594 64.929688 544.070312 63.367188 549.117188 C 61.90625 553.832031 63.453125 557.863281 68.152344 560.082031 C 69.988281 560.953125 72.285156 560.972656 73.96875 562.027344 C 76.3125 563.496094 79.21875 565.144531 78.195312 568.71875 C 77.335938 571.71875 75.375 573.625 71.878906 573.480469 C 68.621094 573.347656 65.351562 573.453125 61.652344 573.453125 C 64.035156 578.390625 68.128906 577.453125 71.480469 578.582031 C 74.953125 579.75 81.0625 578.679688 81.066406 584.003906 C 81.070312 588.6875 74.609375 586.074219 72.195312 588.902344 C 71.679688 589.507812 71.203125 590.144531 70.347656 591.21875 C 77.945312 606.398438 92.328125 604.339844 105.699219 604.882812 C 106.847656 608.441406 99.714844 608.800781 102.703125 613.1875 C 104.980469 613.929688 105.808594 611.40625 107.332031 610.554688 C 117.367188 604.925781 122.429688 605.058594 131.140625 611.457031 C 134.054688 613.59375 135.230469 617.296875 139.179688 618.808594 C 140.980469 619.496094 136.675781 620.960938 136.46875 622.925781 C 136.789062 622.984375 137.109375 623.03125 137.429688 623.066406 C 137.109375 623.03125 136.789062 622.984375 136.46875 622.925781 C 134.910156 623.867188 133.351562 624.816406 131.796875 625.761719 C 123.46875 625.65625 115.015625 625.105469 108.03125 631.585938 C 113.835938 635.859375 120.796875 629.773438 126.324219 636.660156 C 130.902344 642.367188 139.078125 634.546875 147.300781 637.339844 C 137.460938 645.101562 126.242188 644.507812 116.566406 648.125 C 117.96875 651.292969 123.433594 650.132812 122.492188 655.511719 C 115.308594 658.558594 108.070312 662.28125 99.523438 662.765625 C 88.921875 663.367188 81.875 670.882812 73.601562 677.035156 C 81.03125 673.105469 87.671875 677.054688 94.445312 677.660156 L 94.332031 677.738281 C 94.351562 677.738281 94.371094 677.738281 94.394531 677.738281 C 92.445312 680.984375 87.640625 680.734375 85.886719 684.910156 C 93.082031 692.765625 101.582031 694.148438 111.40625 690.191406 C 116.980469 687.945312 122.925781 683.96875 126.515625 693.207031 C 127.605469 696.003906 130.890625 694.394531 133.171875 694.644531 C 139.273438 695.316406 146.042969 693.050781 151.398438 696.542969 C 159.519531 701.839844 167.652344 701.921875 176.300781 699.113281 C 179.777344 697.988281 183.554688 693.820312 186.222656 699.816406 C 188.214844 704.289062 183.878906 706.902344 182.136719 710.179688 C 180.921875 712.464844 178 712.605469 175.65625 713.40625 C 169.65625 715.457031 163.449219 715.425781 157.257812 715.351562 C 147.015625 715.226562 136.871094 716.367188 126.800781 717.925781 C 119.074219 719.121094 111.207031 724.609375 104.425781 723.730469 C 94.53125 722.453125 86.808594 726.3125 78.25 728.480469 C 76.285156 728.980469 74.289062 729.824219 72.640625 730.980469 C 70.601562 732.410156 68.773438 734.453125 69.917969 737.230469 C 71.113281 740.128906 73.695312 740.042969 76.15625 739.113281 C 79.601562 737.808594 82.960938 736.265625 86.371094 734.863281 C 97.113281 730.453125 108.363281 732.300781 119.359375 732.765625 C 127.722656 733.117188 127.21875 742.960938 133.449219 746.710938 C 122.605469 750.949219 122.613281 750.941406 115.3125 743.867188 C 114.761719 743.335938 114.0625 742.742188 113.355469 742.613281 C 95.746094 739.464844 79.414062 742.671875 64.402344 752.480469 C 62.789062 753.535156 62.234375 754.960938 62.71875 756.632812 C 63.222656 758.386719 64.9375 758.707031 66.476562 759.371094 C 74.898438 763.019531 85.390625 753.359375 92.828125 763.453125 C 92.960938 763.632812 94.296875 762.933594 95.070312 762.640625 C 98.113281 761.503906 101.292969 761.449219 104.449219 761.046875 C 113.894531 759.84375 123.339844 759.523438 132.800781 759.28125 C 137.472656 759.160156 140.816406 757.046875 143.0625 753.433594 C 146.085938 748.566406 138.824219 748.570312 138.503906 744.863281 C 145.910156 744.28125 153.207031 743.707031 160.480469 743.136719 C 160.722656 744.164062 161.238281 745.039062 161.027344 745.675781 C 158.472656 753.472656 158.441406 753.519531 165.902344 754.019531 C 173.675781 754.539062 181.464844 754.882812 189.234375 755.414062 C 192.992188 755.671875 198.285156 761.351562 198.539062 765.164062 C 198.777344 768.78125 196.300781 770.8125 193.472656 771.230469 C 184.976562 772.484375 176.210938 774.648438 167.898438 773.632812 C 160.058594 772.671875 152.308594 772.867188 144.554688 772.222656 C 140.277344 771.867188 136.707031 774.480469 132.511719 773.835938 C 124.386719 772.585938 112.699219 773.144531 106.011719 775.394531 C 103.238281 776.324219 100.535156 777.039062 97.625 777.292969 C 86.230469 778.289062 78.804688 786.933594 69.554688 792.066406 C 69.351562 792.179688 69.453125 792.835938 69.355469 793.832031 C 76.726562 793.507812 83.726562 790.429688 91.199219 791.382812 C 93.183594 791.636719 95.863281 789.6875 97.597656 788.078125 C 103.855469 782.246094 110.101562 783.359375 116.632812 787.386719 C 121.5625 790.429688 126.585938 793.539062 132.5625 793.75 C 145.164062 794.195312 157.808594 794.1875 170.285156 792.285156 C 186.273438 789.847656 197.789062 794.867188 206.277344 808.839844 C 210.667969 816.066406 213.101562 817.332031 221.5625 815.808594 C 227.886719 814.667969 234.054688 812.449219 240.410156 811.734375 C 272.039062 808.179688 304.144531 807.851562 334.824219 797.953125 C 340.730469 796.046875 347.355469 798.457031 352.792969 794.519531 C 358.539062 795.066406 364.808594 792.289062 369.785156 797.847656 C 371.390625 799.640625 374.402344 798.617188 376.773438 798.367188 C 381.976562 797.816406 387.164062 797.148438 392.359375 796.53125 C 394.257812 799.152344 395.886719 798.921875 397.261719 796.066406 C 396.398438 795.109375 395.582031 794.660156 394.8125 794.683594 C 395.582031 794.660156 396.398438 795.109375 397.261719 796.0625 C 398.984375 796.125 400.703125 796.1875 402.425781 796.253906 C 403.261719 794.578125 404.355469 793.523438 405.617188 792.859375 C 404.355469 793.523438 403.261719 794.578125 402.425781 796.253906 C 410.910156 799.210938 417.757812 794.628906 424.738281 791.179688 C 428.820312 789.160156 432.832031 787.226562 437.449219 787.144531 C 439.046875 787.117188 441.808594 787.691406 441.230469 789.214844 C 438.035156 797.648438 444.890625 793.480469 447.164062 793.742188 C 450.679688 794.144531 454.964844 793.488281 457.773438 792.550781 C 467.035156 789.460938 477.515625 791.082031 486.921875 785.351562 C 481.367188 783.761719 475.988281 785.394531 472.210938 780.820312 C 471.253906 779.660156 468.257812 779.507812 466.394531 779.875 C 451.53125 782.832031 435.984375 781.066406 421.476562 786.394531 C 417.007812 785.082031 412.625 786.902344 408.171875 786.773438 C 404.140625 786.664062 399.785156 787.964844 396.320312 785.296875 C 391.890625 781.878906 388.34375 783.359375 384.101562 785.714844 C 380.625 787.644531 376.464844 788.34375 372.609375 789.589844 C 370.117188 788.667969 366.324219 790.390625 365.339844 786.453125 C 364.300781 782.28125 367.734375 781.921875 370.46875 781.097656 C 375.609375 779.542969 380.84375 778.507812 380.125 770.882812 C 379.804688 767.488281 383.636719 765.078125 385.972656 767.863281 C 390.449219 773.207031 392.761719 769.144531 396.074219 767.007812 C 402.523438 762.847656 407.117188 764.25 408.261719 771.914062 C 408.902344 776.207031 409.984375 777.179688 413.25 775.976562 C 415.839844 775.019531 419.132812 775.472656 421.484375 772.027344 C 418.355469 767.96875 416.0625 763.378906 421.933594 759.054688 C 425.746094 756.242188 422.609375 751.300781 424.648438 747.261719 C 429.257812 747.261719 433.78125 747.21875 438.304688 747.28125 C 440.136719 747.304688 441.867188 748.300781 441.132812 750.171875 C 440.550781 751.660156 438.660156 752.640625 436.273438 754.835938 C 443.214844 753.136719 450.117188 757.058594 454.324219 749.828125 C 455.019531 748.636719 456.476562 748.253906 457.46875 749.023438 C 464.839844 754.761719 468.375 749.601562 472.398438 744.332031 C 473.699219 742.628906 476.59375 741.625 478.902344 741.292969 C 489.464844 739.78125 500.109375 737.460938 510.667969 737.722656 C 518.582031 737.917969 526.78125 746.402344 533.707031 735.507812 C 533.964844 735.105469 536.046875 735.707031 537.203125 736.066406 C 540.074219 736.957031 542.835938 736.5625 545.742188 736.046875 C 558.324219 733.820312 570.957031 731.613281 583.785156 732.050781 C 593.378906 732.378906 602.664062 730.132812 612.046875 729.03125 C 616.125 728.554688 621.746094 728.980469 626.214844 723.4375 C 617.785156 722.492188 611.863281 720.945312 608.015625 713.234375 C 603.90625 704.984375 602.503906 705.480469 611.246094 701.84375 C 615.808594 699.945312 619.550781 698.527344 616.699219 692.230469 C 615.128906 688.757812 616.867188 686.105469 621.207031 685.277344 C 626.871094 684.203125 632.367188 682.816406 638.28125 682.902344 C 660.195312 683.21875 682.300781 684.730469 703.96875 681.714844 C 726.535156 678.574219 749.003906 677.65625 771.6875 677.582031 C 802.164062 677.484375 832.714844 678.429688 862.972656 673.007812 C 867.550781 672.1875 873.703125 670.289062 877.015625 674.84375 C 881.300781 680.738281 886.871094 680.140625 892.535156 680.074219 C 902.402344 679.964844 912.285156 680.894531 922.121094 678.40625 C 926.378906 677.328125 931.152344 678.148438 935.675781 678.414062 C 936.511719 678.464844 937.667969 679.886719 937.957031 680.882812 C 938.5 682.769531 937.171875 684.039062 935.464844 684.359375 C 933.449219 684.734375 931.324219 684.90625 929.289062 684.722656 C 915.597656 683.464844 902.292969 687.800781 888.65625 687.457031 C 886.441406 687.402344 883.484375 687.46875 882.816406 692.371094 C 894.019531 693.664062 905.503906 692.3125 916.472656 695.214844 C 918.074219 695.636719 920.453125 694.285156 922.097656 693.1875 C 929.433594 688.28125 938.164062 690.898438 946.046875 688.695312 C 948.554688 687.996094 952.648438 689.863281 952.851562 694.273438 C 951.421875 694.433594 949.988281 694.589844 948.558594 694.75 C 947.453125 695.242188 946.347656 695.734375 945.246094 696.234375 C 940.457031 696.511719 935.675781 696.796875 930.894531 697.085938 C 929.460938 697.105469 928.027344 697.125 926.59375 697.144531 C 924.90625 697.382812 923.21875 697.617188 921.527344 697.855469 C 920.074219 697.675781 918.945312 698.246094 918.046875 699.355469 C 915.765625 699.507812 913.492188 699.667969 911.214844 699.828125 C 906.671875 699.894531 901.925781 699.117188 897.625 700.171875 C 872.546875 706.289062 846.6875 703.652344 821.425781 707.351562 C 809.152344 709.144531 796.59375 708.335938 784.496094 710.148438 C 758.351562 714.066406 731.980469 714.316406 705.757812 716.546875 C 691.488281 717.757812 677.3125 720.148438 661.257812 719.9375 C 665.335938 723.8125 668.003906 723.878906 672.152344 723.3125 C 683.550781 721.753906 695.476562 720.109375 706.429688 724.246094 C 712.636719 726.589844 717.488281 727.078125 722.355469 723.097656 C 725.960938 720.144531 729.082031 720.351562 733.597656 721.109375 C 742.242188 722.570312 751.476562 724.695312 759.539062 718.089844 C 760.90625 716.972656 763.511719 716.988281 765.511719 717.101562 C 769.953125 717.339844 774.511719 715.933594 778.820312 718.472656 C 784.152344 721.617188 786.027344 714.652344 791.121094 714.203125 C 824.09375 711.28125 857.179688 711.601562 890.167969 709.65625 C 892.984375 709.492188 897.179688 709.648438 896.390625 713.578125 C 894.910156 720.9375 899.636719 719.277344 903.476562 719.542969 C 905.429688 719.679688 908.011719 719.636719 907.859375 722.511719 C 907.710938 725.371094 904.984375 725.171875 903.121094 725.179688 C 886.980469 725.214844 871.601562 731.722656 855.347656 730.714844 C 854.328125 730.648438 853.867188 731.421875 854.128906 733.363281 C 866.410156 734.480469 877.753906 741.714844 891.53125 737.289062 C 901.09375 734.21875 911.816406 737.070312 921.953125 734.539062 C 933.492188 731.660156 935.359375 728.914062 930.648438 717.632812 C 932.785156 717.347656 935.125 717.640625 936.765625 716.707031 C 942.527344 713.4375 951.804688 717.707031 954.546875 707.039062 C 955.605469 702.917969 962.894531 704.09375 966.890625 705.878906 C 970.097656 707.3125 969.695312 710.335938 967.902344 714.121094 C 964.253906 721.804688 962.863281 723.273438 953.308594 722.007812 C 949.96875 721.566406 945.082031 718.015625 944.464844 724.03125 C 943.933594 729.234375 950.484375 726.488281 953.195312 728.851562 C 954.808594 730.253906 957.039062 728.59375 959.023438 728.195312 C 965.816406 726.839844 972.570312 725.5625 979.671875 726.796875 C 983.523438 727.46875 987.984375 727.957031 991.230469 724.191406 C 992.359375 722.886719 994.035156 722.5625 995.746094 723.308594 C 1005.398438 727.511719 1012.980469 720.523438 1020.609375 717.386719 C 1027.25 714.652344 1033.378906 712.214844 1040.53125 712.28125 C 1043.820312 712.3125 1047.058594 712.144531 1050.328125 711.179688 C 1062.730469 707.511719 1074.820312 703.753906 1088.300781 703.410156 C 1098.96875 703.140625 1110.429688 707.289062 1120.910156 701.089844 C 1122.039062 700.421875 1124.648438 702.25 1126.570312 702.933594 C 1134.371094 705.710938 1142.28125 707.3125 1150.679688 707.484375 C 1164.269531 707.765625 1177.960938 706.011719 1191.449219 709.234375 C 1193.519531 709.726562 1196.398438 709.699219 1196.808594 705.433594 C 1191.398438 706.40625 1187.300781 702.027344 1181.171875 703.8125 C 1175.101562 705.578125 1169.378906 699.253906 1169.199219 692.300781 C 1169.128906 689.46875 1166.441406 686.988281 1168.539062 683.472656 C 1176.488281 680.953125 1185.421875 683.699219 1195.050781 681.214844 C 1189.660156 679.554688 1185.550781 678.285156 1181.921875 677.171875 C 1180.460938 674.398438 1190.539062 674.1875 1182.550781 670.671875 C 1176.609375 668.058594 1176.160156 665.710938 1180.890625 662.914062 C 1187.53125 659 1194.488281 655.726562 1203.308594 658.609375 C 1201.988281 661.355469 1196.460938 660.914062 1198.820312 664.988281 C 1199.839844 666.753906 1201.230469 668.398438 1202.761719 669.746094 C 1205.078125 671.773438 1200.488281 673.164062 1202.769531 676.085938 C 1204.671875 678.511719 1205.371094 680.355469 1208.808594 679.859375 C 1211.359375 679.492188 1213.371094 678.335938 1215.589844 677.203125 C 1222.671875 673.601562 1223.351562 674.078125 1224.601562 682.132812 C 1225.011719 684.824219 1223.820312 688.597656 1227.691406 689.339844 C 1234.519531 690.652344 1241.449219 691.957031 1248.359375 692.082031 C 1252 692.148438 1255.429688 688.886719 1255.230469 684.761719 C 1255.050781 681.296875 1251.53125 680.910156 1248.53125 680.75 C 1246.46875 680.644531 1244.101562 680.976562 1242.429688 680.066406 C 1239.039062 678.214844 1233.761719 676.109375 1235.679688 671.511719 C 1238.050781 665.828125 1236.050781 664.652344 1231.339844 663.199219 C 1226.441406 661.6875 1221.769531 662.0625 1216.960938 662.988281 C 1216.960938 662.988281 1216.679688 662.660156 1216.679688 662.664062 C 1215.550781 656.144531 1219.738281 654.570312 1224.710938 654.941406 C 1235.460938 655.738281 1245.738281 652.132812 1256.488281 652.191406 C 1266.011719 652.246094 1267.5 648.691406 1262.851562 640.148438 C 1260.191406 635.257812 1261.761719 633.261719 1266.578125 632.757812 C 1268.980469 632.507812 1271.441406 632.867188 1273.871094 632.960938 C 1273.070312 629.132812 1274.988281 626.007812 1278.070312 624.9375 C 1282.980469 623.230469 1282.929688 619.902344 1283.011719 616.902344 C 1266.589844 611.453125 1249.511719 612.488281 1232.410156 607.285156 C 1238.601562 601.628906 1246.011719 601.730469 1252.078125 598.726562 C 1265.859375 591.898438 1280.46875 587.675781 1296.179688 592.699219 C 1298.058594 593.300781 1301.101562 593.8125 1302.121094 590.070312 C 1295.550781 585.941406 1286.550781 591.273438 1279.429688 583.855469 C 1286.5 583.445312 1291.730469 578.976562 1297.96875 584.292969 C 1300.699219 586.613281 1305.421875 586.484375 1310.191406 583.925781 C 1299.5 572.925781 1283.890625 579.894531 1273.339844 571.796875 C 1289.390625 569.996094 1304.988281 578.058594 1320.238281 572.300781 C 1313.140625 569.160156 1317.519531 558.585938 1309.859375 555.316406 C 1314.921875 550.101562 1321.699219 551.613281 1328.160156 549.203125 C 1324.46875 545.300781 1320.671875 542.878906 1322.988281 537.222656 C 1324.789062 532.839844 1329.109375 531.207031 1331.558594 527.691406 C 1330.289062 526.84375 1329.570312 526.433594 1328.921875 525.925781 C 1325.800781 523.449219 1319.171875 524.460938 1319.210938 519.574219 C 1319.25 513.625 1326.339844 517.882812 1329.109375 514.9375 C 1329.371094 514.664062 1329.429688 514.210938 1329.808594 513.285156 C 1327.441406 506.613281 1317.921875 508.910156 1314.269531 501.824219 C 1322.660156 501.992188 1326.140625 492.699219 1334.539062 493.097656 C 1324.261719 488.449219 1313.980469 483.804688 1303.691406 479.15625 C 1299.761719 483.527344 1295.808594 480.523438 1291.710938 479.269531" fill="#4e705f"/></g><g id="change1_3"><path d="M 1303.691406 479.15625 C 1303.71875 479.125 1303.75 479.101562 1303.78125 479.066406 L 1303.691406 479.15625" fill="#4e705f"/></g><g id="change1_4"><path d="M 104.410156 94.363281 C 104.433594 94.320312 104.460938 94.285156 104.488281 94.242188 C 104.414062 94.234375 104.347656 94.234375 104.273438 94.226562 L 104.410156 94.363281" fill="#4e705f"/></g><g id="change1_5"><path d="M 1230.480469 439.617188 C 1232.808594 441.757812 1235.050781 441.027344 1236.921875 441.613281 C 1245.140625 444.195312 1254.539062 441.871094 1262 446.257812 C 1270.171875 451.054688 1279.710938 446.578125 1287.640625 451.476562 C 1288.578125 452.058594 1291.5 450.417969 1292.351562 447.214844 C 1275.691406 441.289062 1275.691406 441.289062 1279.429688 436.242188 C 1271.449219 440.273438 1265.449219 437.515625 1258.910156 434.742188 C 1251.261719 431.496094 1242.828125 430.234375 1234.171875 430.9375 C 1238.621094 432.457031 1243.078125 433.980469 1248.050781 435.675781 C 1242.398438 439.714844 1235.320312 434.238281 1230.480469 439.617188" fill="#4e705f"/></g><g id="change1_6"><path d="M 1144.730469 726.664062 C 1141.46875 727.136719 1138.21875 728.425781 1135.011719 727.390625 C 1122.078125 723.214844 1108.851562 725.707031 1095.75 725.390625 C 1093.671875 725.339844 1091.648438 725.964844 1091.851562 729.617188 C 1128.328125 729.230469 1164.898438 728.554688 1201.140625 730.484375 C 1196.988281 728.828125 1192.828125 725.773438 1188.671875 725.773438 C 1174.03125 725.78125 1159.308594 724.550781 1144.730469 726.664062" fill="#4e705f"/></g><g id="change1_7"><path d="M 1176.671875 431.347656 C 1186.039062 433.308594 1192.730469 431.070312 1198.011719 424.542969 C 1193.390625 421.707031 1186.441406 421.421875 1185.769531 414.050781 C 1185.71875 413.535156 1183.328125 412.511719 1182.691406 412.878906 C 1176.019531 416.675781 1170.441406 413.058594 1164.828125 409.632812 C 1163.621094 417.070312 1168.21875 422.859375 1167.238281 429.394531 C 1170.628906 428.878906 1173.53125 430.691406 1176.671875 431.347656" fill="#4e705f"/></g><g id="change1_8"><path d="M 771.929688 758.359375 C 767.855469 757.769531 761.332031 758.878906 755.578125 762.261719 C 767.273438 768.285156 778.867188 764.023438 789.605469 766.601562 C 790.378906 766.785156 791.25 766.53125 792.066406 766.601562 C 796.792969 767.007812 797.160156 761.703125 800.503906 760.214844 C 804.476562 758.441406 809.402344 761.179688 813.949219 757.171875 C 799.210938 750.40625 785.800781 760.378906 771.929688 758.359375" fill="#4e705f"/></g><g id="change1_9"><path d="M 552.570312 784.886719 C 557.808594 780.226562 567.714844 781.648438 570.738281 771.921875 C 557.863281 774.824219 543.71875 771.160156 533.101562 782.257812 C 539.863281 781.273438 544.054688 792.46875 552.570312 784.886719" fill="#4e705f"/></g><g id="change1_10"><path d="M 73.277344 232.078125 C 73.277344 232.078125 73.277344 232.074219 73.273438 232.074219 C 73.554688 231.5 73.894531 230.945312 74.066406 230.339844 C 73.894531 230.945312 73.554688 231.503906 73.277344 232.078125 Z M 68.175781 218.09375 C 67.566406 217.210938 66.261719 216.511719 65.171875 216.320312 C 62.234375 215.808594 58.898438 215.835938 57.894531 219.183594 C 56.742188 223.019531 55.707031 227.453125 59.835938 230.417969 C 67.625 236.019531 75.773438 240.03125 85.863281 233.800781 C 84.757812 232.5625 84.363281 231.730469 83.738281 231.480469 C 75.042969 227.992188 74.941406 227.882812 68.175781 218.09375" fill="#4e705f"/></g><g id="change1_11"><path d="M 77.792969 105.808594 C 80.769531 106.304688 82 106.765625 83.1875 106.667969 C 95.15625 105.699219 106.914062 101.367188 119.1875 104.871094 C 121.167969 105.4375 121.480469 102.765625 120.9375 101.269531 C 119.414062 97.101562 116.472656 97.617188 112.863281 98.660156 C 109.078125 99.757812 104.265625 101.296875 104.28125 94.355469 C 93.804688 93.441406 86.375 99.046875 77.792969 105.808594" fill="#4e705f"/></g><g id="change1_12"><path d="M 104.410156 94.363281 C 104.410156 94.363281 104.273438 94.226562 104.273438 94.226562 C 104.273438 94.273438 104.28125 94.3125 104.28125 94.355469 C 104.324219 94.359375 104.367188 94.359375 104.410156 94.363281" fill="#4e705f"/></g><g id="change1_13"><path d="M 75.621094 163.226562 C 80.015625 164.6875 83.699219 162.523438 87.246094 160.59375 C 88.339844 160 88.707031 157.863281 89.164062 156.355469 C 90.226562 152.859375 91.140625 149.316406 92.65625 143.824219 C 86.796875 145.738281 82.449219 146.863281 78.351562 148.585938 C 74.164062 150.347656 72.628906 154.21875 72.464844 158.480469 C 72.382812 160.546875 73.324219 162.464844 75.621094 163.226562" fill="#4e705f"/></g><g id="change1_14"><path d="M 142.203125 812.941406 C 141.804688 812.25 139.890625 812.253906 138.683594 812.269531 C 137.671875 812.28125 135.851562 812.425781 137.265625 814.179688 C 140.484375 818.183594 137.261719 818.890625 134.519531 820.066406 C 132.882812 820.769531 131.832031 822.074219 132.625 823.980469 C 133.140625 825.21875 134.5 825.929688 135.597656 825.367188 C 140.792969 822.710938 145.363281 825.648438 149.914062 827.0625 C 156.324219 829.058594 161.625 828.027344 168.847656 822.414062 C 157.023438 822.769531 147.699219 822.429688 142.203125 812.941406" fill="#4e705f"/></g><g id="change1_15"><path d="M 1324.359375 144.644531 C 1316.300781 138.925781 1290.941406 130.746094 1282.78125 131.230469 C 1290.480469 138.308594 1314.328125 146 1324.359375 144.644531" fill="#4e705f"/></g><g id="change1_16"><path d="M 681.652344 743.128906 C 695.0625 748.328125 705.835938 746.195312 715.890625 738.933594 C 705.132812 742.203125 693.464844 737.605469 681.652344 743.128906" fill="#4e705f"/></g><g id="change1_17"><path d="M 57.988281 209.273438 C 63.792969 208.277344 69.964844 213.382812 76.300781 207.714844 C 72.007812 199.628906 65.375 200.476562 58.675781 201.503906 C 56.898438 201.777344 55.546875 202.652344 55.261719 204.46875 C 54.898438 206.757812 56.277344 209.566406 57.988281 209.273438" fill="#4e705f"/></g><g id="change1_18"><path d="M 117.75 116.402344 C 112.210938 118.273438 107.445312 115.113281 102.367188 114.570312 C 96.894531 113.988281 91.277344 113.941406 87.222656 120.429688 C 98.546875 123.089844 108.058594 120.171875 117.75 116.402344" fill="#4e705f"/></g><g clip-path="url(#a)" id="change1_1"><path d="M 1323.101562 449.957031 C 1333.058594 452.863281 1342.621094 457.1875 1353.308594 457.445312 C 1343.910156 452.324219 1333.988281 449.117188 1323.101562 449.957031" fill="#4e705f"/></g><g id="change1_19"><path d="M 1167.109375 429.496094 C 1167.140625 429.507812 1167.179688 429.523438 1167.21875 429.53125 L 1167.21875 429.535156 C 1167.230469 429.484375 1167.230469 429.4375 1167.238281 429.394531 C 1167.199219 429.398438 1167.160156 429.398438 1167.121094 429.40625 C 1167.109375 429.4375 1167.109375 429.464844 1167.109375 429.496094" fill="#4e705f"/></g><g id="change1_20"><path d="M 1149.410156 429.71875 C 1149.378906 436.898438 1156.101562 431.972656 1160.011719 432.148438 C 1161.609375 432.222656 1163.230469 433.367188 1164.75 433.199219 C 1166.570312 433.003906 1166.96875 431.171875 1167.109375 429.496094 C 1165.171875 428.878906 1163.199219 427.710938 1161.320312 427.839844 C 1157.109375 428.132812 1149.421875 425.363281 1149.410156 429.71875" fill="#4e705f"/></g><g id="change1_21"><path d="M 1278.898438 461.6875 C 1278.851562 461.6875 1278.808594 461.6875 1278.769531 461.6875 C 1278.78125 461.726562 1278.800781 461.761719 1278.808594 461.800781 L 1278.898438 461.6875" fill="#4e705f"/></g><g id="change1_22"><path d="M 1274.480469 457.835938 C 1266.019531 457.0625 1257.75 454.25 1249.070312 455.402344 C 1259.089844 457.023438 1268.359375 462.007812 1278.769531 461.6875 C 1278.058594 459.589844 1276.449219 458.015625 1274.480469 457.835938" fill="#4e705f"/></g><g id="change1_23"><path d="M 1278.898438 461.6875 C 1278.898438 461.6875 1278.808594 461.800781 1278.808594 461.800781 C 1278.921875 461.808594 1279.03125 461.8125 1279.148438 461.820312 C 1279.058594 461.777344 1278.980469 461.730469 1278.898438 461.6875" fill="#4e705f"/></g><g id="change1_24"><path d="M 1300.46875 464.738281 C 1292.820312 460.351562 1285.789062 462.347656 1279.148438 461.820312 C 1285.351562 465.230469 1291.601562 468.425781 1300.46875 464.738281" fill="#4e705f"/></g><g id="change1_25"><path d="M 39.953125 782.226562 C 36.96875 782.441406 34.359375 783.523438 32.953125 788.554688 C 36.121094 787.96875 38.433594 787.574219 40.726562 787.101562 C 42.988281 786.632812 46.664062 787 46.144531 783.746094 C 45.648438 780.664062 42.167969 782.066406 39.953125 782.226562" fill="#4e705f"/></g><g id="change1_26"><path d="M 107.191406 83.042969 C 102.738281 81.730469 97.558594 77.347656 94.921875 85.675781 C 100.175781 88.382812 103.304688 84.109375 107.191406 83.042969" fill="#4e705f"/></g><g id="change1_27"><path d="M 771.597656 683.722656 C 771.828125 683.894531 772.046875 684.179688 772.292969 684.210938 C 772.554688 684.238281 772.839844 684.023438 773.113281 683.910156 C 772.609375 683.847656 772.101562 683.785156 771.597656 683.722656" fill="#4e705f"/></g><g id="change1_28"><path d="M 782.59375 683.378906 C 782.292969 683.453125 781.992188 683.53125 781.691406 683.609375 C 781.769531 683.839844 781.835938 684.257812 781.925781 684.265625 C 782.21875 684.28125 782.523438 684.148438 782.824219 684.070312 C 782.746094 683.839844 782.671875 683.609375 782.59375 683.378906" fill="#4e705f"/></g><g id="change1_29"><path d="M 1303.78125 479.066406 C 1303.738281 479.042969 1303.691406 479.015625 1303.628906 478.988281 C 1303.648438 479.046875 1303.671875 479.09375 1303.691406 479.15625 L 1303.78125 479.066406" fill="#4e705f"/></g><g id="change1_30"><path d="M 1302.839844 478.496094 C 1302.820312 478.597656 1303.289062 478.808594 1303.628906 478.988281 C 1303.308594 477.980469 1302.988281 477.796875 1302.839844 478.496094" fill="#4e705f"/></g><g id="change1_31"><path d="M 1274.480469 633.597656 L 1273.949219 632.964844 C 1273.921875 632.964844 1273.898438 632.964844 1273.871094 632.960938 C 1273.871094 632.984375 1273.871094 633.011719 1273.878906 633.035156 L 1274.480469 633.597656" fill="#4e705f"/></g></g></svg>