<?xml version="1.0" encoding="UTF-8"?><svg xmlns="http://www.w3.org/2000/svg" xmlns:xlink="http://www.w3.org/1999/xlink" height="480.5" preserveAspectRatio="xMidYMid meet" version="1.0" viewBox="0.0 -0.8 1552.9 480.5" width="1552.9" zoomAndPan="magnify"><defs><clipPath id="a"><path d="M 0 5 L 1552.941406 5 L 1552.941406 461 L 0 461 Z M 0 5"/></clipPath><clipPath id="b"><path d="M 900 474 L 925 474 L 925 479.691406 L 900 479.691406 Z M 900 474"/></clipPath></defs><g><g id="change1_1"><path d="M 87.03125 389.152344 C 87.007812 389.148438 86.980469 389.144531 86.957031 389.140625 C 86.957031 389.171875 86.957031 389.199219 86.957031 389.230469 L 87.03125 389.152344" fill="#dfb846"/></g><g id="change1_2"><path d="M 448.699219 9.699219 C 457.164062 8.648438 465.800781 8.273438 474.539062 8.757812 C 492.070312 9.726562 509.699219 9.285156 527.277344 8.910156 C 533.09375 8.785156 538.890625 5.894531 544.558594 9.683594 C 545.605469 10.386719 547.210938 10.765625 548.15625 9.417969 C 550.859375 5.558594 555.464844 7.996094 559.027344 6.445312 C 557.597656 3.425781 555.753906 1.53125 552.722656 2.152344 C 541.371094 4.484375 529.878906 3.234375 518.457031 3.675781 C 513.503906 3.867188 508.550781 3.257812 503.71875 5.105469 C 498.773438 6.996094 495.285156 4.058594 491.972656 0.957031 C 487.933594 5.484375 482.902344 3.542969 478.105469 3.046875 C 477.808594 3.019531 477.449219 2.789062 477.269531 2.542969 C 474.792969 -0.8125 471.660156 -0.28125 468.339844 0.917969 C 464.8125 2.191406 461.117188 2.050781 457.496094 1.6875 C 451.441406 1.082031 445.710938 2.078125 439.261719 4.804688 C 442.316406 8.019531 443.8125 10.308594 448.699219 9.699219" fill="#dfb846"/></g><g clip-path="url(#a)" id="change1_28"><path d="M 1530.421875 243.390625 C 1530.140625 243.339844 1529.859375 243.277344 1529.589844 243.203125 C 1529.859375 243.277344 1530.140625 243.339844 1530.421875 243.390625 C 1530.46875 243.582031 1530.53125 243.742188 1530.621094 243.886719 C 1530.53125 243.742188 1530.46875 243.582031 1530.421875 243.390625 Z M 1483.410156 155.753906 C 1483.011719 155.96875 1482.351562 156.160156 1482.101562 156.394531 C 1482.351562 156.160156 1483.011719 155.964844 1483.410156 155.746094 C 1484.238281 155.816406 1485.050781 156.054688 1485.308594 156.804688 C 1485.050781 156.054688 1484.238281 155.816406 1483.410156 155.753906 Z M 1396.441406 90.488281 C 1395.539062 89.746094 1395.039062 89.140625 1394.921875 88.65625 C 1395.039062 89.140625 1395.539062 89.746094 1396.441406 90.488281 C 1396.449219 91.035156 1396.539062 91.46875 1396.699219 91.820312 C 1396.539062 91.46875 1396.449219 91.035156 1396.441406 90.488281 Z M 1374.378906 385.292969 L 1374.589844 385.089844 C 1374.589844 385.089844 1374.378906 385.292969 1374.378906 385.292969 Z M 1338.859375 430.488281 C 1338.519531 430.910156 1337.929688 431.34375 1337.800781 431.753906 C 1337.929688 431.34375 1338.519531 430.910156 1338.859375 430.488281 C 1339.058594 430.472656 1339.230469 430.5 1339.371094 430.546875 C 1339.230469 430.5 1339.058594 430.476562 1338.859375 430.488281 Z M 1322.511719 417.171875 C 1319.929688 415.214844 1320.460938 412.511719 1320.75 409.722656 C 1320.480469 412.363281 1319.988281 414.917969 1323.398438 416.085938 C 1323.5 416.007812 1323.601562 415.949219 1323.679688 415.914062 C 1323.601562 415.96875 1323.53125 416.039062 1323.449219 416.101562 C 1323.429688 416.097656 1323.421875 416.09375 1323.398438 416.085938 C 1323.121094 416.3125 1322.78125 416.6875 1322.511719 417.171875 C 1323.078125 417.175781 1323.660156 417.25 1324.210938 417.171875 C 1325.011719 419.25 1328.109375 419.535156 1328.441406 422.339844 C 1328.039062 419.1875 1323.949219 419.347656 1322.511719 417.171875 Z M 1167.28125 378.601562 C 1167.261719 378.660156 1167.230469 378.722656 1167.191406 378.785156 C 1167.230469 378.722656 1167.261719 378.660156 1167.28125 378.601562 C 1167.328125 378.605469 1167.390625 378.609375 1167.449219 378.609375 C 1167.390625 378.609375 1167.328125 378.605469 1167.28125 378.601562 Z M 996.019531 384.984375 C 995.953125 384.621094 996.011719 384.320312 996.183594 384.140625 C 996.011719 384.320312 995.953125 384.621094 996.019531 384.984375 C 996.5 385.34375 996.96875 385.714844 997.480469 386.019531 C 996.96875 385.714844 996.5 385.34375 996.019531 384.984375 Z M 981.515625 416.316406 C 981.578125 416.398438 981.644531 416.507812 981.714844 416.613281 C 981.644531 416.507812 981.578125 416.398438 981.515625 416.316406 Z M 977.738281 422.234375 C 978.152344 422.007812 978.621094 421.839844 979.011719 421.589844 C 978.621094 421.839844 978.152344 422.007812 977.738281 422.234375 Z M 901.605469 422.292969 C 901.199219 422.175781 900.726562 421.910156 900.355469 421.863281 C 900.726562 421.910156 901.203125 422.175781 901.605469 422.289062 C 901.605469 422.292969 901.605469 422.292969 901.605469 422.292969 Z M 822.515625 62.035156 C 820.632812 62.078125 818.75 62.117188 816.867188 62.160156 C 818.75 62.117188 820.632812 62.078125 822.515625 62.03125 C 825.507812 63.992188 828.925781 64.097656 832.019531 63.492188 C 828.925781 64.097656 825.507812 63.992188 822.515625 62.035156 Z M 738.171875 68.402344 C 738.6875 68.128906 739.203125 67.855469 739.71875 67.578125 C 739.203125 67.855469 738.6875 68.128906 738.171875 68.402344 Z M 613.980469 399.125 C 614.476562 398.84375 614.96875 398.5625 615.460938 398.277344 C 614.96875 398.5625 614.476562 398.84375 613.980469 399.125 Z M 559.347656 78.503906 C 558.980469 78.277344 558.617188 77.9375 558.25 77.769531 C 558.617188 77.9375 558.984375 78.277344 559.351562 78.5 C 559.351562 78.5 559.351562 78.5 559.347656 78.503906 Z M 466.226562 421.5 C 466.011719 421.042969 465.886719 420.371094 465.59375 420.101562 C 465.886719 420.375 466.011719 421.042969 466.226562 421.496094 C 466.226562 421.496094 466.226562 421.496094 466.226562 421.5 Z M 77.214844 337.144531 C 77.214844 337.144531 77.214844 337.144531 77.21875 337.144531 C 81.417969 338.546875 85.457031 340.652344 89.808594 341.390625 C 85.457031 340.652344 81.417969 338.546875 77.214844 337.144531 Z M 85.808594 183.777344 C 85.632812 184.050781 85.414062 184.328125 85.265625 184.605469 C 85.414062 184.328125 85.632812 184.050781 85.808594 183.777344 Z M 86.117188 182.949219 C 86.128906 183.21875 85.988281 183.496094 85.8125 183.773438 C 85.988281 183.496094 86.128906 183.21875 86.117188 182.949219 Z M 76.996094 199.328125 C 76.898438 199.414062 76.804688 199.503906 76.714844 199.597656 C 76.804688 199.503906 76.898438 199.414062 76.996094 199.328125 Z M 61.167969 213.4375 C 61.027344 214 60.945312 214.550781 60.9375 215.085938 C 60.945312 214.550781 61.027344 214 61.167969 213.4375 C 65.90625 213.386719 70.4375 211.957031 75.296875 212.066406 C 70.4375 211.957031 65.90625 213.386719 61.167969 213.4375 Z M 57.140625 223.4375 C 57.082031 224.730469 57.054688 226.027344 56.953125 227.320312 C 57.054688 226.027344 57.082031 224.730469 57.140625 223.4375 C 58.429688 223.351562 59.71875 223.265625 61.007812 223.179688 C 59.71875 223.265625 58.429688 223.351562 57.140625 223.4375 Z M 46.808594 221.441406 C 44.292969 221.433594 42.269531 221.132812 41.90625 219.574219 C 42.269531 221.132812 44.292969 221.433594 46.808594 221.441406 C 47.453125 221.609375 48.09375 221.792969 48.726562 221.996094 C 48.09375 221.792969 47.453125 221.609375 46.808594 221.441406 Z M 46.320312 209.484375 C 45.09375 209.253906 43.761719 209.308594 42.449219 209.261719 C 43.761719 209.308594 45.09375 209.253906 46.320312 209.484375 Z M 1417.96875 101.578125 C 1417.96875 101.578125 1418.269531 101.710938 1418.269531 101.710938 C 1417.609375 103.457031 1416.941406 105.199219 1416.269531 106.941406 C 1416.941406 105.199219 1417.609375 103.457031 1418.269531 101.710938 Z M 1550.171875 245.757812 C 1548.640625 245.273438 1546.929688 245.324219 1545.289062 245.136719 C 1537.199219 244.222656 1534.988281 235.433594 1528.421875 232.410156 C 1528.148438 232.289062 1528.621094 230.558594 1528.75 229.578125 C 1529.980469 228.855469 1531.210938 228.128906 1532.429688 227.40625 C 1537.410156 228.234375 1542.53125 227.492188 1547.488281 228.867188 C 1548.96875 229.28125 1550.878906 229.09375 1551.53125 227.050781 C 1552.109375 225.230469 1551.28125 223.726562 1549.878906 222.753906 C 1543.800781 218.511719 1537.28125 215.855469 1529.660156 217.863281 C 1527.769531 218.363281 1525.898438 219.214844 1523.980469 219.328125 C 1520.75 219.515625 1516.550781 220.226562 1515.398438 216.3125 C 1514.019531 211.617188 1518.621094 211.097656 1521.578125 210.488281 C 1526.210938 209.542969 1527.269531 206.996094 1526.339844 202.890625 C 1527.601562 202.878906 1528.871094 202.863281 1530.140625 202.851562 C 1534.160156 204.007812 1537.589844 203.089844 1541.480469 199.578125 C 1537.148438 199.375 1533.898438 199.21875 1530.648438 199.066406 C 1523.480469 195.875 1519.679688 187.378906 1510.648438 186.808594 C 1507.949219 186.640625 1506.851562 183.089844 1507.238281 180.382812 C 1507.628906 177.679688 1510.199219 177.140625 1512.589844 177.003906 C 1516.140625 176.796875 1519.691406 176.675781 1523.769531 176.492188 C 1512.128906 174.730469 1501.019531 173.316406 1490.050781 171.246094 C 1486.011719 170.484375 1486.148438 168.167969 1490.019531 166.558594 C 1495.71875 167.285156 1501.070312 164.28125 1506.800781 165.046875 C 1508.390625 165.257812 1510.300781 165.277344 1511.179688 163.507812 C 1512.390625 161.089844 1510.101562 160.074219 1508.960938 158.570312 C 1507.699219 156.90625 1506.320312 155.339844 1504.078125 155.734375 C 1497.210938 156.941406 1491.269531 152.96875 1484.710938 152.460938 C 1480.511719 152.136719 1479.050781 150.476562 1482.488281 146.988281 C 1484.011719 145.441406 1483.480469 144.152344 1482.320312 142.699219 C 1479.730469 139.441406 1476.820312 136.875 1472.238281 137.488281 C 1471.089844 137.386719 1469.929688 137.285156 1468.769531 137.183594 C 1466.960938 134.046875 1470.539062 131.960938 1470.660156 128.554688 C 1465.640625 127.746094 1460.808594 126.96875 1456 126.191406 C 1452.960938 125.816406 1449.929688 125.441406 1446.890625 125.0625 C 1446.238281 124.144531 1445.398438 123.699219 1444.261719 124.027344 C 1436.53125 123.042969 1428.820312 121.941406 1421.078125 121.125 C 1418.589844 120.859375 1416.660156 120.308594 1415.808594 117.753906 C 1416.03125 116.9375 1416.261719 116.125 1416.480469 115.308594 C 1417.128906 115.378906 1417.789062 115.433594 1418.449219 115.480469 C 1418.351562 114.273438 1418.609375 113.480469 1419.078125 112.933594 C 1418.609375 113.480469 1418.351562 114.273438 1418.449219 115.476562 C 1419.828125 116.367188 1421.179688 117.15625 1422.960938 117.242188 C 1433.761719 117.773438 1444.378906 113.707031 1457.210938 117.429688 C 1452.390625 112.359375 1448.171875 111.753906 1444.070312 110.988281 C 1439.011719 110.046875 1434.398438 106.214844 1434.738281 102.335938 C 1435.199219 97.011719 1432.421875 97.253906 1429.550781 96.378906 C 1423.851562 94.640625 1416.828125 96.863281 1412.621094 90.335938 C 1411.929688 89.261719 1408.890625 89.480469 1406.941406 89.492188 C 1403.539062 89.515625 1400.390625 88.78125 1397.429688 87.179688 C 1390.679688 84.617188 1383.640625 81.871094 1380.488281 75.007812 C 1377.691406 68.898438 1373.171875 66.957031 1367.300781 66.355469 C 1363.691406 65.984375 1360.058594 65.730469 1356.441406 65.421875 C 1357.160156 62.582031 1351.578125 58.300781 1358.410156 56.816406 C 1358.898438 56.710938 1358.648438 56 1357.828125 55.644531 C 1353.300781 53.675781 1356.371094 52.636719 1358.328125 51.40625 C 1359.75 50.519531 1362.378906 52.4375 1362.910156 50.042969 C 1362.21875 46.578125 1355.351562 48.230469 1357.878906 42.519531 C 1358.121094 41.976562 1351.941406 41.679688 1349.949219 38.726562 C 1351.128906 36.070312 1354.640625 38.449219 1355.988281 36.160156 C 1350.921875 33.660156 1345.691406 33.179688 1340.300781 33.847656 C 1337.070312 34.25 1336.75 35.910156 1337.601562 38.753906 C 1338.199219 40.742188 1341.191406 40.535156 1340.890625 43.539062 C 1337.730469 43.351562 1334.851562 46.195312 1331.421875 44.367188 C 1321.5 39.070312 1311.671875 41.460938 1301.761719 43.929688 C 1302.308594 48.515625 1303.871094 50.292969 1308.46875 51.40625 C 1319.738281 54.128906 1331.269531 55.039062 1342.550781 57.457031 C 1342.53125 57.476562 1342.5 57.5 1342.480469 57.519531 C 1342.5 57.53125 1342.519531 57.539062 1342.550781 57.550781 C 1339.820312 62.125 1335.558594 59.78125 1332.050781 59.4375 C 1329.148438 59.152344 1326.148438 57.464844 1323.300781 58.316406 C 1314.851562 60.828125 1307.148438 59.21875 1300.121094 54.507812 C 1298.441406 56.941406 1299.921875 60.800781 1297.210938 61.042969 C 1291.039062 61.585938 1285.269531 66.039062 1278.878906 63.421875 C 1271.511719 60.398438 1264.671875 61.796875 1257.878906 65.023438 C 1257.679688 60.746094 1251.898438 60.851562 1251.449219 56.765625 C 1257.359375 49.632812 1257.359375 49.609375 1265.96875 51.324219 C 1267.261719 51.582031 1268.480469 52.160156 1269.75 52.53125 C 1272.289062 53.273438 1274.859375 54.628906 1277.378906 54.542969 C 1281.609375 54.402344 1279.109375 49.351562 1281.601562 47.601562 C 1282.378906 47.046875 1283.171875 46.277344 1283.558594 45.429688 C 1285.121094 41.960938 1283.441406 39.429688 1279.578125 40.488281 C 1276.070312 41.453125 1273.300781 40.800781 1271.878906 38.257812 C 1270.898438 36.5 1272.378906 33.433594 1268.269531 34.730469 C 1265.789062 35.515625 1263.101562 35.636719 1260.519531 36.160156 C 1260.421875 36.183594 1260.339844 37.398438 1260.601562 37.878906 C 1262.75 42.015625 1259.929688 41.886719 1257.558594 41.023438 C 1248.320312 37.628906 1241.53125 40.695312 1236.308594 48.492188 C 1235.148438 50.230469 1233.179688 50.726562 1231.480469 51.714844 C 1227.378906 54.101562 1227.828125 57.03125 1232.441406 59.136719 C 1233.820312 59.769531 1235.828125 59.367188 1235.761719 63.082031 C 1230.429688 63.253906 1225 63.628906 1219.578125 63.558594 C 1213.660156 63.484375 1208.339844 64.597656 1204.328125 69.34375 C 1200.910156 73.394531 1196.828125 74.203125 1191.800781 72.566406 C 1186.480469 70.835938 1181.058594 71.011719 1175.390625 71.574219 C 1163.03125 72.792969 1150.300781 77.105469 1138.988281 66.652344 C 1135.03125 62.988281 1130.480469 66.089844 1128.789062 72.125 C 1127.359375 72.207031 1125.929688 72.285156 1124.488281 72.363281 C 1124.109375 71.832031 1123.851562 71.039062 1123.339844 70.8125 C 1114.898438 67.105469 1114.890625 67.125 1120.878906 60.203125 C 1121.410156 59.589844 1122.460938 59.1875 1121.921875 58.230469 C 1113.660156 54.8125 1112.511719 62.242188 1109.710938 66.40625 C 1105.261719 73.03125 1099.621094 74.324219 1094.421875 68.40625 C 1091.890625 65.527344 1089.101562 64.996094 1086.628906 66.3125 C 1084 67.722656 1082.808594 74.949219 1079.210938 66.964844 C 1078.738281 65.90625 1077.121094 67.589844 1076.339844 68.640625 C 1073.089844 73.070312 1069.921875 70.355469 1066.980469 68.289062 C 1066 67.601562 1065.5 66.097656 1065.019531 64.875 C 1062.878906 59.394531 1059.25 59.566406 1054.511719 61.460938 C 1051.96875 62.472656 1049.648438 63.695312 1047.628906 65.34375 C 1044.441406 67.9375 1041.640625 70.007812 1037.070312 67.847656 C 1034.570312 66.671875 1030.878906 66.238281 1031.679688 71.664062 C 1032.160156 74.925781 1029.109375 76.054688 1027.101562 74.503906 C 1020.890625 69.703125 1014.109375 71.066406 1007.261719 71.496094 C 1002.621094 71.785156 997.941406 71.4375 993.289062 71.566406 C 988.882812 71.6875 985.378906 70.75 984.210938 65.789062 C 983.617188 63.273438 981.777344 61.960938 979.234375 61.523438 C 973.324219 60.515625 967.6875 64.03125 961.710938 62.546875 C 960.996094 62.367188 959.867188 63.722656 960.375 64.660156 C 962.378906 68.359375 959.453125 67.5625 957.746094 67.535156 C 953.089844 67.464844 948.394531 67.539062 943.789062 66.957031 C 938.902344 66.339844 931.902344 66.664062 929.710938 63.703125 C 924.867188 57.167969 922.203125 65.242188 918.726562 63.851562 C 918.125 63.609375 917.605469 63.132812 917.097656 62.707031 C 915.132812 61.054688 912.773438 61.132812 910.445312 61.203125 C 905.882812 61.34375 901.847656 61.019531 900.375 55.402344 C 899.734375 52.960938 896.761719 52.585938 894.554688 52.132812 C 891.089844 51.421875 887.535156 51.152344 883.914062 50.679688 C 884 53.976562 884.695312 56.785156 883.996094 59.871094 C 882.621094 65.925781 881.792969 66.46875 876.664062 62.902344 C 875.289062 61.945312 873.539062 58.601562 872.210938 61.300781 C 869.929688 65.929688 866.503906 63.589844 864.933594 62.441406 C 859.675781 58.609375 852.734375 59.59375 847.578125 55.570312 C 845.664062 54.078125 842.8125 54.242188 839.957031 54.824219 C 835.792969 55.671875 831.363281 55.386719 827.054688 55.308594 C 825.203125 55.273438 824.324219 53.585938 823.832031 51.949219 C 823.535156 50.960938 823.917969 49.464844 824.820312 49.570312 C 830.402344 50.203125 835.730469 44.011719 841.746094 49.703125 C 844.433594 52.246094 849.089844 51.992188 854.507812 48.464844 C 846.789062 48.523438 846.035156 40.898438 838.175781 40.765625 C 842.894531 38.863281 845.832031 39.058594 848.5625 38.523438 C 855.0625 37.242188 862.375 41.601562 868.59375 35.375 C 857.917969 32.679688 847.183594 33.660156 836.746094 31.910156 C 830.269531 30.820312 823.773438 31.707031 818.308594 26.394531 C 815.980469 24.132812 811.675781 23.722656 807.875 23.746094 C 799.921875 23.785156 791.964844 23.566406 784.019531 23.308594 C 782.183594 23.25 779.84375 23.230469 780.207031 20.011719 C 784.609375 19.292969 789.074219 18.65625 793.167969 16.070312 C 790.417969 16.546875 789.722656 6.828125 785.371094 14.898438 C 785 15.585938 782.878906 15.460938 781.566406 15.480469 C 773.96875 15.609375 766.683594 18.945312 758.890625 17.4375 C 756.304688 16.933594 753.890625 17.867188 751.644531 19.867188 C 746.164062 24.746094 734.4375 24.292969 729.21875 19.316406 C 728.058594 18.210938 726.585938 17.023438 727.351562 15.082031 C 728.117188 13.144531 730.035156 13.660156 731.574219 13.273438 C 735.539062 12.277344 739.507812 15.792969 744.136719 13.640625 C 740.328125 9.410156 735.953125 9.164062 731.792969 9.78125 C 722.871094 11.105469 714.308594 9.605469 705.914062 7.050781 C 701.640625 5.75 697.371094 5.945312 693.085938 5.570312 C 687.84375 5.109375 683.746094 6.894531 680.460938 11.371094 C 687.242188 14.234375 691.207031 18.546875 691.207031 25.703125 C 691.207031 25.703125 691.015625 25.886719 691.015625 25.882812 C 683.097656 25.46875 675.019531 26.347656 667.574219 22.40625 C 665.058594 21.074219 662.582031 22.007812 660.066406 23.441406 C 652.121094 27.960938 644.027344 26.21875 636.109375 23.222656 C 632.890625 22.007812 630.964844 19.097656 628.988281 16.414062 C 626.59375 13.160156 631.6875 11.695312 631.085938 8.792969 C 622.9375 9.0625 615.011719 6.207031 606.855469 8.71875 C 608.816406 11.96875 611.917969 10.59375 614.246094 11.5 C 617.199219 12.652344 617.746094 15.410156 615.71875 17.792969 C 612.371094 21.726562 608.917969 17.496094 605.621094 18.0625 C 601.5625 18.757812 604.1875 27.089844 598.179688 25.433594 C 588.769531 22.839844 579.554688 22.113281 570.171875 25.320312 C 569.105469 25.683594 567.613281 24.839844 566.324219 24.53125 C 558.210938 22.578125 549.730469 24.246094 541.628906 21.972656 C 539.648438 21.417969 537.6875 22.367188 536.078125 23.675781 C 531.667969 27.261719 526.480469 27.496094 521.070312 27.917969 C 514.429688 28.4375 507.828125 28.273438 501.445312 26.984375 C 496.988281 26.089844 497.328125 28.855469 496.4375 31.128906 C 494.164062 30.957031 491.898438 30.789062 489.628906 30.617188 C 489.351562 29.550781 489.074219 28.484375 488.796875 27.417969 C 486.066406 25.046875 483.238281 22.570312 479.285156 23.859375 C 473.15625 25.859375 466.53125 26.296875 460.855469 29.707031 C 453.605469 29.703125 446.460938 29.183594 439.175781 31.183594 C 434.335938 32.515625 428.96875 32.03125 423.558594 30.898438 C 413.519531 28.792969 403.105469 24.929688 392.957031 31.578125 C 390.945312 32.894531 387.828125 32.59375 385.277344 31.160156 C 382.566406 29.640625 379.558594 29.964844 376.550781 29.832031 C 369.929688 29.539062 363.421875 30.210938 356.847656 30.65625 C 351.035156 31.050781 345.140625 29.246094 339.589844 32.605469 C 336.824219 34.277344 333.886719 33.535156 330.921875 32.59375 C 326.378906 31.148438 321.015625 30.421875 317.300781 32.796875 C 312.890625 35.613281 308.617188 35.375 304.058594 35.707031 C 290.832031 36.671875 277.503906 35.398438 264.328125 37.527344 C 257.054688 38.703125 249.742188 38.214844 242.453125 37.777344 C 236.796875 37.4375 231.4375 39.472656 225.902344 40.050781 C 217.351562 40.941406 209.339844 35.648438 200.835938 39.109375 C 198.898438 39.898438 195.757812 38.648438 195 36.273438 C 193.210938 30.695312 189.207031 31.746094 185.347656 32.628906 C 183.105469 33.144531 180.921875 34.667969 178.621094 33.726562 C 172.285156 31.121094 165.5 32.019531 158.960938 31.03125 C 146.800781 29.195312 134.449219 30.035156 122.210938 30.21875 C 117.503906 30.285156 111.464844 30.65625 109.558594 37.125 C 105.132812 48.363281 107.925781 54.070312 119.003906 54.726562 C 117.042969 58.027344 117.28125 61.625 116.34375 64.976562 C 115.847656 66.753906 114.621094 68.210938 113.996094 70.113281 C 112.378906 75.03125 108.472656 74.378906 103.53125 72.773438 C 96.839844 70.59375 90.539062 64.824219 82.21875 68.285156 C 90.9375 70.628906 90.9375 70.628906 90.328125 79.023438 C 90.257812 79.976562 89.886719 81.023438 90.167969 81.855469 C 90.683594 83.378906 92.300781 83.082031 93.542969 83.339844 C 93.386719 84.023438 93.226562 84.703125 93.070312 85.386719 C 88.511719 85.15625 84.230469 85.808594 80.789062 89.183594 C 67.683594 89.179688 59.394531 96.640625 52.789062 107.011719 C 56.90625 109.632812 59.363281 112.308594 53.542969 115.375 C 51.917969 116.230469 51.15625 117.480469 50.867188 119.167969 C 45.214844 121.140625 41.257812 123.59375 38.933594 125.691406 C 37.21875 127.242188 34.792969 128.28125 35.574219 131.117188 C 36.398438 134.121094 38.929688 134.644531 41.726562 135.15625 C 51.371094 136.917969 51.328125 137.03125 50.054688 146.375 C 49.878906 147.640625 49.652344 149.105469 50.097656 150.214844 C 51.417969 153.480469 50.546875 154.777344 47.085938 155.796875 C 39.835938 157.925781 39.914062 158.1875 41.578125 165.652344 C 41.578125 165.652344 41.367188 165.925781 41.367188 165.925781 C 39.027344 166.152344 36.441406 164.8125 33.65625 167.484375 C 36.417969 168.789062 38.824219 169.921875 41.222656 171.058594 C 43.09375 171.183594 44.964844 171.3125 46.835938 171.441406 C 47.003906 173.726562 46.105469 175.023438 43.746094 175.671875 C 41.25 176.355469 38.660156 177.089844 36.726562 179.050781 C 33.871094 178.992188 31.410156 179.964844 29.324219 181.898438 C 27.113281 181.328125 24.027344 179.542969 22.835938 180.398438 C 16.46875 184.964844 8.761719 185.59375 1.863281 188.464844 C 0.75 188.925781 -0.589844 189.972656 0.28125 191.5 C 0.644531 192.140625 2.070312 192.839844 2.640625 192.605469 C 13.113281 188.304688 23.378906 194.34375 33.785156 193.132812 C 38.222656 192.617188 39.558594 195.300781 39.003906 199.300781 C 39.816406 199.496094 40.480469 199.570312 41.03125 199.542969 C 40.480469 199.570312 39.816406 199.496094 39.003906 199.300781 C 34.5 200.347656 29.75 200.8125 25.539062 202.570312 C 17.847656 205.785156 8.980469 208.507812 10.90625 220.027344 C 11.050781 220.890625 10.113281 221.898438 10.589844 222.230469 C 17.742188 226.691406 25.542969 222.929688 32.980469 225.855469 C 30.550781 231.101562 27.597656 234.261719 21.914062 234.566406 C 20.007812 234.667969 16.035156 235.40625 18.125 238.535156 C 22.230469 244.6875 15.648438 246.226562 14.09375 248.824219 C 21.195312 255.292969 28.679688 254.140625 36.472656 251.585938 C 39.402344 250.625 42.757812 249.921875 45.726562 251.066406 C 46.535156 253.699219 41.742188 254.859375 44.945312 257.320312 C 44.578125 263.394531 52.378906 259.710938 54.148438 265.464844 C 48.652344 265.464844 43.976562 265.464844 39.300781 265.464844 C 37.820312 271.898438 37.882812 271.800781 44.375 273.78125 C 46.542969 274.441406 50.074219 275.597656 50.265625 276.917969 C 51.136719 282.949219 56.867188 283.363281 61.019531 286.589844 C 58.53125 288.875 54.964844 289.714844 55.058594 293.285156 C 54.265625 293.8125 53.472656 294.335938 52.679688 294.863281 C 48.484375 297.617188 44.1875 299.503906 38.867188 299.425781 C 33.847656 299.351562 29.007812 303.746094 28.917969 307.199219 C 28.820312 311.011719 31.699219 312.621094 38.667969 313.046875 C 40.832031 313.179688 43.609375 311.441406 45.160156 314.804688 C 42.933594 315.402344 40.707031 315.839844 38.59375 316.589844 C 33.238281 318.492188 31.503906 324.09375 28.515625 327.984375 C 25.6875 331.664062 32.007812 332.042969 34.039062 334.136719 C 34.835938 334.957031 34.789062 336.574219 35.171875 337.816406 C 36.289062 341.429688 37.425781 345.03125 38.789062 349.382812 C 44.023438 345.359375 49.929688 348.066406 55.507812 346.339844 C 54.378906 344.082031 53.015625 344.148438 51.265625 344.117188 C 47.648438 344.058594 49.800781 341.46875 49.746094 339.859375 C 58.769531 337.570312 67.910156 336.53125 77.214844 337.144531 C 77.609375 340.621094 74.355469 343.046875 72.65625 342.554688 C 64.902344 340.320312 63.339844 346.941406 59.644531 350.578125 C 58.398438 351.808594 57.597656 353.183594 57.449219 354.890625 C 57.074219 359.183594 54.230469 359.363281 50.992188 358.761719 C 49.707031 358.519531 48.484375 357.675781 47.222656 357.65625 C 43.957031 357.601562 37.980469 361.789062 38.183594 364.34375 C 38.582031 369.328125 43.53125 366.730469 46.0625 368.414062 C 47.875 369.617188 49.828125 367.992188 51.730469 367.660156 C 59.683594 366.257812 67.234375 367.65625 75.277344 371.105469 C 69.265625 376.082031 57.296875 371.847656 58.292969 384.476562 C 62.246094 385.703125 66.777344 380.503906 70.222656 385.5625 C 70.679688 386.230469 71.996094 385.515625 72.777344 384.820312 C 75.761719 382.160156 77.992188 382.984375 79.949219 386.21875 C 81.507812 388.804688 84.378906 388.734375 86.957031 389.140625 C 86.882812 384.40625 89.871094 384.679688 92.855469 385.964844 C 99.605469 388.875 104.917969 387.167969 109.257812 381.523438 C 110.511719 381.417969 111.765625 381.3125 113.015625 381.207031 C 117.671875 381.753906 123.074219 379.953125 126.765625 386.242188 C 122.59375 386.148438 119.207031 386.46875 116.257812 389.707031 C 114.324219 391.832031 108.722656 386.136719 106.40625 392.113281 C 109.144531 393.601562 112.019531 392.164062 114.394531 393.171875 C 119.976562 395.542969 128.382812 393.503906 129.566406 403.042969 C 129.839844 405.253906 132.816406 404.792969 134.742188 404.839844 C 138.503906 404.933594 141.710938 402.835938 145.25 402.03125 C 151.554688 400.597656 157.730469 397.644531 164.773438 400.207031 C 164.007812 403.648438 163.316406 406.773438 162.519531 410.351562 C 156.25 408.5 149.523438 414.105469 143.710938 408.335938 C 143.570312 408.199219 142.964844 408.300781 142.765625 408.492188 C 138.59375 412.554688 133.644531 411.234375 128.746094 410.679688 C 127.988281 410.59375 126.910156 411.371094 126.347656 412.054688 C 125.695312 412.84375 125.785156 413.925781 126.816406 414.59375 C 133.3125 418.808594 139.613281 423.507812 148.339844 422.832031 C 144.292969 420.578125 140.25 418.320312 136.207031 416.0625 C 144.609375 417.382812 153.558594 409.894531 160.9375 417.980469 C 166.324219 415.652344 172.425781 422.035156 177.816406 416.257812 C 179.75 414.183594 183.453125 415.160156 186.457031 415.664062 C 197.234375 417.472656 208.050781 418.957031 219.015625 418.980469 C 222 418.984375 224.886719 419.0625 227.824219 420.097656 C 238.644531 423.910156 249.875 423.078125 260.882812 421.632812 C 266.683594 420.871094 270.960938 421.421875 272.875 427.171875 C 273.984375 430.503906 276.164062 430.910156 278.882812 431.125 C 278.882812 431.125 278.96875 431.207031 278.964844 431.207031 C 286.847656 433.609375 294.632812 436.4375 302.640625 438.277344 C 309.117188 439.761719 315.890625 439.453125 322.507812 438.539062 C 324.429688 438.273438 326.414062 437.28125 325.367188 434.144531 C 321.742188 433.238281 317.929688 432.207031 314.078125 431.355469 C 311.996094 430.894531 309.910156 430.125 309.609375 427.980469 C 309.144531 424.648438 312.339844 424.8125 314.34375 424.058594 C 315.875 423.480469 317.53125 423.1875 319.15625 422.898438 C 331.410156 420.707031 343.425781 423.144531 355.453125 424.929688 C 359.128906 425.472656 361.289062 427.300781 360.792969 431.742188 C 360.035156 438.519531 361.816406 440.519531 368.363281 440.863281 C 371.285156 441.019531 374.347656 441.519531 377.175781 440.121094 C 376.664062 432.804688 376.664062 432.695312 383.050781 432.511719 C 385.222656 432.449219 386.761719 431.335938 388.554688 430.511719 C 392.953125 428.488281 398.054688 427.554688 402.058594 429.898438 C 414.152344 436.980469 426.632812 436.59375 439.59375 433.683594 C 443.132812 432.890625 447.367188 432.066406 449.957031 435.167969 C 453.3125 439.183594 457.414062 438.875 461.738281 438.910156 C 466.0625 438.949219 470.953125 437.90625 474.601562 439.550781 C 484.742188 444.113281 495.441406 442.074219 505.878906 444.1875 C 505.691406 443.039062 505.800781 442.164062 505.464844 441.929688 C 504.675781 441.386719 503.664062 441.167969 502.757812 440.785156 C 500.503906 439.839844 500.6875 437.886719 502.132812 436.949219 C 508.859375 432.585938 514.472656 425.070312 524.210938 428.511719 C 526.859375 429.445312 528.734375 428.3125 530.027344 426.027344 C 530.679688 424.875 531.199219 423.644531 531.792969 422.453125 C 532.910156 420.195312 534.472656 418.222656 537.1875 419.609375 C 539.359375 420.714844 539.023438 422.863281 537.964844 424.8125 C 537.648438 425.390625 537.4375 426.035156 537.066406 426.574219 C 534.980469 429.640625 537.886719 431.265625 538.941406 433.484375 C 540.996094 437.796875 542.554688 433.316406 544.320312 433.199219 C 548.640625 432.914062 552.875 432.425781 557.136719 433.902344 C 560.960938 435.226562 564.800781 435.355469 568.820312 433.90625 C 572.589844 432.546875 576.578125 433.292969 580.59375 433.640625 C 587.792969 434.269531 595.375 437.144531 602.167969 431.921875 C 583.484375 430 583.484375 430 578.625 423.070312 C 583.128906 422.523438 588.109375 423.507812 590.183594 417.570312 C 590.722656 416.027344 593.957031 415.597656 596.539062 415.929688 C 607.058594 417.285156 617.507812 419.449219 628.195312 419.203125 C 630.601562 419.144531 633.851562 419.484375 634.644531 421.210938 C 638.03125 428.574219 643.367188 425.0625 648.734375 425.203125 C 655.828125 425.382812 659.105469 420.042969 663.859375 417.195312 C 667.484375 415.023438 670.878906 412.289062 674.84375 410.523438 C 676.019531 410.226562 677.191406 409.929688 678.367188 409.628906 C 681.171875 411.425781 684.097656 411.640625 687.140625 410.308594 C 692.304688 410.675781 697.472656 411.046875 702.640625 411.417969 C 704.519531 414.949219 707.359375 417.683594 710.308594 420.261719 C 711.398438 421.214844 713.863281 422.785156 714.417969 420.832031 C 716.378906 413.9375 722.6875 415.535156 727.152344 413.578125 C 730.347656 414.023438 733.539062 414.472656 736.730469 414.921875 C 739.320312 417.785156 742.222656 416.796875 745.140625 415.613281 C 746.21875 415.851562 747.296875 416.09375 748.375 416.339844 C 748.449219 416.105469 748.507812 415.878906 748.546875 415.660156 C 748.507812 415.878906 748.449219 416.105469 748.375 416.339844 C 751.414062 418.832031 755.007812 419.203125 758.675781 418.71875 C 763.601562 418.066406 768.503906 418.960938 773.371094 418.753906 C 780.054688 418.46875 786.28125 421.355469 792.910156 420.914062 C 798.585938 420.535156 804.128906 420.34375 808.332031 425.367188 C 809.644531 426.9375 812.039062 427.417969 813.863281 426.765625 C 820.648438 424.328125 826.644531 427.523438 832.894531 428.984375 C 833.890625 430.171875 835.167969 430.796875 836.707031 430.902344 C 837.0625 432.046875 837.800781 432.652344 839.03125 432.582031 C 849.238281 437.4375 859 434.742188 868.683594 430.816406 C 874.167969 430.84375 879.171875 431.929688 882.933594 436.460938 C 886.460938 440.714844 891.328125 441.300781 896.449219 440.859375 C 897.726562 440.75 899.996094 440.40625 899.402344 439.160156 C 896.855469 433.820312 900.851562 435 903.363281 434.925781 C 907.679688 434.792969 912 434.886719 917.96875 434.886719 C 914.835938 433.140625 912.109375 432.480469 912.6875 429.605469 C 912.972656 428.183594 914.132812 427.46875 915.582031 427.347656 C 922.820312 426.742188 929.933594 427.933594 937.058594 428.917969 C 937.964844 429.042969 939.554688 429.6875 939.5625 430.105469 C 939.664062 439.109375 946.738281 436.148438 951.265625 436.621094 C 957.433594 437.261719 963.667969 435.25 969.9375 436.46875 C 970.800781 436.636719 971.585938 435.570312 971.421875 434.28125 C 968.554688 432.242188 963.914062 434.78125 961.648438 430.632812 C 963.082031 428.269531 964.546875 425.847656 966.386719 422.8125 C 975.679688 431.71875 986.5625 428.691406 997.089844 428.652344 C 997.507812 425.394531 995.414062 425.171875 994.210938 424.335938 C 991.820312 422.664062 988.332031 421.792969 986.984375 419.566406 C 984.5 415.480469 991.824219 415.09375 991.078125 413.46875 C 989.558594 410.15625 990.796875 408.972656 993.054688 407.527344 C 992.222656 407.640625 991.375 407.660156 990.511719 407.621094 C 991.375 407.660156 992.222656 407.640625 993.054688 407.527344 C 994.125 407.5 995.191406 407.472656 996.257812 407.445312 C 996.53125 407.417969 996.785156 407.421875 997.027344 407.460938 C 996.785156 407.421875 996.53125 407.417969 996.257812 407.445312 C 996.847656 408.398438 997.65625 408.878906 998.800781 408.640625 C 1000.019531 408.621094 1001.25 408.597656 1002.46875 408.578125 C 1009.378906 410.046875 1016.339844 408.441406 1023.28125 408.882812 C 1026.25 409.074219 1029.300781 408.753906 1032.199219 409.285156 C 1038.519531 410.449219 1041.421875 415.71875 1042.980469 420.898438 C 1044.101562 424.613281 1039.390625 426.25 1036.78125 428.382812 C 1042.789062 433.976562 1048.191406 436.3125 1054.011719 436.613281 C 1067.691406 437.328125 1081.371094 435.238281 1095.050781 436.710938 C 1096.570312 436.875 1098.410156 437.023438 1099.800781 434.625 C 1098.25 431.128906 1097.089844 426.144531 1092.261719 425.832031 C 1086.960938 425.484375 1082.988281 424.058594 1079.308594 420.234375 C 1077.441406 418.285156 1072.769531 420.324219 1071.648438 416.558594 C 1076.078125 411.53125 1082.320312 416.296875 1086.691406 412.667969 C 1089.988281 412.792969 1093.28125 412.921875 1096.570312 413.046875 C 1097.621094 409.933594 1099.199219 407.75 1101.328125 406.453125 C 1099.210938 407.75 1097.621094 409.933594 1096.570312 413.046875 C 1097.078125 413.4375 1097.640625 414.207031 1098.109375 414.15625 C 1112.621094 412.539062 1127.101562 412.273438 1141.539062 414.902344 C 1143.140625 415.195312 1144.488281 414.871094 1145.910156 413.5 C 1149.730469 409.796875 1163.140625 406.832031 1167.058594 410.015625 C 1170.808594 413.0625 1173.871094 410.03125 1176.078125 410.820312 C 1179.910156 412.183594 1183.019531 411.957031 1186.480469 410.972656 C 1188.03125 410.527344 1190.339844 410.179688 1190.859375 409.09375 C 1193.421875 403.761719 1197.980469 405.199219 1202.160156 405.222656 C 1204.511719 405.238281 1206.839844 405.292969 1208.621094 403.378906 C 1211.558594 403.324219 1214.488281 404.832031 1217.441406 403.472656 C 1221.839844 405.5625 1226.308594 407.503906 1230.601562 409.792969 C 1234.628906 411.941406 1240.53125 408.894531 1244.199219 414.585938 C 1241.398438 415.816406 1239.378906 416.992188 1237.199219 417.609375 C 1222.179688 421.867188 1206.71875 423.5625 1191.261719 425.144531 C 1188.578125 425.421875 1186.140625 424.992188 1183.660156 423.488281 C 1177.199219 419.558594 1170.121094 420.347656 1163.671875 422.988281 C 1160.96875 424.09375 1158.980469 423.960938 1156.390625 423.976562 C 1150.941406 424.003906 1145.148438 423.917969 1140.570312 427.738281 C 1133.058594 434.015625 1121.839844 434.621094 1113.921875 429.066406 C 1112.679688 428.191406 1112.078125 426.085938 1109.429688 426.894531 C 1108.28125 431.410156 1108.179688 434.207031 1114.679688 435.3125 C 1122.160156 436.585938 1129.300781 438.652344 1137.058594 437.195312 C 1140.898438 436.472656 1145.320312 436.355469 1148.949219 437.554688 C 1158.421875 440.679688 1168.191406 438.660156 1177.328125 438.113281 C 1186.589844 437.5625 1196.320312 435.976562 1205.660156 433.976562 C 1212.441406 432.527344 1217.910156 432.902344 1222.761719 438.457031 C 1225.910156 442.066406 1230.441406 443.382812 1235.308594 442.96875 C 1238.988281 442.652344 1242.628906 442.328125 1245.71875 445.089844 C 1246.410156 445.707031 1247.691406 446.421875 1248.359375 446.171875 C 1258.269531 442.484375 1267.109375 448.6875 1276.550781 449.082031 C 1278.238281 449.152344 1279.921875 449.484375 1279.628906 451.933594 C 1277.199219 454.371094 1274.03125 453.253906 1271.171875 453.515625 C 1268 453.804688 1265.421875 454.714844 1264.511719 457.964844 C 1278.71875 460.757812 1292.738281 460.457031 1307 459.132812 C 1320.960938 457.832031 1335.078125 457.402344 1349.339844 458.804688 C 1348.808594 454.390625 1344.28125 455.273438 1344.28125 451.097656 C 1350.769531 451.097656 1357.320312 450.644531 1363.78125 451.199219 C 1374.609375 452.128906 1385.230469 449.164062 1396.230469 450.769531 C 1403.878906 451.886719 1411.539062 448.941406 1415.148438 440.359375 C 1412.410156 438.859375 1408.660156 438.882812 1408.578125 440.65625 C 1408.28125 446.929688 1403.890625 444.625 1400.769531 445.417969 C 1395.75 446.691406 1390.511719 442.691406 1385.589844 446.328125 C 1384.210938 447.351562 1382.070312 447.175781 1381.179688 445.550781 C 1379.988281 443.398438 1381.441406 442.082031 1383.320312 440.839844 C 1389.019531 437.101562 1395.488281 434.625 1400.53125 429.734375 C 1401.878906 428.421875 1404.570312 427.191406 1407.039062 428.34375 C 1410.46875 429.941406 1413.488281 427.941406 1416.710938 427.480469 C 1420.859375 426.886719 1424.78125 425.09375 1429.351562 426.597656 C 1432.378906 427.597656 1436.269531 427.199219 1439.78125 422.417969 C 1427.839844 425.09375 1417.949219 420.710938 1407.628906 420.480469 C 1404.019531 420.402344 1400.539062 418.8125 1397.269531 417.09375 C 1396.03125 416.449219 1394.800781 415.71875 1394.960938 414.230469 C 1395.191406 412.203125 1396.898438 411.710938 1398.609375 411.667969 C 1400.25 411.628906 1402.050781 411.460938 1403.519531 412.023438 C 1409.75 414.414062 1415.980469 413.4375 1422.199219 412.277344 C 1423.820312 411.976562 1425.429688 411.023438 1427.039062 411.6875 C 1437.648438 416.085938 1448.761719 409.632812 1459.421875 413.1875 C 1460.25 413.464844 1461.488281 413.15625 1462.300781 412.695312 C 1463.039062 412.265625 1463.839844 411.324219 1463.949219 410.511719 C 1464.199219 408.726562 1463 408.519531 1461.460938 408.691406 C 1457.410156 409.132812 1453.25 410.089844 1448.320312 407.171875 C 1453.679688 404.074219 1458.980469 405.015625 1464.699219 402.617188 C 1459.320312 401.054688 1455.5 400.089844 1451.78125 398.816406 C 1448.890625 397.828125 1447.621094 395.5 1448.148438 392.507812 C 1448.660156 389.695312 1449.761719 388.078125 1453.460938 388.167969 C 1458.601562 388.292969 1463.679688 385.808594 1470.75 388.351562 C 1466.398438 382.855469 1469.820312 379.164062 1470.398438 375.140625 C 1471.050781 374.875 1471.699219 374.613281 1472.351562 374.351562 C 1474.398438 375.25 1476.480469 375.3125 1478.578125 374.585938 C 1482.398438 375.078125 1486.21875 375.246094 1489.988281 374.230469 C 1493.070312 376.34375 1496.300781 377.976562 1500.210938 377.285156 C 1501.46875 377.0625 1502.941406 377.101562 1503.390625 375.492188 C 1503.839844 373.886719 1502.730469 372.96875 1501.578125 372.375 C 1497.519531 370.300781 1493.390625 368.351562 1489.378906 366.398438 C 1490.101562 364.0625 1491.691406 363.160156 1493.28125 363.332031 C 1498.398438 363.886719 1502.960938 361.144531 1507.941406 361.113281 C 1512.050781 361.085938 1513.839844 358.660156 1514.421875 354.945312 C 1517.199219 355.933594 1520.351562 350.070312 1522.949219 355.394531 C 1523.089844 355.675781 1523.449219 357.65625 1523.75 356.1875 C 1525.230469 348.945312 1532.140625 347.738281 1536.871094 344.292969 C 1534.171875 340.972656 1528.558594 342.71875 1527.03125 337.085938 C 1534.269531 335.195312 1541.621094 338.03125 1549.410156 334.992188 C 1544.28125 333.578125 1540.328125 333.292969 1536.460938 332.207031 C 1529.199219 330.171875 1521.609375 329.203125 1514.101562 328.152344 C 1512.121094 327.875 1509.371094 330.554688 1508.328125 327.113281 C 1507.699219 325.011719 1505.558594 322.339844 1507.179688 320.566406 C 1510.148438 317.332031 1507.859375 315.675781 1505.75 314.472656 C 1503.53125 313.203125 1501.128906 312.121094 1498.558594 311.316406 C 1493.269531 309.660156 1487.628906 308.402344 1482.191406 304.128906 C 1487.738281 302.195312 1491.898438 300.171875 1496.75 302.039062 C 1500.898438 303.636719 1501.550781 299.824219 1503.371094 297.691406 C 1504.371094 296.535156 1504.539062 296.613281 1503.210938 295.226562 C 1498.980469 290.800781 1499.210938 290.472656 1504.121094 288.054688 C 1507.679688 286.300781 1511.46875 284.921875 1514.808594 282.828125 C 1521.449219 278.664062 1528.488281 278.390625 1535.820312 279.898438 C 1537.320312 280.203125 1538.878906 281.445312 1539.921875 278.367188 C 1530.109375 275.851562 1520.398438 273.367188 1510.691406 270.878906 C 1510.019531 268.414062 1509.851562 266.105469 1512.628906 264.734375 C 1514.53125 265.21875 1516.371094 265.128906 1518.101562 264.113281 C 1522.449219 265.738281 1524.910156 264.609375 1524.671875 259.578125 C 1524.671875 259.578125 1524.699219 259.535156 1524.699219 259.535156 C 1524.699219 259.53125 1524.699219 259.53125 1524.699219 259.53125 C 1528.320312 259.359375 1531.941406 259.148438 1535.570312 259.023438 C 1537.578125 258.953125 1540.089844 258.996094 1541.011719 257.289062 C 1543.019531 253.539062 1545.949219 252.585938 1549.851562 252.617188 C 1551.429688 252.628906 1553.089844 251.628906 1552.929688 249.527344 C 1552.789062 247.777344 1551.828125 246.28125 1550.171875 245.757812" fill="#dfb846"/></g><g id="change1_3"><path d="M 839.515625 25.082031 C 851.242188 23.589844 863.117188 29.289062 874.734375 24.285156 C 876.03125 23.726562 877.527344 23.503906 878.507812 24.421875 C 882.238281 27.917969 886.101562 27.167969 890.503906 25.804688 C 893.578125 24.851562 897.292969 24.832031 899.957031 27.332031 C 902.960938 30.148438 907.160156 28.242188 910.199219 30.390625 C 911.046875 30.988281 912.074219 31.464844 912.09375 30.136719 C 912.183594 24.269531 917.683594 24.566406 921.371094 21.890625 C 915.03125 17.449219 909.296875 13.109375 901.910156 19.699219 C 898.058594 23.144531 894.339844 20.890625 891.199219 18.34375 C 889.25 16.757812 887.714844 15.519531 885.09375 16.6875 C 872.984375 22.09375 860.460938 19.65625 848.011719 18.519531 C 845.382812 18.28125 842.769531 17.824219 840.140625 17.753906 C 837.777344 17.691406 835.222656 17.996094 835.003906 21.105469 C 834.792969 24.140625 837.019531 25.402344 839.515625 25.082031" fill="#dfb846"/></g><g id="change1_4"><path d="M 918.300781 447.929688 C 911.164062 447.273438 903.894531 445.355469 896.359375 448.449219 C 891.839844 450.304688 884.65625 451.351562 881.667969 446.136719 C 878.472656 440.5625 874.558594 441.394531 870.03125 441.65625 C 867.632812 441.792969 865.242188 441.867188 865.0625 445.15625 C 864.902344 448.136719 867.121094 448.972656 869.257812 449.988281 C 873.058594 451.789062 877.128906 450.78125 881.054688 451.246094 C 901.761719 453.691406 922.433594 456.617188 944.515625 455.625 C 938.125 449.3125 938.125 449.316406 932.03125 449.113281 C 927.421875 448.960938 922.832031 448.347656 918.300781 447.929688" fill="#dfb846"/></g><g id="change1_5"><path d="M 1205.730469 48.875 C 1212.050781 47.117188 1218.839844 47.730469 1225 45.027344 C 1224.160156 42.742188 1219.941406 43.839844 1220.738281 40.285156 C 1221.101562 38.6875 1220.261719 37.480469 1218.699219 37.945312 C 1214.109375 39.3125 1209.671875 38.023438 1205.148438 37.777344 C 1202.089844 37.613281 1198.828125 42.304688 1199.488281 45.585938 C 1200.179688 49.03125 1203.339844 49.539062 1205.730469 48.875" fill="#dfb846"/></g><g id="change1_6"><path d="M 697.582031 448.078125 C 704.003906 448.9375 711.039062 447.757812 714.324219 455.800781 C 715.191406 457.925781 719.539062 457.648438 720.597656 456.25 C 723.800781 452.015625 729.398438 453.523438 734.410156 448.71875 C 721.347656 446 709.480469 447.992188 697.582031 448.078125" fill="#dfb846"/></g><g id="change1_7"><path d="M 488.792969 27.402344 C 488.792969 27.40625 488.796875 27.414062 488.796875 27.417969 C 488.816406 27.4375 488.839844 27.457031 488.859375 27.476562 L 488.792969 27.402344" fill="#dfb846"/></g><g id="change1_8"><path d="M 1004.171875 453.394531 C 1010.421875 458.378906 1017.058594 458.714844 1053.851562 456.492188 C 1036.390625 452.0625 1020.789062 453.601562 1004.171875 453.394531" fill="#dfb846"/></g><g id="change1_9"><path d="M 1132.019531 57.089844 C 1135.289062 57.484375 1138.628906 57.101562 1141.808594 58.4375 C 1143.339844 59.082031 1145.238281 59.003906 1146 57.058594 C 1146.789062 55.011719 1146.410156 52.886719 1144.160156 52.136719 C 1137.921875 50.054688 1140.558594 45.992188 1142.351562 40.132812 C 1138.640625 44.890625 1138.128906 51.027344 1131.5 49.007812 C 1129.820312 48.496094 1129 51.589844 1129.148438 53.71875 C 1129.269531 55.582031 1130.058594 56.851562 1132.019531 57.089844" fill="#dfb846"/></g><g id="change1_10"><path d="M 1517.941406 317.289062 C 1523.851562 325.019531 1531.261719 327.019531 1540.46875 322.183594 C 1528.75 313.390625 1524.609375 312.507812 1517.941406 317.289062" fill="#dfb846"/></g><g id="change1_11"><path d="M 38.15625 259.195312 C 33.101562 258.414062 28.195312 258.191406 23.824219 262.679688 C 29.199219 265.886719 33.867188 268 39.320312 265.382812 C 39.320312 265.382812 39.253906 265.464844 39.253906 265.464844 C 39.269531 265.464844 39.285156 265.464844 39.300781 265.464844 C 39.308594 265.441406 39.3125 265.421875 39.316406 265.402344 C 41.914062 262.8125 44.640625 260.195312 38.15625 259.195312" fill="#dfb846"/></g><g id="change1_12"><path d="M 72.265625 63.535156 C 82.300781 62.769531 92.445312 61.960938 101.65625 57.089844 C 90.847656 54.21875 82.121094 61.429688 72.265625 63.535156" fill="#dfb846"/></g><g id="change1_13"><path d="M 1332.121094 469.851562 C 1343.53125 472.164062 1350.351562 471.488281 1357.210938 467.363281 C 1351.769531 465.753906 1336.039062 467.3125 1332.121094 469.851562" fill="#dfb846"/></g><g id="change1_14"><path d="M 518.265625 442.628906 C 526.664062 440.203125 534.628906 447.800781 544.261719 443.355469 C 529.539062 438.394531 524.359375 438.167969 518.265625 442.628906" fill="#dfb846"/></g><g id="change1_15"><path d="M 908.566406 465.417969 C 910.101562 466.597656 911.78125 466.757812 912.246094 464.527344 C 912.664062 462.519531 911.027344 461.574219 909.246094 461.550781 C 902.539062 461.464844 895.824219 461.515625 889.113281 461.515625 C 895.84375 466.300781 895.882812 466.414062 903.335938 463.917969 C 905.679688 463.128906 907 464.214844 908.566406 465.417969" fill="#dfb846"/></g><g clip-path="url(#b)" id="change1_27"><path d="M 900.65625 476.367188 C 909.339844 477.550781 915.84375 482.71875 924.582031 477.167969 C 916.351562 474.671875 909.621094 473.078125 900.65625 476.367188" fill="#dfb846"/></g><g id="change1_16"><path d="M 44.164062 285.863281 C 44.628906 285.183594 44.425781 284.050781 44.648438 282.097656 C 42.621094 282.453125 41.683594 282.566406 40.769531 282.789062 C 36.960938 283.710938 32.882812 284.332031 32.144531 289.269531 C 32.082031 289.707031 32.765625 290.644531 33.195312 290.707031 C 37.839844 291.40625 41.539062 289.703125 44.164062 285.863281" fill="#dfb846"/></g><g id="change1_17"><path d="M 477.679688 469.515625 C 472.757812 469.378906 467.832031 469.285156 462.910156 469.175781 C 463.152344 471.53125 459.28125 470.386719 459.605469 472.722656 C 465.570312 473.679688 471.570312 472.488281 477.441406 473.945312 C 478.789062 474.277344 480.054688 473.625 480.101562 471.90625 C 480.144531 470.300781 479.1875 469.554688 477.679688 469.515625" fill="#dfb846"/></g><g id="change1_18"><path d="M 462.832031 469.171875 C 462.859375 469.171875 462.882812 469.175781 462.910156 469.175781 C 462.90625 469.144531 462.910156 469.121094 462.90625 469.089844 L 462.832031 469.171875" fill="#dfb846"/></g><g id="change1_19"><path d="M 479.734375 457.949219 C 488.121094 458.917969 496.269531 462.777344 505.867188 460.328125 C 496.882812 455.347656 488.1875 458.125 479.734375 457.949219" fill="#dfb846"/></g><g id="change1_20"><path d="M 827.777344 465.160156 C 826.761719 467.773438 828.816406 468.921875 830.941406 468.75 C 834.597656 468.453125 837.738281 471.472656 841.855469 469.285156 C 838.644531 467.472656 836.035156 465.011719 832.898438 463.535156 C 831.171875 462.726562 828.628906 462.960938 827.777344 465.160156" fill="#dfb846"/></g><g id="change1_21"><path d="M 101.894531 392.90625 C 95.394531 389.257812 95.355469 389.242188 87.066406 389.230469 C 90.070312 396.871094 95.875 391.863281 101.894531 392.90625" fill="#dfb846"/></g><g id="change1_22"><path d="M 87.03125 389.152344 L 86.957031 389.230469 C 86.996094 389.230469 87.027344 389.230469 87.066406 389.230469 C 87.054688 389.203125 87.042969 389.179688 87.03125 389.152344" fill="#dfb846"/></g><g id="change1_23"><path d="M 462.832031 469.171875 L 462.90625 469.089844 C 462.839844 469.070312 462.785156 469.058594 462.722656 469.042969 C 462.761719 469.085938 462.796875 469.128906 462.832031 469.171875" fill="#dfb846"/></g><g id="change1_24"><path d="M 462.722656 469.042969 C 461.136719 467.097656 459.535156 465.148438 457.492188 462.652344 C 458.417969 467.820312 458.4375 467.898438 462.722656 469.042969" fill="#dfb846"/></g><g id="change1_25"><path d="M 552.207031 441.726562 C 551.421875 441.726562 549.886719 441.535156 550.738281 443.097656 C 551.105469 443.765625 552.292969 443.984375 552.914062 444.304688 C 554.164062 443.855469 555.21875 443.242188 554.855469 442.257812 C 554.6875 441.804688 553.136719 441.730469 552.207031 441.726562" fill="#dfb846"/></g><g id="change1_26"><path d="M 488.792969 27.402344 L 488.859375 27.476562 C 489.003906 27.253906 489.148438 27.03125 489.292969 26.8125 C 489.125 27.007812 488.960938 27.203125 488.792969 27.402344" fill="#dfb846"/></g></g></svg>