<?xml version="1.0" encoding="UTF-8" standalone="no"?><svg xmlns="http://www.w3.org/2000/svg" xmlns:xlink="http://www.w3.org/1999/xlink" fill="#000000" height="412.5" preserveAspectRatio="xMidYMid meet" version="1" viewBox="-0.4 0.0 1464.4 412.5" width="1464.4" zoomAndPan="magnify"><defs><clipPath id="a"><path d="M 13 0 L 1464 0 L 1464 412.460938 L 13 412.460938 Z M 13 0"/></clipPath></defs><g><g id="change1_1"><path d="M 56.152344 154.890625 C 56.957031 155.152344 58.035156 155.085938 59.265625 154.8125 C 58.152344 154.714844 57.105469 154.722656 56.152344 154.890625" fill="#4e705f"/></g><g clip-path="url(#a)" id="change1_31"><path d="M 1113.550781 221.011719 C 1113.378906 221.019531 1113.21875 221.03125 1113.050781 221.042969 C 1113.21875 221.03125 1113.378906 221.019531 1113.550781 221.011719 C 1113.960938 220.253906 1114.339844 219.90625 1114.679688 219.949219 C 1114.339844 219.90625 1113.960938 220.253906 1113.550781 221.011719 Z M 1103.789062 189.503906 C 1104.539062 190.277344 1105.320312 190.789062 1106.109375 191.097656 C 1105.320312 190.789062 1104.539062 190.277344 1103.789062 189.503906 Z M 1104.429688 172.074219 C 1104.300781 171.996094 1104.039062 171.894531 1103.839844 171.800781 C 1104.039062 171.894531 1104.300781 171.996094 1104.429688 172.074219 Z M 1101.769531 169.703125 C 1100.441406 169.652344 1099.179688 169.753906 1097.96875 170.089844 C 1099.179688 169.753906 1100.441406 169.652344 1101.769531 169.703125 Z M 1084.898438 226.972656 L 1084.898438 226.96875 C 1085.441406 226.671875 1085.980469 226.367188 1086.519531 226.066406 C 1085.980469 226.367188 1085.441406 226.671875 1084.898438 226.972656 Z M 1083.371094 225.964844 C 1083.410156 225.992188 1083.449219 226.019531 1083.488281 226.046875 C 1083.449219 226.019531 1083.410156 225.992188 1083.371094 225.964844 Z M 1082.609375 133.222656 C 1082.230469 133.023438 1081.839844 132.710938 1081.460938 132.566406 C 1081.839844 132.710938 1082.230469 133.023438 1082.621094 133.222656 C 1082.609375 133.222656 1082.609375 133.222656 1082.609375 133.222656 Z M 1063.839844 151.925781 C 1063.800781 152.011719 1063.769531 152.121094 1063.730469 152.226562 C 1063.769531 152.121094 1063.800781 152.011719 1063.839844 151.925781 Z M 1034.730469 183.585938 C 1034.851562 183.53125 1034.980469 183.488281 1035.109375 183.4375 C 1034.980469 183.488281 1034.851562 183.53125 1034.730469 183.585938 Z M 1026.808594 226.15625 C 1026.828125 226.046875 1026.839844 225.832031 1026.859375 225.695312 C 1026.441406 225.621094 1026.019531 225.464844 1025.609375 225.425781 C 1026.019531 225.464844 1026.441406 225.621094 1026.859375 225.695312 C 1026.839844 225.832031 1026.828125 226.046875 1026.808594 226.15625 Z M 1018.890625 197.390625 C 1021.070312 197.238281 1022.960938 197.976562 1024.859375 198.804688 C 1022.960938 197.976562 1021.070312 197.238281 1018.890625 197.390625 Z M 987.378906 175.671875 C 990.769531 174.355469 995.359375 173.789062 1000.101562 174.085938 C 995.363281 173.789062 990.773438 174.355469 987.378906 175.671875 Z M 987.300781 175.675781 C 986.367188 175.542969 985.4375 175.425781 984.511719 175.273438 C 985.4375 175.425781 986.371094 175.542969 987.300781 175.675781 Z M 979.492188 142.1875 C 979.707031 142.78125 979.902344 143.027344 980.050781 142.914062 C 979.902344 143.027344 979.707031 142.78125 979.492188 142.1875 Z M 977.363281 142.074219 C 978.019531 142.109375 978.683594 142.085938 979.339844 142.089844 C 979.339844 142.09375 979.339844 142.09375 979.339844 142.09375 C 978.683594 142.085938 978.019531 142.109375 977.363281 142.074219 Z M 964.355469 96.605469 C 964.359375 96.605469 964.359375 96.605469 964.359375 96.605469 C 964.558594 96.949219 964.71875 97.453125 964.9375 97.726562 C 964.71875 97.453125 964.558594 96.949219 964.355469 96.605469 Z M 958.9375 96.785156 C 958.664062 96.398438 958.429688 95.796875 958.113281 95.601562 C 958.429688 95.800781 958.664062 96.398438 958.941406 96.78125 C 958.9375 96.78125 958.9375 96.785156 958.9375 96.785156 Z M 987.898438 317.203125 C 987.539062 318.226562 988.136719 318.933594 989.210938 319.179688 C 989.6875 318.953125 990.414062 318.820312 990.6875 318.519531 C 990.414062 318.820312 989.6875 318.957031 989.210938 319.183594 C 988.136719 318.933594 987.539062 318.226562 987.898438 317.203125 Z M 998.105469 316.792969 C 998.140625 316.839844 998.179688 316.894531 998.214844 316.949219 C 998.179688 316.894531 998.140625 316.839844 998.105469 316.792969 Z M 1022.488281 323.4375 C 1022.550781 324.429688 1022.050781 324.957031 1021.25 325.121094 C 1022.050781 324.957031 1022.550781 324.429688 1022.488281 323.4375 Z M 889.078125 180.621094 C 888.832031 180.496094 888.585938 180.328125 888.339844 180.1875 C 888.585938 180.328125 888.832031 180.496094 889.078125 180.621094 Z M 886.125 180.617188 C 886.125 180.617188 886.128906 180.617188 886.128906 180.617188 C 886.496094 180.804688 886.863281 181.09375 887.230469 181.226562 C 886.863281 181.09375 886.492188 180.800781 886.125 180.617188 Z M 870.878906 92.773438 C 870.15625 92.789062 869.363281 92.734375 868.605469 92.765625 C 869.363281 92.734375 870.15625 92.789062 870.878906 92.773438 Z M 836.554688 121.039062 C 836.929688 120.46875 837.199219 119.785156 837.492188 119.132812 C 837.199219 119.785156 836.929688 120.46875 836.554688 121.039062 Z M 823.191406 360.636719 C 823.429688 360.441406 823.664062 360.207031 823.898438 360.042969 C 823.898438 360.042969 823.898438 360.042969 823.902344 360.046875 C 823.664062 360.207031 823.429688 360.441406 823.191406 360.636719 Z M 774.195312 150.035156 C 774.195312 150.03125 774.195312 150.03125 774.195312 150.03125 C 776.132812 149.960938 778.070312 149.859375 780.011719 149.757812 C 778.070312 149.859375 776.132812 149.960938 774.195312 150.035156 Z M 772.214844 136.984375 C 772.605469 136.265625 773.476562 136.339844 774.238281 136.253906 C 774.757812 136.335938 775.398438 136.300781 775.804688 136.546875 C 775.398438 136.304688 774.761719 136.335938 774.242188 136.257812 C 773.480469 136.339844 772.605469 136.265625 772.214844 136.984375 Z M 752.242188 109.726562 C 752.242188 109.726562 752.242188 109.726562 752.246094 109.726562 C 753.285156 110.921875 755.503906 110.253906 756.769531 111.679688 C 755.503906 110.253906 753.277344 110.925781 752.242188 109.726562 Z M 743.75 110.085938 C 743.710938 109.949219 743.714844 109.820312 743.757812 109.699219 C 743.714844 109.820312 743.710938 109.949219 743.75 110.085938 Z M 731.335938 129.28125 C 730.953125 129.078125 730.566406 128.757812 730.183594 128.617188 C 730.566406 128.757812 730.953125 129.078125 731.339844 129.277344 C 731.339844 129.277344 731.335938 129.277344 731.335938 129.28125 Z M 729.414062 117.238281 C 729.21875 117.148438 729.019531 117.0625 728.824219 116.976562 C 729.019531 117.0625 729.21875 117.148438 729.414062 117.238281 Z M 716.941406 148.0625 C 717.003906 148.613281 717.097656 149.078125 717.222656 149.46875 C 717.097656 149.078125 717.003906 148.613281 716.941406 148.0625 Z M 703.167969 337.425781 C 703.636719 337.269531 703.914062 337.121094 703.988281 336.988281 C 703.914062 337.121094 703.636719 337.273438 703.167969 337.425781 Z M 698.132812 339.496094 C 699.933594 339.480469 701.667969 339.121094 703.109375 337.457031 C 703.113281 337.457031 703.113281 337.457031 703.113281 337.457031 C 701.667969 339.121094 699.933594 339.480469 698.132812 339.496094 Z M 698.570312 116.871094 C 698.410156 116.476562 698.324219 115.953125 698.128906 115.625 C 698.324219 115.953125 698.410156 116.480469 698.570312 116.871094 Z M 689.871094 346.253906 C 689.492188 346.066406 689.113281 345.769531 688.738281 345.636719 C 689.117188 345.769531 689.496094 346.066406 689.871094 346.253906 Z M 664.539062 113.472656 C 664.796875 113.394531 665.019531 113.148438 665.175781 112.773438 C 664.988281 112.382812 664.867188 111.863281 664.648438 111.539062 C 664.867188 111.863281 664.988281 112.382812 665.179688 112.769531 C 665.019531 113.148438 664.796875 113.394531 664.539062 113.472656 Z M 660.726562 364.757812 C 661.589844 364.777344 662.351562 364.429688 662.792969 363.40625 C 662.628906 363.019531 662.527344 362.445312 662.339844 362.132812 C 662.527344 362.445312 662.628906 363.019531 662.792969 363.40625 C 662.351562 364.429688 661.589844 364.777344 660.726562 364.757812 Z M 652.214844 178.367188 C 652.113281 178.246094 652.003906 178.019531 651.890625 177.703125 C 652 177.753906 652.128906 177.804688 652.242188 177.855469 C 652.128906 177.804688 652 177.753906 651.890625 177.703125 C 652.003906 178.019531 652.113281 178.246094 652.214844 178.367188 Z M 651.8125 177.605469 C 648.695312 177.691406 645.628906 177.71875 642.515625 178.339844 C 645.628906 177.71875 648.695312 177.691406 651.816406 177.605469 C 651.816406 177.605469 651.816406 177.605469 651.8125 177.605469 Z M 648.933594 120.609375 C 648.933594 120.609375 648.933594 120.609375 648.933594 120.613281 C 648.429688 120.871094 647.925781 121.128906 647.421875 121.390625 C 647.925781 121.128906 648.429688 120.871094 648.933594 120.609375 Z M 650.4375 121.386719 C 650.183594 121.515625 649.933594 121.695312 649.683594 121.84375 C 649.933594 121.695312 650.183594 121.515625 650.4375 121.386719 Z M 621.242188 169.636719 C 621.789062 169.363281 622.332031 169.089844 622.878906 168.816406 C 622.332031 169.089844 621.789062 169.363281 621.242188 169.636719 Z M 619.683594 168.691406 C 619.957031 168.558594 620.234375 168.367188 620.511719 168.210938 C 620.234375 168.367188 619.957031 168.558594 619.683594 168.691406 Z M 591.164062 354.195312 C 590.773438 353.988281 590.382812 353.65625 589.996094 353.507812 C 590.382812 353.65625 590.777344 353.988281 591.167969 354.195312 C 591.164062 354.195312 591.164062 354.195312 591.164062 354.195312 Z M 576.191406 171.472656 C 577.179688 170.59375 578.011719 169.28125 578.800781 167.804688 C 578.011719 169.28125 577.179688 170.59375 576.191406 171.472656 Z M 567.644531 370.65625 C 568.332031 370.769531 568.964844 370.628906 569.484375 370.175781 C 568.96875 370.628906 568.332031 370.769531 567.644531 370.65625 Z M 515.460938 347.019531 C 516.003906 346.871094 516.484375 346.519531 516.886719 345.914062 C 516.75 345.503906 516.703125 344.921875 516.535156 344.574219 C 516.703125 344.921875 516.753906 345.503906 516.886719 345.914062 C 516.488281 346.519531 516.003906 346.871094 515.460938 347.019531 Z M 481.976562 394.554688 C 480.742188 394.601562 479.511719 394.652344 478.28125 394.703125 C 479.511719 394.652344 480.742188 394.601562 481.972656 394.550781 C 482.335938 393.742188 482.886719 393.222656 483.644531 393.03125 C 482.886719 393.222656 482.335938 393.742188 481.976562 394.554688 Z M 466.914062 153.066406 C 466.660156 152.925781 466.410156 152.730469 466.15625 152.570312 C 466.410156 152.730469 466.660156 152.925781 466.914062 153.066406 Z M 465.308594 153.785156 C 465.761719 153.585938 466.210938 153.382812 466.664062 153.179688 C 466.210938 153.382812 465.761719 153.585938 465.308594 153.785156 Z M 463.78125 152.933594 C 463.890625 152.882812 464 152.824219 464.109375 152.765625 C 464 152.824219 463.890625 152.882812 463.78125 152.933594 Z M 450.601562 393.792969 C 450.035156 394.207031 449.460938 394.511719 448.882812 394.726562 C 449.460938 394.511719 450.035156 394.207031 450.601562 393.792969 C 450.664062 393.425781 450.746094 393.128906 450.847656 392.890625 C 450.746094 393.128906 450.664062 393.425781 450.601562 393.792969 C 451.4375 393.550781 452.277344 393.308594 453.109375 393.0625 C 452.746094 392.695312 452.414062 392.441406 452.121094 392.304688 C 452.414062 392.441406 452.746094 392.695312 453.109375 393.0625 C 453.109375 393.0625 453.113281 393.0625 453.113281 393.0625 C 452.277344 393.308594 451.4375 393.550781 450.601562 393.792969 Z M 440.550781 394.402344 C 436.886719 395.179688 433.097656 394.269531 429.410156 394.027344 C 433.097656 394.269531 436.886719 395.179688 440.550781 394.402344 C 441.359375 392.808594 443.816406 392.890625 445.167969 391.78125 C 443.816406 392.890625 441.359375 392.808594 440.550781 394.402344 Z M 405.230469 90.734375 C 405.503906 90.648438 405.890625 90.707031 406.253906 90.75 C 405.890625 90.707031 405.503906 90.648438 405.230469 90.734375 Z M 403.699219 94.164062 C 404.613281 93.566406 404.917969 92.082031 405.09375 90.835938 C 405.09375 90.835938 405.097656 90.835938 405.097656 90.835938 C 404.917969 92.082031 404.613281 93.566406 403.699219 94.164062 Z M 393.242188 394.707031 C 394.191406 394.035156 395.160156 393.558594 396.140625 393.226562 C 395.160156 393.558594 394.191406 394.035156 393.242188 394.707031 Z M 383.375 394.421875 C 382.070312 394.480469 380.765625 394.539062 379.460938 394.601562 C 378.316406 393.359375 377.199219 392.96875 376.09375 393.003906 C 377.199219 392.96875 378.316406 393.359375 379.460938 394.601562 C 380.765625 394.539062 382.070312 394.480469 383.375 394.417969 C 385.222656 392.621094 386.996094 392.199219 388.65625 393.890625 C 386.996094 392.199219 385.222656 392.621094 383.375 394.421875 Z M 376.96875 202.132812 C 376.722656 202.664062 376.480469 203.195312 376.238281 203.726562 C 376.480469 203.195312 376.726562 202.664062 376.96875 202.132812 Z M 378.515625 202.761719 C 378.542969 202.773438 378.570312 202.785156 378.59375 202.792969 C 378.472656 203.058594 378.382812 203.398438 378.269531 203.691406 C 378.382812 203.398438 378.472656 203.058594 378.59375 202.792969 C 378.566406 202.785156 378.542969 202.773438 378.515625 202.761719 Z M 375.542969 153.949219 C 374.617188 153.289062 373.691406 152.789062 372.769531 152.433594 C 373.691406 152.789062 374.617188 153.289062 375.542969 153.949219 Z M 338.121094 169.773438 C 345.464844 169.6875 352.804688 169.628906 360.148438 169.628906 C 352.804688 169.628906 345.464844 169.6875 338.121094 169.773438 Z M 353.34375 402.242188 C 353.488281 401.871094 353.601562 401.433594 353.671875 400.917969 C 349.59375 398.480469 345.152344 398.222656 340.226562 398.199219 C 345.152344 398.222656 349.597656 398.480469 353.671875 400.914062 C 353.601562 401.433594 353.488281 401.867188 353.34375 402.242188 Z M 337.945312 112.605469 C 337.6875 112.289062 337.429688 111.972656 337.167969 111.660156 C 337.429688 111.972656 337.6875 112.289062 337.945312 112.605469 C 337.945312 112.605469 337.992188 112.558594 338.035156 112.515625 C 337.992188 112.558594 337.945312 112.605469 337.945312 112.605469 Z M 341.78125 117.195312 C 341.644531 117.292969 341.511719 117.386719 341.378906 117.464844 C 341.511719 117.386719 341.644531 117.292969 341.78125 117.195312 Z M 344.582031 117.449219 C 344.582031 117.449219 344.582031 117.449219 344.578125 117.449219 C 344.183594 117.214844 343.78125 116.847656 343.386719 116.679688 C 343.785156 116.847656 344.183594 117.21875 344.582031 117.449219 Z M 320.265625 104.675781 C 321.507812 109.15625 322.691406 111.835938 324.40625 112.960938 C 322.691406 111.835938 321.507812 109.15625 320.265625 104.675781 Z M 316.511719 118.953125 C 316.117188 119.136719 315.585938 119.253906 315.253906 119.472656 C 315.585938 119.253906 316.117188 119.136719 316.511719 118.949219 C 316.78125 119.089844 316.980469 119.261719 317.09375 119.449219 C 316.980469 119.261719 316.78125 119.089844 316.511719 118.953125 Z M 320.355469 104.570312 C 320.476562 104.53125 320.578125 104.488281 320.671875 104.449219 C 320.578125 104.488281 320.476562 104.53125 320.355469 104.570312 Z M 273.925781 280.019531 C 274.941406 280.042969 275.722656 279.480469 275.992188 278.40625 C 275.992188 278.40625 275.992188 278.410156 275.992188 278.410156 C 275.726562 279.480469 274.941406 280.042969 273.925781 280.019531 Z M 254.664062 392.765625 C 254.734375 392.117188 254.976562 391.390625 255.121094 390.707031 L 255.125 390.707031 C 254.976562 391.390625 254.734375 392.117188 254.664062 392.765625 Z M 232.089844 304.613281 C 233.070312 304.941406 233.9375 305.507812 234.378906 306.332031 C 233.9375 305.507812 233.070312 304.941406 232.089844 304.613281 Z M 232.753906 280.644531 L 232.75 280.644531 C 232.601562 280.257812 232.523438 279.742188 232.335938 279.414062 C 232.523438 279.742188 232.601562 280.257812 232.753906 280.644531 Z M 204.816406 383.277344 C 205.101562 383.027344 205.234375 382.578125 205.191406 381.976562 C 204.554688 380.574219 203.613281 379.695312 202.1875 380.03125 C 203.613281 379.695312 204.554688 380.574219 205.195312 381.972656 C 205.234375 382.578125 205.101562 383.027344 204.816406 383.277344 Z M 1461.230469 61.765625 C 1459.820312 60.933594 1458.140625 60.410156 1456.96875 59.324219 C 1454.570312 57.097656 1458.96875 56.734375 1458.371094 56.339844 C 1456.929688 55.402344 1454.96875 55.273438 1453.21875 54.808594 C 1447.339844 53.230469 1440.179688 54.792969 1436.378906 47.910156 C 1436.089844 47.371094 1434.460938 47.703125 1433.570312 47.328125 C 1427.898438 44.90625 1421.910156 45.925781 1416.039062 45.605469 C 1410.539062 45.304688 1404.710938 46.175781 1400.730469 40.777344 C 1399.730469 39.417969 1397.800781 39.261719 1396.160156 39.414062 C 1385.449219 40.414062 1375.699219 36.152344 1365.621094 33.808594 C 1363.378906 33.289062 1360.109375 34.714844 1359 30.546875 C 1366.351562 25.890625 1375.449219 27.710938 1383.671875 24.296875 C 1374.671875 23.308594 1365.921875 24.730469 1358.011719 20.332031 C 1356.710938 19.605469 1354.78125 20.050781 1353.148438 19.882812 C 1346.308594 19.183594 1339.25 19.292969 1332.710938 17.5 C 1326.628906 15.832031 1320.328125 16.367188 1314.320312 14.367188 C 1310.839844 13.214844 1308.640625 10.148438 1304.71875 9.710938 C 1281.640625 7.109375 1258.671875 3.585938 1235.328125 3.675781 C 1225.191406 3.714844 1215.019531 2.925781 1204.910156 1.996094 C 1195.339844 1.117188 1185.671875 -2.96875 1176.691406 3.976562 C 1168.710938 1.902344 1160.609375 6.191406 1152.539062 3.347656 C 1148.050781 1.769531 1143.210938 1.132812 1139.039062 5.015625 C 1143.128906 7.671875 1147.96875 7.046875 1152.660156 8.84375 C 1149.578125 12.855469 1145.851562 12.085938 1142.5 11.414062 C 1139.578125 10.828125 1136.75 10.121094 1133.75 10.488281 C 1120.738281 12.085938 1107.660156 12.332031 1094.601562 11.863281 C 1088.878906 11.660156 1081.96875 14.398438 1078.121094 7 C 1077.738281 6.277344 1075.691406 6.191406 1074.421875 6.195312 C 1065.550781 6.226562 1056.578125 5.570312 1047.828125 6.640625 C 1034.890625 8.222656 1021.839844 7.539062 1009.039062 7.386719 C 998.515625 7.261719 987.546875 6.351562 976.84375 5.492188 C 970.628906 4.996094 964.039062 2.878906 957.757812 4.734375 C 952.234375 6.367188 946.722656 6.269531 941.164062 6.085938 C 915.921875 5.242188 890.679688 6.339844 865.394531 5.277344 C 846.324219 4.476562 827.066406 7.554688 807.832031 7.792969 C 804.933594 7.828125 802.570312 10.363281 799.3125 9.386719 C 788.984375 6.289062 778.574219 8.007812 768.191406 9.183594 C 767.226562 9.292969 765.816406 9.96875 765.371094 9.554688 C 761.320312 5.828125 757.945312 6.117188 752.910156 8.761719 C 750.738281 9.902344 746.335938 9.960938 742.941406 10.859375 C 737.921875 12.179688 732.777344 13.691406 727.65625 13.808594 C 719.050781 14.003906 710.574219 14.160156 701.988281 15.570312 C 694.644531 16.773438 686.433594 17.34375 679.488281 15.261719 C 668.902344 12.089844 658.351562 13.078125 647.792969 12.234375 C 642.726562 11.832031 637.320312 12.621094 633.679688 15.585938 C 628.65625 19.679688 624.707031 13.011719 620.050781 15.738281 C 616.066406 18.070312 611.640625 17.835938 606.917969 16.363281 C 603.347656 15.25 598.828125 15.335938 595.226562 16.464844 C 577.484375 22.015625 558.871094 20.214844 540.761719 23.179688 C 524.847656 25.789062 508.214844 27.222656 491.746094 25.847656 C 488.820312 25.601562 485.789062 25.769531 482.890625 26.246094 C 467.375 28.792969 451.78125 30.226562 436.046875 29.902344 C 427.441406 29.722656 418.707031 25.914062 410.25 31.222656 C 408.984375 32.015625 406.457031 30.941406 404.550781 30.539062 C 400.007812 29.589844 395.15625 28.691406 390.894531 29.980469 C 386.757812 31.230469 383.199219 29.796875 379.390625 29.828125 C 378.113281 29.789062 376.835938 29.75 375.558594 29.710938 C 372.371094 29.390625 368.988281 29.648438 366.03125 28.652344 C 354.890625 24.902344 345.890625 32.539062 335.75 33.921875 C 335.546875 33.949219 335.410156 34.441406 335.246094 34.722656 C 334.222656 35.03125 333.199219 35.34375 332.179688 35.65625 C 331.46875 35.792969 330.761719 35.933594 330.050781 36.070312 C 320.0625 36.734375 310.070312 37.453125 300.074219 38.039062 C 294.304688 38.378906 288.425781 37.445312 282.824219 39.621094 C 273.5625 40.109375 264.347656 35.675781 255.015625 39.65625 C 246.863281 43.140625 238.144531 41.519531 229.699219 41.496094 C 218.640625 41.46875 207.476562 43.21875 196.523438 40.394531 C 195.605469 40.15625 194.996094 39.609375 194.210938 40.488281 C 187.765625 47.6875 178.5625 44.855469 170.6875 46.851562 C 169.589844 47.128906 168.152344 45.980469 167.199219 47.457031 C 162.46875 54.78125 154.058594 53.402344 147.242188 55.523438 C 143.371094 56.726562 138.671875 59.308594 134.875 56.941406 C 130.96875 54.503906 127.402344 55.34375 123.675781 55.789062 C 119.09375 56.339844 115.824219 53.246094 111.964844 52.296875 C 108.105469 51.351562 104.492188 56.238281 99.882812 55.238281 C 99.558594 55.167969 99.21875 55.152344 98.917969 55.035156 C 94.496094 53.335938 89.84375 53.839844 85.273438 53.621094 C 82.015625 53.464844 78.519531 52.660156 75.578125 54.238281 C 72.707031 55.777344 76 59.054688 74.335938 61.4375 C 72.859375 63.546875 72.105469 66.144531 70.949219 68.488281 C 70.355469 69.691406 69.089844 71.214844 68.03125 70.65625 C 62.808594 67.917969 60.410156 72.378906 56.925781 74.417969 C 53.417969 76.472656 49.238281 79.734375 47.183594 72.558594 C 46.726562 70.964844 44.839844 71.046875 43.859375 71.746094 C 42.332031 72.835938 40.152344 74.449219 40.132812 75.859375 C 40.113281 77.707031 43.953125 75.613281 44.617188 78.394531 C 43.644531 79.167969 42.539062 79.886719 41.617188 80.796875 C 36.019531 86.332031 36.914062 89.015625 44.800781 91.542969 C 46.398438 92.054688 48.789062 92.355469 49.078125 94.882812 C 43.550781 98.859375 37.226562 100.632812 31.152344 99.394531 C 26.253906 98.394531 21.664062 97.890625 17.195312 102.199219 C 19.960938 105.007812 23.019531 106.121094 26.171875 106.566406 C 29.308594 107.011719 31.578125 108.789062 34.015625 110.421875 C 34.730469 110.898438 34.835938 111.445312 34.320312 112.054688 C 32.394531 113.453125 29.484375 113.351562 27.992188 115.609375 C 29.210938 117.730469 32.832031 117.558594 33.238281 120.683594 C 27.121094 124.09375 23.390625 121.46875 20.394531 116.941406 C 18.710938 114.390625 17.125 112.078125 13.527344 113.648438 C 16.507812 121.3125 22.21875 126.140625 29.746094 125.714844 C 37.410156 125.28125 44.628906 124.261719 52.46875 126.171875 C 60.457031 128.121094 69.210938 126.910156 76.015625 133.109375 C 76.804688 133.824219 78.484375 133.558594 79.753906 133.75 C 79.628906 133.277344 79.40625 132.730469 79.199219 132.199219 C 79.40625 132.730469 79.628906 133.277344 79.753906 133.75 C 81.59375 135.292969 82.28125 137.21875 79.585938 138.089844 C 77.527344 138.757812 75.042969 137.976562 72.792969 138.230469 C 68.058594 138.757812 64.214844 145.03125 66.035156 149.421875 C 66.613281 150.820312 67.089844 151.816406 65.582031 152.5 C 63.375 153.496094 61.140625 154.394531 59.265625 154.8125 C 62.894531 155.125 67.273438 156.566406 71.777344 157.398438 C 69.980469 165.847656 71.101562 171.347656 75.570312 172.167969 C 81.09375 173.1875 85.308594 176.351562 90.191406 178.207031 C 89.558594 181.28125 84.742188 182.078125 87.261719 186.046875 C 88.640625 188.214844 87.304688 189.578125 84.894531 190.117188 C 82.984375 190.546875 81.039062 191.09375 79.316406 191.980469 C 75.828125 193.777344 75.507812 196.285156 78.378906 198.828125 C 79.839844 200.121094 81.460938 201.871094 83.191406 202.113281 C 89.800781 203.039062 94.15625 207.484375 98.953125 211.308594 C 99.246094 217.882812 94.027344 218.28125 89.691406 219.128906 C 85.660156 219.917969 81.601562 220.152344 78.277344 225.082031 C 85.105469 224.183594 90.289062 226.757812 95.835938 227.035156 C 98.382812 227.160156 99.085938 228.777344 99.214844 230.941406 C 97.980469 231.753906 96.746094 232.5625 95.515625 233.371094 C 94.8125 233.230469 94.109375 233.085938 93.40625 232.945312 C 93.710938 233.640625 94.015625 234.339844 94.316406 235.035156 C 93.949219 236.460938 93.976562 237.777344 95.367188 238.699219 C 96.664062 244.027344 97.707031 244.605469 101.359375 242.039062 C 104.558594 242.617188 107.761719 243.078125 110.996094 242.316406 C 113.617188 245.105469 116.289062 245.148438 119.019531 242.480469 C 121.652344 243.199219 124.285156 243.917969 126.917969 244.636719 C 127.753906 249.4375 122.433594 248.277344 120.929688 250.8125 C 120.308594 250.710938 119.691406 250.71875 119.074219 250.847656 C 117.320312 250.453125 115.8125 250.800781 114.6875 252.300781 C 110.261719 251.96875 105.839844 251.632812 101.414062 251.300781 C 100.296875 250.988281 99.453125 251.371094 98.828125 252.3125 C 96.984375 253.144531 96.289062 254.605469 96.515625 256.566406 C 96.417969 263.34375 98.652344 267.894531 103.210938 267.898438 C 107.425781 267.90625 111.261719 270.171875 115.472656 269.300781 C 117.933594 269.648438 120.394531 270.003906 122.855469 270.359375 C 124.226562 273.867188 130.925781 274.265625 128.480469 280.003906 C 127.304688 280.109375 126.125 280.21875 124.949219 280.324219 C 117.328125 276.921875 108.808594 279.972656 101.039062 277.027344 C 99.589844 276.476562 97.316406 277.972656 95.464844 278.648438 C 92.074219 279.890625 91.128906 282.4375 92 285.753906 C 92.785156 288.738281 94.710938 289.148438 97.789062 289.53125 C 105.007812 290.433594 112.742188 289.015625 119.339844 293.40625 C 120.339844 293.773438 121.335938 294.140625 122.332031 294.507812 C 123.640625 298.175781 127.84375 300.480469 127.289062 305.023438 C 125.933594 304.605469 124.59375 304.59375 123.285156 305.214844 C 116.464844 303.667969 109.660156 303.273438 103.050781 306.050781 C 96.550781 308.78125 95.761719 314.296875 101.234375 318.476562 C 107.492188 323.253906 113.679688 327.460938 122.285156 327.917969 C 129.019531 328.273438 135.617188 331.246094 142.378906 333.085938 C 141.121094 336.011719 139.25 336.835938 137.382812 337.242188 C 130.5 338.742188 122.777344 338.640625 120.714844 347.878906 C 120.355469 349.480469 118.011719 349.34375 116.40625 349.605469 C 113.449219 350.09375 113.875 351.984375 114.714844 353.972656 C 115.644531 356.179688 117.179688 357.199219 119.238281 355.46875 C 125.71875 350.003906 130.140625 356.136719 134.980469 358.46875 C 137.695312 359.773438 136.863281 363.167969 133.808594 364.476562 C 132.636719 364.980469 131.238281 364.929688 129.980469 365.273438 C 126.808594 366.144531 123.40625 366.84375 123.246094 371.15625 C 123.113281 374.722656 124.425781 377.257812 127.765625 379.132812 C 135.046875 383.214844 143.347656 385.140625 150.167969 390.296875 C 153.273438 392.644531 157.582031 392.636719 161.566406 392.585938 C 165.171875 392.539062 168.914062 391.992188 172.355469 392.757812 C 177.121094 393.816406 183.277344 392.652344 185.5 399.132812 C 183.976562 400.773438 182.707031 402.832031 179.832031 401.636719 C 176.480469 400.242188 173.285156 400.828125 170.230469 402.773438 C 179.800781 405.121094 189.726562 405.667969 199.152344 405.769531 C 215.273438 405.945312 230.363281 412.128906 246.542969 411.5 C 255.625 411.152344 264.738281 412.820312 273.820312 410.328125 C 277.816406 409.230469 281.78125 409.050781 286.144531 410.964844 C 290.421875 412.84375 295.777344 413.648438 299.40625 408.503906 C 300.957031 406.304688 303.335938 406.644531 305.664062 406.617188 C 313.15625 406.535156 320.648438 406.289062 328.140625 406.109375 C 332.679688 403.660156 337.492188 404.351562 342.261719 404.570312 C 337.492188 404.351562 332.679688 403.664062 328.140625 406.109375 C 340.757812 407.019531 353.636719 405.972656 365.570312 411.777344 C 367.828125 412.878906 370.8125 412.734375 372.992188 410.699219 C 374.25 409.53125 375.636719 408.402344 377.304688 408.714844 C 385.097656 410.175781 392.621094 411.125 400.800781 409.53125 C 405.101562 408.695312 410.226562 409.464844 415.113281 408.980469 C 423.09375 408.191406 431.042969 405.328125 439.339844 408.089844 C 442.246094 409.058594 445.917969 408.4375 449.089844 407.792969 C 461.710938 405.226562 474.46875 407.554688 487.125 406.507812 C 490 406.269531 493.226562 409.34375 495.675781 407.730469 C 501.980469 403.578125 508.980469 405.535156 515.597656 404.554688 C 526.097656 403 536.976562 402.410156 547.296875 403.160156 C 558.773438 403.992188 569.769531 404.15625 581.78125 401.320312 C 573.847656 395.339844 564.222656 397.722656 556.433594 393.984375 C 557.207031 391.273438 560.675781 392.292969 561.773438 390.242188 C 564.105469 385.867188 566.933594 385.8125 570.421875 388.855469 C 572.167969 390.382812 574.058594 389.332031 575.992188 389.078125 C 578.894531 388.699219 581.980469 388.34375 584.792969 388.921875 C 595.996094 391.230469 606.765625 386.46875 617.886719 387.90625 C 613.089844 383.710938 606.015625 390.085938 601.777344 383.1875 C 611.691406 380.566406 621.703125 379.21875 631.773438 378.84375 C 637.835938 378.621094 645.296875 376.050781 648.214844 385.0625 C 648.460938 385.820312 650.539062 386.460938 651.703125 386.363281 C 657.035156 385.914062 661.097656 388.566406 665.25 391.277344 C 668.917969 393.671875 672.992188 394.46875 677.429688 394.414062 C 686.90625 394.292969 696.304688 395.203125 705.820312 393.03125 C 710.492188 391.964844 717.195312 389.628906 720.195312 397.1875 C 720.371094 397.636719 722.164062 397.960938 722.789062 397.605469 C 724.40625 396.695312 723.257812 395.707031 722.671875 394.511719 C 719.410156 387.855469 719.882812 387.105469 727.214844 386.410156 C 728.523438 386.285156 729.832031 386.1875 731.140625 386.078125 C 733.691406 386.082031 736.238281 386.089844 738.789062 386.097656 C 744.867188 392.113281 752.40625 393.15625 760.453125 392.472656 C 771.300781 394.773438 780.84375 388.039062 791.355469 388.027344 C 797.542969 385.660156 803.425781 387.746094 809.308594 389.351562 C 811.207031 389.871094 813.566406 391.070312 814.523438 388.855469 C 816.78125 383.625 821.09375 384.457031 825.261719 384.460938 C 828.113281 384.464844 830.976562 384.476562 833.046875 382.324219 C 822.882812 379.234375 811.859375 381.210938 800.363281 377.945312 C 806.734375 374.867188 812.941406 379.003906 817.519531 374.371094 C 819.773438 374.820312 821.492188 373.328125 823.464844 372.746094 C 827.882812 373.722656 832.261719 372.359375 836.671875 372.476562 C 838.566406 372.523438 839.148438 370.863281 839.574219 369.296875 C 841.425781 369.214844 843.273438 369.128906 845.121094 369.042969 C 845.484375 370.859375 845.382812 373.355469 848.425781 371.867188 C 850.109375 371.046875 852.105469 370.582031 853.136719 368.738281 C 854.390625 368.632812 855.644531 368.523438 856.902344 368.417969 C 857.671875 368.371094 858.441406 368.324219 859.214844 368.28125 C 861.09375 368.148438 862.972656 368.015625 864.851562 367.886719 C 865.949219 368.660156 866.558594 368.117188 866.984375 367.089844 L 866.992188 367.09375 C 872.324219 364.957031 877.386719 367.3125 882.605469 367.769531 C 889.851562 368.398438 897.199219 367.730469 904.5 367.851562 C 905.890625 367.875 907.117188 368.0625 907.867188 366.824219 C 910.890625 361.832031 915.90625 363.105469 920.261719 363.128906 C 931.75 363.195312 942.894531 360.976562 954.699219 359.035156 C 953.183594 356.503906 949.789062 357.289062 949.078125 354.089844 C 953.515625 352.316406 953.007812 345.957031 958.050781 344.0625 C 959.28125 343.601562 959.691406 341.894531 958.945312 340.675781 C 958.222656 339.488281 956.742188 339.210938 955.472656 339.679688 C 951.070312 341.308594 946.425781 340.753906 941.914062 341.355469 C 941.4375 341.179688 940.945312 341.113281 940.441406 341.148438 C 944.875 336.988281 950.9375 336.910156 956.554688 334.335938 C 950.878906 335.34375 951.886719 325.492188 945.042969 327.925781 C 944.597656 328.082031 945.757812 325.273438 946.027344 323.8125 C 948.730469 323.441406 951.816406 324.597656 953.90625 321.8125 C 951.480469 320.457031 948.925781 319.636719 946.316406 319.089844 C 948.925781 319.636719 951.480469 320.457031 953.90625 321.8125 C 960.96875 321.167969 968.273438 322.6875 974.84375 318.109375 C 977.226562 316.445312 980.855469 317.039062 983.730469 318.207031 C 982.421875 324.769531 975.023438 322.996094 972.332031 328.023438 C 975.242188 329.734375 978.382812 330.636719 980.714844 332.855469 C 981.648438 333.742188 983.550781 334.949219 982.804688 335.679688 C 977.714844 340.6875 985.566406 340.289062 986.003906 343.003906 C 981.320312 344.257812 975.414062 341.894531 973.195312 348.277344 C 979.941406 351.339844 983.664062 351.230469 988.421875 347.320312 C 989.886719 346.113281 990.691406 343.789062 992.808594 343.667969 C 1001.621094 343.148438 1010.578125 341.988281 1018.910156 346.144531 C 1027.429688 350.402344 1027.609375 350.488281 1034.058594 343.949219 C 1020.941406 343.105469 1021.949219 344.96875 1018.441406 334.0625 C 1021.53125 332.390625 1024.859375 333.421875 1028.058594 333.269531 C 1034.289062 332.972656 1040.628906 333.515625 1046.710938 332.445312 C 1052.5 331.429688 1057.820312 329.851562 1063.601562 332.800781 C 1065.679688 333.859375 1068.78125 333.152344 1071.378906 332.859375 C 1073.320312 332.640625 1075.460938 331.785156 1075.210938 329.28125 C 1074.980469 326.941406 1072.898438 326.148438 1070.878906 326.136719 C 1066.648438 326.101562 1062.488281 325.800781 1058.191406 326.847656 C 1050.980469 328.609375 1043.601562 329.113281 1036.230469 323.238281 C 1040.308594 320.914062 1043.910156 321.546875 1047.289062 321.214844 C 1049.210938 321.023438 1051.910156 321.941406 1052.828125 320.125 C 1056.320312 313.246094 1062.148438 315.558594 1067.429688 316.046875 C 1070.449219 316.324219 1073.019531 316.113281 1077.121094 312.074219 C 1061.019531 311.910156 1047.058594 310.105469 1033.019531 311.230469 C 1029.78125 311.488281 1026.519531 312.097656 1023.28125 311.890625 C 1013.878906 311.289062 1004.519531 308.753906 995.078125 311.96875 C 993.378906 312.546875 989.625 311.984375 990.128906 310.421875 C 992.070312 304.40625 988.042969 306.675781 985.59375 306.5625 C 984.296875 306.5 982.378906 308.113281 981.890625 304.375 C 993.300781 303.480469 1005.339844 303.101562 1010.078125 289.601562 C 1008.230469 287.566406 1005.480469 287.269531 1003.191406 286.074219 C 1000.800781 284.824219 1000.839844 282.261719 1002.859375 281.523438 C 1007.890625 279.6875 1012.210938 275.5 1018.460938 277.164062 C 1022.191406 278.15625 1026.269531 278.007812 1030.199219 278.074219 C 1033.910156 278.140625 1037.339844 278.980469 1040.570312 280.742188 C 1045.089844 283.210938 1045.300781 284.488281 1041.699219 287.863281 C 1040.761719 288.738281 1039.339844 289.183594 1038.578125 290.160156 C 1035.828125 293.71875 1037.328125 297.433594 1041.75 297.695312 C 1045.96875 297.941406 1050.238281 298.222656 1054.058594 295.417969 C 1056.96875 293.289062 1060.449219 292.378906 1064.019531 291.519531 C 1075.828125 288.671875 1088.058594 288.238281 1099.929688 287.222656 C 1112.730469 286.121094 1125.871094 285.078125 1138.910156 285.898438 C 1141.800781 286.082031 1144.828125 286.179688 1147.460938 284.292969 C 1157.328125 277.226562 1169.109375 277.367188 1180.351562 276.429688 C 1186.898438 275.878906 1193.058594 273.339844 1199.710938 273.644531 C 1201.878906 273.742188 1202.730469 271.449219 1202.851562 269.226562 C 1199.621094 267.796875 1196.390625 268.523438 1193.289062 269.507812 C 1189.398438 270.738281 1185.449219 271.042969 1181.628906 269.984375 C 1171.03125 267.054688 1160.578125 269.425781 1150.730469 272.246094 C 1142.480469 274.613281 1135.191406 274.007812 1127.980469 270.835938 C 1122.828125 268.570312 1117.691406 268.085938 1112.601562 269.050781 C 1095.398438 272.308594 1077.929688 269.871094 1060.628906 272.128906 C 1051.101562 273.371094 1040.929688 271.535156 1031.328125 271.796875 C 1016.539062 272.203125 1001.601562 272.976562 986.792969 274.542969 C 985.507812 274.679688 983.121094 275.007812 983.125 275.226562 C 983.203125 282.5625 976.566406 279.597656 973.304688 281.65625 C 965.566406 286.53125 957.355469 282.925781 948.199219 284.167969 C 952.859375 277.765625 957.484375 275.433594 963.578125 276.277344 C 964.863281 276.453125 966.210938 276.308594 967.519531 276.195312 C 969.199219 276.054688 970.964844 275.714844 970.816406 273.503906 C 970.652344 271.035156 968.890625 271.398438 967.238281 271.855469 C 962.714844 273.117188 958.074219 272.234375 953.5 272.554688 C 951.492188 272.695312 949.53125 272.195312 948.875 269.15625 C 953.886719 268.253906 958.851562 266.953125 963.890625 266.519531 C 987.925781 264.4375 1011.980469 262.53125 1036.128906 262.476562 C 1043.390625 262.460938 1050.558594 262.464844 1057.441406 259.675781 C 1060.648438 258.375 1063.941406 257.929688 1067.398438 259.414062 C 1065.789062 263.660156 1060.488281 262.917969 1059.390625 268.132812 C 1067.050781 267.257812 1074.011719 268.984375 1081.101562 266.128906 C 1087.878906 263.398438 1095.191406 263.039062 1102.300781 265.339844 C 1105.039062 266.226562 1107.398438 266.238281 1109.738281 264.558594 C 1115.75 260.242188 1122.730469 260.269531 1129.621094 260.433594 C 1134.578125 260.550781 1139.378906 260.210938 1144.261719 259.144531 C 1150.628906 257.753906 1157.179688 257.179688 1163.640625 256.226562 C 1165.429688 255.960938 1167.820312 256.488281 1167.738281 252.960938 C 1159.691406 252.875 1151.871094 250.835938 1143.53125 252.359375 C 1129.949219 254.839844 1116.140625 252.480469 1102.429688 252.792969 C 1100.820312 252.828125 1099.058594 252.777344 1098.21875 250.988281 C 1097.21875 248.882812 1098.210938 247.128906 1099.578125 245.660156 C 1100.449219 244.71875 1101.710938 243.386719 1102.71875 243.4375 C 1111.210938 243.875 1118.691406 237.617188 1127.570312 240.109375 C 1132.46875 241.488281 1137.488281 240.746094 1141.429688 237.792969 C 1140.960938 233.792969 1136.519531 238.464844 1136.210938 232.976562 C 1148.148438 232.953125 1159.921875 230.15625 1171.78125 229.488281 C 1189.71875 228.480469 1207.289062 224.714844 1225.328125 223.902344 C 1237.878906 223.335938 1250.710938 222.6875 1263.378906 221.320312 C 1277.949219 219.753906 1292.46875 218.085938 1306.96875 215.980469 C 1305.328125 215.546875 1303.710938 215.445312 1302.101562 215.367188 C 1278.96875 214.238281 1256.039062 216.519531 1233.25 220.007812 C 1229.011719 220.65625 1225.480469 219.589844 1221.808594 218.824219 C 1218.53125 218.144531 1215.601562 217.457031 1212.230469 218.4375 C 1206.261719 220.175781 1199.828125 218.644531 1193.789062 220.960938 C 1191.699219 221.761719 1188.988281 220.265625 1189.179688 217.316406 C 1189.351562 214.664062 1191.949219 214.757812 1193.769531 214.929688 C 1197.171875 215.246094 1200.308594 217.707031 1203.96875 216.195312 C 1202.671875 210.316406 1202.640625 210.386719 1196.25 208.054688 C 1194.960938 207.582031 1194.671875 206.136719 1195.46875 204.460938 C 1203.660156 205.480469 1211.558594 204.859375 1218.148438 198.691406 C 1220.019531 196.9375 1222.03125 198.007812 1222.320312 200.519531 C 1222.769531 204.363281 1225.578125 204.296875 1226.621094 202.113281 C 1230.5 193.96875 1237.039062 196.777344 1242.671875 198.046875 C 1246.839844 198.984375 1250.261719 198.953125 1253.871094 196.804688 C 1252.53125 194.375 1247.289062 196.558594 1248.320312 192.976562 C 1249.96875 187.222656 1246.609375 187.863281 1243.289062 187.851562 C 1231.460938 187.8125 1219.628906 187.859375 1207.800781 187.703125 C 1206.179688 187.683594 1203.738281 189.109375 1204.011719 184.554688 C 1204.199219 181.378906 1205.058594 180.453125 1207.089844 180.152344 C 1211.289062 179.527344 1215.578125 179.484375 1219.828125 179.199219 C 1220.109375 179.507812 1220.410156 179.808594 1220.710938 180.09375 C 1222.679688 186.332031 1226.980469 182.351562 1230.378906 182.300781 C 1229.28125 176.054688 1234.921875 178.347656 1237.460938 176.695312 C 1239.058594 175.652344 1241.578125 175.378906 1241.878906 173.144531 C 1242.710938 166.878906 1247.570312 165.441406 1254.089844 164.371094 C 1249.101562 160.542969 1242.640625 163.238281 1240.480469 157.714844 C 1246.351562 151.308594 1260.460938 148.027344 1285.410156 147.234375 C 1282.378906 143.097656 1277.910156 144.492188 1273.941406 143.972656 C 1272.179688 143.738281 1269.089844 144.9375 1268.921875 142.492188 C 1268.5 136.390625 1264.191406 138.5 1261.019531 138.101562 C 1258.679688 137.808594 1255.820312 139.023438 1253.550781 134.546875 C 1259.71875 134.222656 1264.820312 131.902344 1269.761719 130.816406 C 1275.808594 129.484375 1280.179688 126.578125 1285.058594 122.925781 C 1279.148438 121.765625 1271.421875 124.769531 1269.46875 115.710938 C 1269.359375 115.222656 1267.078125 115.042969 1265.800781 114.992188 C 1262.519531 114.867188 1259.230469 114.742188 1255.949219 114.890625 C 1243.238281 115.464844 1230.539062 115.089844 1217.851562 114.355469 C 1215.46875 114.21875 1212.878906 113.78125 1213.058594 110.75 C 1213.210938 108.070312 1215.878906 108.285156 1217.679688 108.40625 C 1235.539062 109.605469 1253.320312 104.410156 1271.21875 107.761719 C 1274.519531 108.378906 1279.21875 107.273438 1280.039062 104.84375 C 1282.078125 98.871094 1286.710938 98.722656 1291.359375 97.148438 C 1288.558594 96.886719 1285.769531 96.625 1282.621094 96.328125 C 1284.160156 93.378906 1286.449219 92.179688 1288.730469 90.9375 C 1289.710938 90.402344 1290.898438 90.820312 1291.601562 89.027344 C 1294.660156 81.109375 1295.28125 80.984375 1302.960938 82.148438 C 1305.859375 82.585938 1308.851562 82.652344 1311.789062 82.628906 C 1321.621094 82.546875 1331.421875 82.441406 1341.230469 81.089844 C 1354.101562 79.320312 1367.019531 80.984375 1380.171875 77.992188 C 1394.128906 74.816406 1409.03125 74.257812 1423.671875 74.867188 C 1429.070312 75.089844 1434.828125 76.054688 1438.898438 70.585938 C 1440.328125 68.652344 1443.210938 69.425781 1445.378906 68.832031 C 1451.488281 67.160156 1458.25 69.15625 1464 66.007812 C 1464.058594 63.460938 1462.640625 62.597656 1461.230469 61.765625" fill="#4e705f"/></g><g id="change1_2"><path d="M 1058.089844 362.050781 C 1052.441406 364.777344 1047.210938 360.519531 1041.691406 361.324219 C 1040.289062 361.527344 1039.03125 360.433594 1039.941406 358.859375 C 1042.199219 354.9375 1039.359375 355.277344 1037.078125 355.375 C 1022.691406 355.988281 1008.269531 354.414062 993.871094 356.917969 C 988.503906 357.851562 983.1875 360.234375 977.503906 359.207031 C 977.632812 362.472656 978.558594 364.820312 982.605469 364.753906 C 984.769531 364.714844 987.050781 364.507812 988.960938 366.503906 C 997.289062 375.230469 997.75 374.175781 1009.671875 375.941406 C 1018.480469 377.246094 1026.890625 374.5 1035.730469 375.984375 C 1040.46875 376.78125 1046.550781 377.195312 1051.960938 375.207031 C 1054.238281 374.371094 1055.800781 373.421875 1054.921875 371.359375 C 1052.828125 366.519531 1055.558594 366.484375 1058.988281 366.523438 C 1060.371094 366.539062 1061.640625 365.644531 1061.558594 364.140625 C 1061.441406 362.023438 1059.730469 361.257812 1058.089844 362.050781" fill="#4e705f"/></g><g id="change1_3"><path d="M 1021.101562 402.105469 C 1016.140625 399.554688 1011.679688 400.765625 1006.960938 400.589844 C 1002.089844 400.410156 996.824219 399.449219 992.433594 400.09375 C 984.25 401.296875 974.707031 397.359375 967.859375 405.230469 C 966.484375 406.816406 964.257812 406.613281 962.304688 406.636719 C 957.757812 406.6875 953.210938 406.652344 948.664062 406.652344 C 948.519531 407.0625 948.375 407.46875 948.230469 407.875 C 949.171875 408.019531 950.109375 408.273438 951.050781 408.289062 C 969.507812 408.625 987.890625 406.863281 1006.308594 406.203125 C 1015.03125 405.886719 1023.71875 404.949219 1032.421875 404.285156 C 1035.050781 404.082031 1037.421875 403.566406 1037.398438 399.726562 C 1031.621094 400.382812 1026 404.621094 1021.101562 402.105469" fill="#4e705f"/></g><g id="change1_4"><path d="M 732.335938 397.613281 C 736.53125 403.136719 741.117188 406.804688 747.527344 408.121094 C 751.726562 408.984375 755.15625 405.777344 759.007812 406.398438 C 765.644531 407.46875 769.050781 404.359375 771.464844 396.414062 C 757.851562 399.621094 745.199219 391.6875 732.335938 397.613281" fill="#4e705f"/></g><g id="change1_5"><path d="M 1240.851562 254.539062 C 1240.589844 255.222656 1240.410156 255.519531 1240.378906 255.835938 C 1240.371094 255.9375 1240.738281 256.175781 1240.941406 256.179688 C 1242.570312 256.222656 1244.210938 256.214844 1245.851562 256.242188 C 1257.878906 256.453125 1269.921875 256.34375 1281.921875 257.007812 C 1288.761719 257.382812 1300.921875 256.988281 1308.921875 253.921875 C 1286.179688 253.007812 1263.421875 246.355469 1240.851562 254.539062" fill="#4e705f"/></g><g id="change1_6"><path d="M 1082.191406 296.003906 C 1087.761719 299.386719 1093.300781 298.109375 1099.070312 296.285156 C 1103.011719 295.042969 1107.058594 292.519531 1111.429688 294.671875 C 1123.171875 300.460938 1134.921875 298.074219 1148.039062 295.066406 C 1093.289062 288.84375 1097.851562 291.925781 1082.191406 296.003906" fill="#4e705f"/></g><g id="change1_7"><path d="M 1082.050781 296.035156 C 1082.101562 296.023438 1082.140625 296.015625 1082.191406 296.003906 C 1082.160156 295.988281 1082.140625 295.976562 1082.109375 295.960938 L 1082.050781 296.035156" fill="#4e705f"/></g><g id="change1_8"><path d="M 1229.191406 284.644531 C 1220.738281 287.636719 1212.039062 288.425781 1203.121094 288.765625 C 1197.308594 288.980469 1191.539062 290.746094 1185.601562 290.507812 C 1184.53125 290.464844 1183.820312 291.347656 1183.859375 292.433594 C 1183.878906 292.984375 1184.390625 293.519531 1184.679688 294.066406 C 1189.210938 290.699219 1192.480469 296.796875 1196.441406 295.734375 C 1197.691406 295.605469 1198.699219 295.625 1199.648438 295.390625 C 1209.769531 292.863281 1219.691406 289.234375 1230.378906 289.648438 C 1232.269531 289.722656 1233.5 288.566406 1233.058594 286.523438 C 1232.601562 284.433594 1230.710938 284.105469 1229.191406 284.644531" fill="#4e705f"/></g><g id="change1_9"><path d="M 799.347656 397.117188 C 794.144531 396.777344 789.257812 394.351562 783.941406 394.921875 C 781.726562 395.160156 779.097656 394.785156 778.652344 397.929688 C 778.210938 401.046875 778.769531 403.734375 782.175781 405.117188 C 784.710938 406.144531 787.199219 406.367188 790.179688 405.445312 C 793.066406 406.132812 796.160156 405.308594 799.300781 404.539062 C 801.09375 404.101562 802.5625 403.136719 802.535156 401.445312 C 802.503906 399.53125 801.578125 397.261719 799.347656 397.117188" fill="#4e705f"/></g><g id="change1_10"><path d="M 993.746094 389.484375 C 989.988281 388.691406 984.769531 390.050781 981.105469 393.867188 C 997.613281 393.867188 1014.121094 393.867188 1031.609375 393.867188 C 1029.921875 391.480469 1028.460938 391.261719 1026.789062 391.085938 C 1015.828125 389.933594 1004.78125 391.816406 993.746094 389.484375" fill="#4e705f"/></g><g id="change1_11"><path d="M 1084.679688 344.902344 C 1092.558594 345.578125 1100.441406 345.90625 1108.28125 345.480469 C 1115.398438 345.089844 1122.730469 347.503906 1129.519531 343.449219 C 1114.441406 342.3125 1099.429688 339.863281 1084.679688 344.902344" fill="#4e705f"/></g><g id="change1_12"><path d="M 980.226562 385.554688 C 996.84375 387.796875 1013.441406 387.296875 1029.929688 383.535156 C 1013.351562 383.535156 996.773438 383.535156 980.195312 383.535156 C 980.207031 384.207031 980.21875 384.882812 980.226562 385.554688" fill="#4e705f"/></g><g id="change1_13"><path d="M 1224.191406 268.519531 C 1235.089844 271.628906 1243.960938 267.945312 1252.980469 266.980469 C 1243.738281 264.019531 1234.628906 263.300781 1224.191406 268.519531" fill="#4e705f"/></g><g id="change1_14"><path d="M 1040.800781 346.496094 C 1058.171875 348.75 1058.171875 348.75 1062.839844 344.914062 C 1050.570312 342.300781 1045.671875 342.648438 1040.800781 346.496094" fill="#4e705f"/></g><g id="change1_15"><path d="M 829.164062 397.269531 C 832.773438 403.429688 832.773438 403.429688 849.300781 399.515625 C 842.796875 396.339844 836.148438 396.105469 829.164062 397.269531" fill="#4e705f"/></g><g id="change1_16"><path d="M 8.804688 110.878906 C 9.351562 109.171875 7.628906 108.054688 6.054688 107.472656 C 4.023438 106.726562 2.207031 107.144531 0.957031 108.976562 C 0.0078125 110.363281 -0.410156 111.984375 0.527344 113.519531 C 2.253906 116.335938 4.28125 118.792969 8.914062 117.972656 C 9.214844 115.289062 8.050781 113.21875 8.804688 110.878906" fill="#4e705f"/></g><g id="change1_17"><path d="M 1150.378906 247.820312 C 1157.320312 248.414062 1164.269531 249.011719 1171.210938 249.605469 C 1164.769531 244.914062 1157.878906 243.792969 1150.558594 245.671875 C 1150.5 246.390625 1150.441406 247.105469 1150.378906 247.820312" fill="#4e705f"/></g><g id="change1_18"><path d="M 882.65625 400.996094 C 889.644531 401.054688 889.644531 401.054688 895.949219 396.46875 C 889.875 395.277344 885.242188 395.199219 882.65625 400.996094" fill="#4e705f"/></g><g id="change1_19"><path d="M 252.921875 31.601562 C 258.417969 30.660156 263.050781 29.867188 269.273438 28.800781 C 258.703125 27.121094 258.703125 27.121094 252.921875 31.601562" fill="#4e705f"/></g><g id="change1_20"><path d="M 380.496094 22.667969 C 377.179688 20.875 374.800781 18.371094 372.335938 21.949219 C 371.929688 22.539062 371.984375 24.113281 372.449219 24.527344 C 375.480469 27.210938 377.546875 24.464844 380.496094 22.667969" fill="#4e705f"/></g><g id="change1_21"><path d="M 1068.46875 295.960938 C 1072.949219 295.960938 1077.441406 295.960938 1081.929688 295.960938 C 1077.589844 293.214844 1073.019531 294.355469 1068.46875 295.960938" fill="#4e705f"/></g><g id="change1_22"><path d="M 1082.050781 296.035156 L 1082.109375 295.960938 C 1082.050781 295.960938 1081.988281 295.960938 1081.929688 295.960938 C 1081.96875 295.988281 1082.011719 296.011719 1082.050781 296.035156" fill="#4e705f"/></g><g id="change1_23"><path d="M 1138.609375 247.777344 C 1140.988281 248.480469 1142.578125 248.726562 1143.988281 247.664062 C 1144.199219 247.511719 1144.011719 246.253906 1143.710938 246.105469 C 1142 245.257812 1140.78125 246.507812 1138.609375 247.777344" fill="#4e705f"/></g><g id="change1_24"><path d="M 1132.910156 265.542969 C 1133.160156 265.621094 1133.53125 265.851562 1133.640625 265.757812 C 1134.179688 265.320312 1133.988281 265.003906 1133.148438 264.988281 C 1133.070312 264.988281 1132.988281 265.351562 1132.910156 265.542969" fill="#4e705f"/></g><g id="change1_25"><path d="M 983.222656 372.207031 L 983.90625 371.964844 L 983.226562 371.71875 Z M 983.222656 372.207031" fill="#4e705f"/></g><g id="change1_26"><path d="M 91.265625 231.941406 C 91.859375 232.195312 92.457031 232.453125 93.054688 232.707031 C 92.707031 232.371094 92.359375 232.027344 91.96875 231.746094 C 91.84375 231.65625 91.503906 231.867188 91.265625 231.941406" fill="#4e705f"/></g><g id="change1_27"><path d="M 93.054688 232.707031 C 93.128906 232.777344 93.203125 232.851562 93.277344 232.917969 L 93.355469 232.835938 C 93.257812 232.792969 93.15625 232.75 93.054688 232.707031" fill="#4e705f"/></g><g id="change1_28"><path d="M 1216.859375 184.597656 L 1216.058594 184.183594 L 1215.96875 184.816406 Z M 1216.859375 184.597656" fill="#4e705f"/></g><g id="change1_29"><path d="M 976.933594 358.773438 C 977.101562 358.914062 977.265625 359.054688 977.433594 359.195312 C 977.457031 359.199219 977.480469 359.203125 977.503906 359.207031 C 977.503906 359.183594 977.503906 359.15625 977.5 359.132812 C 977.3125 359.011719 977.121094 358.890625 976.933594 358.773438" fill="#4e705f"/></g><g id="change1_30"><path d="M 93.277344 232.917969 C 93.320312 232.929688 93.363281 232.9375 93.40625 232.945312 C 93.390625 232.90625 93.371094 232.871094 93.355469 232.835938 C 93.355469 232.835938 93.277344 232.917969 93.277344 232.917969" fill="#4e705f"/></g></g></svg>