<?xml version="1.0" encoding="UTF-8"?><svg xmlns="http://www.w3.org/2000/svg" xmlns:xlink="http://www.w3.org/1999/xlink" height="345.0" preserveAspectRatio="xMidYMid meet" version="1.0" viewBox="-1.1 -1.0 1483.3 345.0" width="1483.3" zoomAndPan="magnify"><g fill="#151516" id="change1_1"><path d="M 1326.5 165.804688 C 1326.648438 166.21875 1326.789062 166.507812 1326.921875 166.664062 C 1326.789062 166.507812 1326.648438 166.21875 1326.5 165.804688 Z M 1326.46875 165.769531 C 1324.628906 165.664062 1322.769531 165.675781 1320.871094 165.703125 C 1322.769531 165.675781 1324.628906 165.664062 1326.46875 165.769531 Z M 1263.589844 78.40625 C 1263.03125 78.675781 1262.46875 78.945312 1261.910156 79.21875 C 1262.46875 78.945312 1263.03125 78.675781 1263.589844 78.402344 C 1263.820312 78.671875 1264.039062 78.933594 1264.261719 79.195312 C 1264.039062 78.933594 1263.820312 78.671875 1263.589844 78.40625 Z M 1259.78125 247.496094 C 1260.449219 247.128906 1261.109375 246.761719 1261.78125 246.394531 C 1261.109375 246.761719 1260.449219 247.128906 1259.78125 247.496094 Z M 1207.089844 242.199219 C 1214.179688 242.019531 1219.53125 237.105469 1223.859375 228.488281 C 1223.859375 228.488281 1223.871094 228.488281 1223.871094 228.488281 C 1219.53125 237.105469 1214.179688 242.019531 1207.089844 242.199219 Z M 1222.28125 296.582031 C 1221.609375 297.3125 1220.730469 297.742188 1219.78125 297.953125 C 1220.730469 297.742188 1221.609375 297.3125 1222.28125 296.582031 Z M 1160.289062 286.074219 C 1162.300781 284.085938 1165.589844 284.476562 1168.378906 284.332031 C 1165.589844 284.476562 1162.308594 284.085938 1160.289062 286.074219 Z M 1158.589844 289.796875 C 1155.199219 289.722656 1151.621094 290.921875 1148.609375 289.316406 C 1151.621094 290.921875 1155.199219 289.722656 1158.589844 289.796875 Z M 1126.429688 278.003906 C 1128.730469 277.441406 1131.039062 277.066406 1133.371094 276.816406 C 1131.039062 277.066406 1128.730469 277.441406 1126.429688 278.003906 Z M 1126.421875 277.976562 C 1125.691406 278.335938 1124.960938 278.695312 1124.230469 279.042969 C 1124.960938 278.695312 1125.691406 278.335938 1126.421875 277.976562 Z M 1080.21875 290.234375 C 1081.171875 289.738281 1082.101562 289.15625 1083.019531 288.492188 C 1082.101562 289.15625 1081.171875 289.738281 1080.21875 290.234375 Z M 1015.78125 276.628906 C 1015.859375 276.542969 1015.941406 276.46875 1016.019531 276.40625 C 1015.941406 276.46875 1015.859375 276.542969 1015.78125 276.628906 Z M 1014.238281 285.28125 C 1012.859375 285.398438 1011.488281 285.371094 1010.121094 285.242188 C 1011.488281 285.371094 1012.859375 285.398438 1014.238281 285.28125 Z M 874.679688 169.417969 C 879.507812 171.230469 887.941406 171.304688 889.265625 169.65625 C 887.957031 171.304688 879.511719 171.230469 874.679688 169.417969 Z M 279.964844 182.863281 C 279.570312 182.816406 279.199219 182.75 278.859375 182.667969 C 279.199219 182.75 279.570312 182.816406 279.964844 182.863281 Z M 177.453125 122.226562 C 177.460938 122.097656 177.464844 121.96875 177.472656 121.839844 C 177.464844 121.96875 177.460938 122.097656 177.453125 122.226562 Z M 177.273438 126.503906 L 177.40625 126.660156 C 177.335938 126.570312 177.273438 126.5 177.273438 126.503906 Z M 167.15625 231.980469 C 166.855469 232.066406 166.558594 232.152344 166.257812 232.234375 C 166.558594 232.152344 166.855469 232.066406 167.15625 231.980469 Z M 152.96875 219.519531 C 154.269531 219.558594 155.632812 219.191406 156.195312 217.570312 C 156.144531 217.34375 156.078125 217.128906 155.996094 216.929688 C 156.078125 217.132812 156.144531 217.347656 156.195312 217.574219 C 155.632812 219.191406 154.269531 219.558594 152.96875 219.519531 Z M 150.992188 92.96875 C 152.449219 94.625 154.4375 95.441406 155.902344 94.496094 C 154.4375 95.441406 152.449219 94.625 150.992188 92.96875 Z M 67.835938 51.253906 L 67.746094 51.164062 C 67.792969 51.210938 67.835938 51.253906 67.835938 51.253906 Z M 1455.851562 167.402344 C 1455.480469 163.082031 1459.890625 164.476562 1461.539062 162.902344 C 1467.53125 157.183594 1474.949219 158.375 1482.25 157.328125 C 1475.601562 156.246094 1467.988281 157.0625 1466.570312 147.609375 C 1466.191406 145.066406 1463.160156 144.3125 1460.601562 144.382812 C 1456.96875 144.480469 1453.03125 143.980469 1449.769531 145.195312 C 1440.96875 148.472656 1432.601562 145.476562 1425.109375 142.546875 C 1416.679688 139.25 1408.519531 137.566406 1399.710938 138.082031 C 1388.761719 138.722656 1400.539062 132.875 1398.070312 131.421875 C 1386.179688 126.769531 1372.109375 133.273438 1361.570312 123.515625 C 1365.160156 118.078125 1372.609375 120.210938 1375.960938 115.167969 C 1374.890625 114.246094 1374.308594 113.324219 1373.660156 113.269531 C 1357.921875 111.910156 1342.140625 112.132812 1326.359375 112.546875 C 1323.191406 112.628906 1322.570312 115.039062 1322.039062 117.476562 C 1320.449219 117.507812 1318.851562 117.535156 1317.25 117.566406 C 1314.570312 117.484375 1311.890625 117.40625 1309.21875 117.324219 C 1307.660156 116.433594 1306.101562 115.539062 1304.539062 114.644531 C 1305.359375 110.867188 1300.328125 110.089844 1300.320312 106.3125 C 1304.601562 104.316406 1308.921875 102.304688 1313.238281 100.289062 C 1307.628906 100.628906 1302.898438 97.085938 1297.789062 98.160156 C 1297.320312 97.621094 1296.859375 97.070312 1296.429688 96.515625 C 1295.929688 88.503906 1303.140625 89.613281 1307.371094 87.890625 C 1312.128906 85.953125 1317.820312 86.148438 1322.121094 80.476562 C 1315.160156 80.476562 1309.519531 80.574219 1303.878906 80.429688 C 1301.628906 80.371094 1298.671875 81.09375 1297.789062 77.972656 C 1295.460938 69.773438 1290.058594 70.601562 1284.019531 73.007812 C 1281.03125 71.246094 1279.660156 70.003906 1283.671875 67.195312 C 1288.890625 63.535156 1295.578125 67.203125 1302.621094 61.984375 C 1292.109375 59.53125 1284.179688 55.566406 1274.480469 57.800781 C 1267.480469 59.414062 1259.828125 59.832031 1255.871094 51.3125 C 1255.871094 51.3125 1255.589844 50.898438 1255.589844 50.902344 C 1255.21875 49.753906 1255.140625 47.839844 1254.449219 47.578125 C 1246.191406 44.480469 1237.808594 45.609375 1229.5 47.441406 C 1228.441406 47.675781 1226.71875 48.808594 1226.738281 49.472656 C 1227.160156 60.65625 1218.179688 58.285156 1212.449219 58.5625 C 1195.488281 59.378906 1178.460938 59.636719 1161.558594 57.222656 C 1154.648438 56.234375 1147.941406 56.015625 1141.558594 59.558594 C 1137.921875 61.578125 1133.609375 62.871094 1129.851562 61.390625 C 1123.898438 59.039062 1118.308594 58.5625 1112.230469 60.519531 C 1108.808594 61.621094 1106.609375 59.617188 1104.128906 56.902344 C 1098.570312 50.820312 1105.839844 47.671875 1107.410156 43.332031 C 1099.511719 41.425781 1094.238281 43.222656 1089.53125 49.113281 C 1083.28125 56.925781 1075.109375 59.253906 1064.789062 56.6875 C 1055.421875 54.355469 1046.109375 48.886719 1035.78125 53.253906 C 1034.898438 53.628906 1033.199219 53.128906 1032.371094 52.4375 C 1025.890625 47.039062 1018.609375 49.082031 1011.480469 50.066406 C 1008.699219 50.449219 1006.058594 51.355469 1003.121094 51.066406 C 993.023438 50.066406 983.058594 51.34375 973.171875 53.371094 C 970.71875 48.953125 976.492188 46.421875 976.550781 42.722656 C 972.175781 40.871094 969.90625 43.328125 967.390625 44.980469 C 965.824219 45.175781 964.261719 45.363281 962.699219 45.550781 C 960.230469 36.808594 960.714844 37.664062 968.503906 33.265625 C 974.140625 30.085938 981.101562 28.753906 986.949219 22.855469 C 975.496094 21.28125 965.574219 20.109375 955.722656 18.511719 C 944.886719 16.753906 939.09375 20.703125 936.261719 32.335938 C 937.570312 33.210938 938.878906 34.085938 940.203125 34.972656 C 938.878906 34.085938 937.570312 33.210938 936.261719 32.335938 C 934.664062 32.585938 933.066406 32.835938 931.472656 33.082031 C 930.597656 33.429688 929.722656 33.78125 928.851562 34.128906 C 928.113281 34.152344 927.429688 34.359375 926.804688 34.75 C 921.554688 34.136719 916.40625 34.230469 911.617188 36.886719 C 909.609375 36.53125 907.421875 36.5625 906.273438 34.371094 C 906.136719 24.269531 906.101562 24.191406 898.074219 27.84375 C 895.996094 28.785156 893.453125 29.132812 892.109375 31.382812 C 889.664062 31.757812 887.222656 32.136719 884.78125 32.511719 C 884.011719 28.613281 880.320312 26.855469 878.398438 23.8125 C 879.03125 20.917969 883.296875 19.367188 881.632812 15.558594 C 876.996094 15.558594 872.5 15.964844 868.101562 15.484375 C 853.96875 13.949219 840.886719 15.160156 830.246094 26.265625 C 827.191406 29.457031 822.515625 27.96875 818.621094 26.914062 C 815.167969 25.980469 814.859375 23.542969 815.851562 20.28125 C 816.316406 18.746094 814.683594 17.59375 812.824219 17.308594 C 806.828125 16.398438 800.175781 13.519531 794.921875 16.132812 C 787.921875 19.621094 780.699219 18.566406 773.71875 20.136719 C 769.371094 21.113281 764.917969 21.554688 760.84375 23.667969 C 759.121094 24.558594 756.363281 25.703125 755.164062 24.964844 C 748.070312 20.605469 741.03125 23.980469 733.976562 24.425781 C 731.96875 24.554688 729.863281 24.542969 729.097656 21.75 C 730.859375 17.546875 737.4375 20.085938 738.902344 15.222656 C 733.078125 12.578125 727.105469 12.28125 720.925781 12.5 C 700.667969 13.210938 680.496094 11.117188 660.3125 9.976562 C 641.421875 8.910156 622.582031 4.289062 603.808594 10.617188 C 601.789062 11.300781 600.035156 11.140625 598.035156 10.382812 C 588.273438 6.691406 578.097656 7.320312 567.980469 7.96875 C 536.425781 9.992188 504.710938 8.519531 473.242188 12.316406 C 457.140625 14.257812 440.820312 15.234375 425.019531 18.613281 C 404.191406 23.066406 383.125 22.582031 362.160156 24.027344 C 354.167969 24.578125 346.03125 22.519531 337.941406 22.335938 C 321.46875 21.964844 304.957031 22.476562 289.398438 15.472656 C 287.324219 14.539062 284.589844 14.96875 282.160156 14.949219 C 270.804688 14.847656 259.441406 15.066406 248.097656 14.679688 C 233.972656 14.199219 219.785156 13.90625 205.777344 12.242188 C 196.886719 11.1875 187.824219 10.8125 176.273438 9.003906 C 182.605469 5.621094 186.523438 4.652344 191.097656 5.226562 C 198.597656 6.167969 206.265625 4.328125 213.742188 6.550781 C 215.3125 7.019531 217.171875 6.234375 217.59375 4.46875 C 218.214844 1.859375 216.417969 0.871094 214.148438 0.730469 C 210.09375 0.488281 206.035156 0.164062 201.980469 0.203125 C 187.265625 0.339844 172.46875 -1.027344 156.195312 1.886719 C 162.171875 5.472656 168.871094 1.890625 173.277344 8.152344 C 165.425781 10.527344 158.132812 11.890625 151.28125 11.246094 C 118.753906 8.195312 86.429688 12.550781 54.015625 13.09375 C 49.472656 13.171875 45.335938 14.828125 41.371094 16.902344 C 39.816406 17.71875 38.9375 19.203125 39.082031 20.890625 C 39.304688 23.519531 41.445312 23.789062 43.519531 23.863281 C 45.136719 23.921875 46.808594 24.105469 48.378906 23.816406 C 61.949219 21.34375 75.710938 21.667969 89.398438 20.980469 C 92.421875 20.828125 95.820312 19.628906 99.160156 23.046875 C 92.542969 30.152344 83.363281 29.792969 75.15625 31.847656 C 74.253906 32.039062 73.351562 32.230469 72.449219 32.421875 C 69.863281 32.339844 67.191406 31.707031 64.902344 33.566406 C 64.902344 33.566406 64.902344 33.566406 64.902344 33.570312 C 63.6875 33.644531 62.457031 33.894531 61.261719 33.765625 C 51.453125 32.703125 45.207031 38.769531 42.816406 46.464844 C 40.867188 52.738281 42.484375 60.195312 47.734375 66.199219 C 55.347656 74.90625 54.585938 77.992188 45.355469 84.492188 C 43.582031 85.738281 40.191406 84.78125 39.984375 88.863281 C 43.210938 89.902344 46.578125 90.921875 49.898438 92.082031 C 52.246094 92.902344 54.664062 94.121094 54.964844 96.78125 C 55.351562 100.214844 52.074219 99.980469 49.980469 100.832031 C 47.769531 101.730469 45.558594 102.628906 43.347656 103.523438 C 51.816406 102.40625 51.476562 110.355469 53.667969 114.578125 C 55.1875 117.503906 50.632812 120.445312 47.820312 122.460938 C 43.632812 125.460938 39.191406 128.105469 33.5625 131.734375 C 38.332031 132.355469 42.296875 130.316406 44.808594 133.847656 C 32.09375 149.605469 32.097656 149.605469 15.371094 153.773438 C 14.984375 153.871094 14.566406 153.878906 14.160156 153.882812 C 9.746094 153.917969 9.046875 158.773438 5.773438 160.332031 C 2.027344 162.117188 -1.066406 164.378906 0.351562 169.601562 C 8.707031 168.113281 16.855469 170.636719 24.375 166.824219 C 26.015625 165.992188 28.335938 166.824219 28.253906 168.351562 C 27.832031 176.527344 35.203125 174.3125 40.375 176.875 C 34.804688 178.15625 30.535156 179.195312 26.234375 180.105469 C 22.0625 180.988281 17.394531 180.867188 15.070312 185.753906 C 27.488281 190.734375 28.875 191.066406 39.660156 186.992188 C 44.066406 185.324219 48.402344 184.953125 52.757812 185.558594 C 56.132812 186.027344 58.824219 187.789062 56.394531 192.214844 C 52.59375 199.140625 51.445312 205.910156 60.535156 211.152344 C 57.851562 211.894531 56.71875 212.417969 55.554688 212.496094 C 45.949219 213.152344 39.601562 216.253906 37.578125 227.453125 C 36.664062 232.519531 36.105469 234.769531 40.011719 238.265625 C 45.792969 243.433594 44.484375 248.285156 37.324219 250.476562 C 35.421875 251.058594 33.300781 251.457031 31.351562 251.253906 C 23.070312 250.382812 16.632812 253.589844 10.339844 260.265625 C 21.84375 260.167969 30.011719 268.628906 40.875 268.199219 C 43.183594 268.109375 45.277344 270.414062 44.792969 273.332031 C 44.339844 276.042969 41.839844 275.871094 39.972656 275.726562 C 28.9375 274.882812 18.25 277.566406 7.425781 278.808594 C 5.453125 279.03125 3.257812 280.148438 3.417969 282.539062 C 3.605469 285.328125 6.214844 285.039062 8.105469 285 C 20.65625 284.753906 32.976562 282.679688 45.300781 280.441406 C 48.75 279.816406 48.296875 278.230469 48.703125 275.652344 C 49.398438 271.238281 51.960938 270.332031 56.628906 272.191406 C 64.992188 275.527344 73.789062 277.78125 82.402344 280.484375 C 83 280.890625 83.652344 281.058594 84.371094 280.988281 C 91.425781 283.390625 88.367188 288.167969 87.089844 292.53125 C 89.679688 291.820312 92.113281 290.777344 94.476562 289.582031 C 92.113281 290.777344 89.679688 291.820312 87.089844 292.53125 C 85.65625 292.820312 84.222656 293.109375 82.792969 293.398438 C 82.738281 297.042969 82.6875 300.683594 82.632812 304.324219 C 94.738281 301.933594 106.457031 303.730469 118.066406 307.363281 C 121.902344 308.566406 126.085938 308.914062 127.722656 313.207031 C 125.359375 317.359375 119.339844 315.730469 116.835938 319.59375 C 120.230469 326.160156 126.078125 325.003906 129.964844 323.527344 C 137.464844 320.6875 145.234375 320.808594 152.730469 320.347656 C 168.058594 319.402344 183.695312 318.183594 198.796875 321.734375 C 216.351562 325.867188 234.035156 327.429688 251.945312 327.5 C 257.671875 327.523438 262.972656 329.226562 268.457031 330.316406 C 279.414062 332.496094 289.484375 337.191406 300.660156 339.0625 C 325.800781 343.265625 350.828125 338.792969 375.863281 340.558594 C 391.636719 341.667969 407.523438 341.167969 423.339844 341.777344 C 426.789062 341.914062 430.242188 342.058594 432.394531 339.59375 C 435.648438 335.859375 439.636719 336.457031 443.558594 336.535156 C 464.6875 336.949219 485.964844 330.175781 506.953125 337.796875 C 507.675781 338.058594 508.640625 338.058594 509.371094 337.816406 C 522.644531 333.425781 537.492188 340.777344 550.300781 332.207031 C 553.023438 330.386719 556.589844 331.410156 559.808594 332.277344 C 562.917969 333.113281 566.105469 333.917969 569.296875 334.097656 C 571.152344 334.199219 574.152344 332.960938 573 330.613281 C 570.238281 324.988281 572.25 321.140625 576.699219 318.148438 C 581.175781 315.140625 586.289062 313.777344 591.753906 314.507812 C 594.949219 314.933594 598.257812 316.492188 601.261719 316.003906 C 616.566406 313.511719 627.742188 323.707031 640.660156 328.394531 C 645.234375 330.054688 644.222656 333.113281 640.585938 335.425781 C 636.320312 338.132812 631.496094 339.566406 626.695312 341.480469 C 636.089844 342.289062 645.351562 343.953125 654.453125 342.28125 C 654.429688 338.707031 653.261719 337.765625 651.816406 336.855469 C 649.742188 335.550781 647.589844 333.941406 648.582031 331.089844 C 649.585938 328.210938 652.621094 328.058594 654.757812 328.53125 C 661.074219 329.9375 666.554688 326.765625 672.449219 326.011719 C 673.566406 326.496094 674.488281 326.25 675.210938 325.265625 C 677.464844 325.21875 679.71875 325.164062 681.96875 325.109375 C 684.894531 328.136719 687.746094 331.507812 692.21875 327.292969 C 693.652344 327.4375 695.089844 327.582031 696.527344 327.726562 C 697.539062 328.058594 698.554688 328.394531 699.570312 328.730469 C 701.21875 328.832031 702.863281 328.933594 704.511719 329.039062 C 706.023438 334.484375 709.03125 336.78125 715.230469 336.796875 C 730.613281 336.832031 730.609375 337.246094 736.0625 324.867188 C 746.300781 323.441406 755.675781 325.519531 764.765625 330.636719 C 773.289062 335.429688 782.746094 338.675781 792.636719 337.679688 C 810.457031 335.894531 828.265625 336.617188 846.089844 336.640625 C 848.703125 336.644531 851.707031 337.542969 854.148438 334.386719 C 850.289062 330.5625 845.332031 328.976562 840.714844 326.835938 C 835.144531 323.824219 829.035156 324.039062 823.015625 323.664062 C 829.035156 324.039062 835.144531 323.824219 840.714844 326.835938 C 843.765625 320.597656 849.035156 320.035156 854.984375 321.273438 C 859.683594 322.253906 864.195312 323.527344 869.210938 321.941406 C 872.105469 321.023438 875.554688 321.664062 878.496094 323.679688 C 884.820312 328 891.523438 327.355469 897.929688 324.015625 C 900.9375 322.449219 903.898438 321.429688 907.1875 321.613281 C 912.972656 321.933594 915.574219 318.484375 917.574219 314.4375 C 915.144531 310.722656 910.609375 314.445312 908.738281 310.226562 C 911.121094 309.546875 913.898438 309.511719 915.617188 308.140625 C 925 300.660156 935.636719 305.050781 942.882812 309.015625 C 953.265625 314.699219 962.753906 314.582031 973.09375 312.75 C 983.199219 310.960938 993.34375 312.433594 1003.449219 311.730469 C 1006.710938 311.503906 1010.789062 312.210938 1011.078125 316.089844 C 1011.460938 321.03125 1006.660156 321.332031 1003.261719 321.734375 C 997.628906 322.394531 992.035156 321.867188 986.359375 320.710938 C 978.363281 319.082031 970.15625 318.597656 962.738281 323.746094 C 965.824219 328.035156 971.242188 324.277344 974.140625 328.351562 C 969.839844 335.324219 961.925781 329.664062 956.304688 333.234375 C 961.890625 334.226562 967.253906 333.238281 972.296875 335.386719 C 974.980469 336.527344 978.417969 336.5625 980.109375 333.878906 C 985.074219 326.011719 992.921875 326.761719 1000.558594 325.957031 C 1009.820312 324.980469 1019 323.867188 1028.359375 323.964844 C 1033.488281 324.015625 1038.691406 322.261719 1043.761719 320.957031 C 1045.980469 320.386719 1049.671875 319.265625 1049.128906 316.90625 C 1047.191406 308.484375 1054.339844 307.433594 1058.238281 307.707031 C 1072.230469 308.699219 1085.898438 312.828125 1100.101562 312.46875 C 1103.300781 319.648438 1109.808594 316.515625 1114.941406 316.9375 C 1130.371094 318.195312 1145.570312 315.296875 1160.839844 313.707031 C 1162.300781 313.703125 1163.769531 313.699219 1165.230469 313.695312 C 1165.660156 312.824219 1166.101562 311.949219 1166.53125 311.082031 C 1166.101562 311.949219 1165.660156 312.824219 1165.230469 313.695312 C 1166.238281 313.566406 1167.238281 313.4375 1168.25 313.3125 C 1174.128906 313.964844 1178.539062 309.074219 1184.359375 309.195312 C 1193.371094 309.386719 1201.320312 305.355469 1209.488281 302.304688 C 1216.640625 303.035156 1224.441406 299.492188 1230.71875 306.992188 C 1230.96875 302.714844 1231.140625 299.898438 1231.308594 297.085938 C 1232.898438 296.988281 1234.480469 296.886719 1236.070312 296.789062 C 1237.648438 296.875 1239.371094 297.394531 1240.789062 296.945312 C 1242.488281 296.402344 1245.429688 295.730469 1244.410156 293.214844 C 1243.398438 290.734375 1240.96875 289.996094 1238.660156 292.394531 C 1236.191406 292.4375 1233.710938 292.476562 1231.238281 292.515625 C 1227.949219 292.230469 1225.019531 290.929688 1222.03125 289.617188 C 1217.929688 287.824219 1213.671875 286.359375 1209.511719 289.660156 C 1208 289.628906 1206.488281 289.597656 1204.980469 289.570312 C 1203.421875 287.996094 1201.621094 287.679688 1199.578125 288.46875 C 1196.328125 288.386719 1193.089844 288.300781 1189.839844 288.214844 C 1189.050781 287.402344 1186.230469 285.703125 1188.171875 285.691406 C 1205.261719 285.582031 1221.699219 279.5625 1238.828125 280.464844 C 1247.898438 280.945312 1256.539062 279.390625 1264.730469 275.363281 C 1266.550781 274.46875 1269.121094 273.75 1268.539062 271.566406 C 1267.828125 268.902344 1264.960938 268.113281 1262.519531 269.148438 C 1257.039062 271.46875 1251.421875 271.121094 1245.738281 270.8125 C 1242.730469 270.648438 1241.441406 269.023438 1241.539062 266.113281 C 1247.898438 264.011719 1253.511719 259.898438 1260.371094 259.164062 C 1261.191406 261.183594 1262.738281 263.277344 1264.789062 262.328125 C 1271.421875 259.265625 1278.511719 257.679688 1285.28125 255.160156 C 1287.21875 254.441406 1288.460938 251.855469 1290.019531 250.128906 C 1284.949219 246.964844 1287.019531 246.734375 1291.328125 245.621094 C 1299.441406 243.519531 1308.351562 243.839844 1315.46875 238.484375 C 1318.628906 236.101562 1319.421875 240.019531 1321.460938 240.507812 C 1323.480469 240.984375 1325.601562 240.929688 1327.160156 239.449219 C 1328.820312 237.867188 1328.539062 235.617188 1327.738281 233.785156 C 1326.210938 230.261719 1323.511719 229.328125 1319.769531 230.578125 C 1316.5 231.675781 1313.980469 234.769531 1309.648438 233.246094 C 1305.378906 231.746094 1301.230469 228.585938 1295.988281 232.015625 C 1291.929688 234.679688 1288.109375 228.480469 1282.539062 231.160156 C 1276.359375 234.140625 1270.410156 228.253906 1264.519531 225.921875 C 1262.160156 224.980469 1263.121094 221.5625 1262.738281 219.230469 L 1262.828125 219.105469 C 1268.300781 221.554688 1272.328125 216.21875 1277.640625 216.558594 C 1291.328125 217.429688 1305.121094 216.765625 1318.519531 220.832031 C 1324.390625 222.609375 1324.429688 222.191406 1325.070312 215.398438 C 1325.160156 214.378906 1326.238281 213.300781 1327.121094 212.539062 C 1328.539062 211.300781 1329.550781 210.386719 1326.730469 209.867188 C 1324.328125 209.421875 1321.398438 209.121094 1322.421875 205.648438 C 1323.199219 203.027344 1325.941406 203.023438 1328.328125 202.332031 C 1336.960938 199.84375 1346.921875 202.953125 1354.5 195.773438 C 1356.890625 193.507812 1358.550781 199.773438 1361.75 197.476562 C 1362.511719 194.480469 1358.921875 191.320312 1362.03125 188.441406 C 1364.558594 186.097656 1369.460938 189.457031 1371.710938 183.582031 C 1361.769531 185.675781 1353.101562 183.894531 1344.519531 179.1875 C 1345.769531 176.441406 1348.011719 172.886719 1350.351562 174.070312 C 1359.03125 178.472656 1368.691406 172.597656 1377.160156 177.410156 C 1381.261719 179.734375 1382.628906 176.484375 1384.148438 173.378906 C 1386.511719 168.542969 1382.421875 164.039062 1383.621094 158.757812 C 1398.570312 157.871094 1413.339844 157.144531 1428.171875 158.109375 C 1431.28125 158.308594 1433.570312 159.210938 1434.929688 162.222656 C 1436.488281 165.699219 1433.839844 167.320312 1432.199219 169.542969 C 1430.671875 171.617188 1426.988281 172.402344 1428.269531 177.492188 C 1439.679688 176.210938 1451.171875 175.25 1462.898438 172.015625 C 1460.089844 170.382812 1456.179688 171.335938 1455.851562 167.402344"/><path d="M 1245.089844 39.457031 C 1247.238281 37.273438 1249.511719 35.308594 1252.359375 37.582031 C 1261.109375 44.578125 1271.070312 41.304688 1280.289062 40.265625 C 1286.109375 39.609375 1291.21875 39.667969 1296.800781 41.171875 C 1312.441406 45.386719 1328.339844 44.535156 1344.238281 42.964844 C 1333.71875 39.902344 1324.429688 31.167969 1312.28125 36.320312 C 1311.171875 36.796875 1309.121094 35.6875 1307.761719 34.890625 C 1300.230469 30.472656 1291.988281 31.074219 1284.03125 32.203125 C 1271.550781 33.976562 1259.210938 36.058594 1246.78125 32.179688 C 1245.671875 31.835938 1244.351562 32.03125 1243.148438 32.1875 C 1241.011719 32.476562 1239.199219 33.402344 1239.078125 35.847656 C 1239.03125 36.988281 1239.261719 38.386719 1239.898438 39.269531 C 1241.398438 41.328125 1243.539062 41.023438 1245.089844 39.457031"/><path d="M 1431.371094 195.292969 C 1431.210938 194.609375 1431.390625 193.597656 1430.988281 193.273438 C 1429.28125 191.898438 1418.378906 193.09375 1416.941406 194.734375 C 1415.148438 196.777344 1416.019531 199.398438 1415.898438 201.664062 C 1415.761719 204.371094 1418.488281 204.269531 1420.429688 204.21875 C 1425.640625 204.082031 1431.03125 204.980469 1435.71875 201.773438 C 1433.859375 200.835938 1432.011719 198.121094 1431.371094 195.292969"/><path d="M 70.777344 293.351562 C 69.929688 293.394531 68.664062 294.78125 68.484375 295.722656 C 68.304688 296.65625 69.171875 298.6875 69.703125 298.730469 C 74.6875 299.144531 77.207031 305.144531 82.632812 304.324219 C 82.6875 300.683594 82.738281 297.042969 82.792969 293.398438 C 78.785156 293.347656 74.773438 293.152344 70.777344 293.351562"/><path d="M 927.839844 315.757812 C 925.660156 318.441406 927.015625 321.421875 929.65625 322.738281 C 935.761719 325.78125 937.695312 320.8125 941.273438 316.117188 C 935.960938 315.117188 932.101562 310.503906 927.839844 315.757812"/><path d="M 46.3125 208.296875 C 46.570312 208.136719 46.796875 207.429688 46.664062 207.210938 C 45.0625 204.609375 43.289062 206.769531 41.609375 207.125 C 40.515625 207.355469 39.476562 207.863281 38.199219 208.324219 C 38.804688 208.734375 39.074219 209.074219 39.375 209.101562 C 41.742188 209.300781 44.148438 209.65625 46.3125 208.296875"/><path d="M 928.851562 34.128906 C 929.722656 33.78125 930.597656 33.429688 931.472656 33.082031 C 930.171875 32.363281 929.410156 32.996094 928.851562 34.128906"/></g></svg>